<svg xmlns="http://www.w3.org/2000/svg" xml:space="preserve" style="enable-background:new 0 0 3710 3710" viewBox="0 0 3710 3710"><path d="M0 0h3710v3710H0z" style="fill:#fff"/><linearGradient id="a" x1="3573.249" x2="1135.696" y1="4016.939" y2="989.651" gradientUnits="userSpaceOnUse"><stop offset="0" style="stop-color:#dae3fe"/><stop offset="1" style="stop-color:#e9effd"/></linearGradient><path d="M2918.238 2812.232c-56.843 58.351-110.628 95.98-153.122 125.711-499.51 349.472-1090.564 247.603-1216.18 222.725-185.495-36.736-544.052-107.746-803.283-404.998-392.194-449.718-331.124-1158.235-26.911-1625.938 55.645-85.551 349.579-560.377 946.999-636.524 361.552-46.083 783.005 46.861 1088.21 296.19 640.653 523.363 595.045 1580.648 164.287 2022.834z" style="fill:url(#a)"/><path d="M972.923 472.585C883.47 718.61 411.06 2160.427 1457.971 2580.552c0 0 514.459-917.218-452.716-2120.565-8.461-10.527-26.488-3.475-32.332 12.598z" style="fill:#bdd0fb"/><linearGradient id="b" x1="1016.826" x2="1399.68" y1="1599.533" y2="1599.533" gradientUnits="userSpaceOnUse"><stop offset="0" style="stop-color:#dae3fe"/><stop offset="1" style="stop-color:#e9effd"/></linearGradient><path d="M1028.144 695.823s-1.737 29.186-3.109 80.388c-1.365 51.194-2.408 124.38-.978 212.177 1.365 87.791 5.257 190.196 13.296 299.642 8.17 109.421 20.43 225.909 38.553 341.506 9.014 57.799 19.4 115.377 31.201 171.718 11.859 56.326 25.169 111.402 39.781 164.207 14.606 52.805 30.539 103.331 47.456 150.578 16.904 47.252 34.802 91.211 52.97 131.01 18.191 39.787 36.48 75.497 54.091 106.328 4.334 7.747 8.864 15.049 13.052 22.204 2.115 3.564 4.194 7.064 6.231 10.499 2.141 3.37 4.243 6.676 6.299 9.916 4.123 6.476 8.076 12.688 11.853 18.625l11.328 16.609c7.046 10.61 13.876 19.69 19.729 27.656l8.131 11.031 7.078 8.933c8.46 10.68 12.974 16.376 12.974 16.376l.156.197a6.673 6.673 0 0 1-1.089 9.375 6.671 6.671 0 0 1-9.373-1.087l-.02-.021-13.101-16.676c-2.138-2.719-4.523-5.755-7.147-9.098-2.506-3.43-5.244-7.173-8.199-11.219-5.902-8.101-12.791-17.34-19.883-28.113-3.611-5.341-7.414-10.969-11.406-16.871-3.797-6.024-7.773-12.327-11.918-18.898-2.066-3.287-4.178-6.641-6.329-10.061-2.05-3.481-4.135-7.029-6.264-10.642-4.204-7.251-8.754-14.657-13.101-22.502-17.67-31.232-35.982-67.353-54.156-107.541-18.152-40.199-35.995-84.545-52.804-132.154-16.826-47.604-32.631-98.461-47.088-151.565-14.46-53.104-27.593-108.448-39.26-165.014-11.608-56.58-21.786-114.369-30.588-172.354-17.689-115.971-29.496-232.734-37.23-342.37-7.603-109.66-11.077-212.218-12.081-300.127-2.109-175.86 5.296-293 5.296-293a2.828 2.828 0 0 1 2.995-2.65 2.823 2.823 0 0 1 2.654 2.988z" style="fill:url(#b)"/><path d="M1201.96 2079.882S360.686 1783.496 491.317 719.907c2.179-17.733 30.164-27.536 46.161-16.185 148.91 105.661 658.79 529.062 664.482 1376.16z" style="fill:#91b3fa"/><linearGradient id="c" x1="633.441" x2="1095.626" y1="1444.834" y2="1444.834" gradientUnits="userSpaceOnUse"><stop offset="0" style="stop-color:#dae3fe"/><stop offset="1" style="stop-color:#e9effd"/></linearGradient><path d="M638.506 933.587s30.22 63.027 75.555 157.567c22.607 47.298 48.802 102.567 76.646 161.889l42.366 91.715c7.163 15.64 14.381 31.404 21.633 47.229 7.134 15.877 14.3 31.817 21.463 47.756l42.571 95.226c13.919 31.467 27.613 62.434 40.87 92.402 12.964 30.096 25.501 59.19 37.386 86.778 11.882 27.589 22.803 53.814 33.049 77.945 5.152 12.053 9.94 23.67 14.421 34.749 4.517 11.064 8.799 21.558 12.827 31.421a87240.14 87240.14 0 0 0 11.269 27.628l9.333 23.555c11.175 28.479 17.559 44.753 17.559 44.753a2.486 2.486 0 0 1-4.599 1.89l-.016-.033s-6.873-16.056-18.908-44.154c-2.985-7.033-6.286-14.82-9.884-23.297-3.682-8.443-7.665-17.574-11.918-27.33l-28.672-65.499c-10.595-23.962-21.89-49.997-34.17-77.392-12.286-27.393-25.24-56.28-38.641-86.163-13.401-29.884-27.244-60.765-41.316-92.143l-43.037-94.966c-28.874-63.629-57.751-127.259-84.819-186.911-26.889-59.743-51.983-115.503-73.492-163.297l-52.289-115.369c-6.342-13.909-11.325-24.839-14.72-32.29l-5.283-11.391a2.662 2.662 0 0 1 4.816-2.268z" style="fill:url(#c)"/><linearGradient id="d" x1="2906.825" x2="782.663" y1="1326.493" y2="2943.846" gradientUnits="userSpaceOnUse"><stop offset="0" style="stop-color:#09005d"/><stop offset="1" style="stop-color:#1a0f91"/></linearGradient><path d="m618.92 1323.833 2400.956-40.573c96.664-1.633 174.25 81.274 168.505 180.061l-82.642 1421.197c-4.523 77.781-67.084 138.71-143.2 139.462L654.64 3046.804c-57.005.564-104.103-45.399-106.274-103.712l-55.218-1483.285c-2.732-73.404 54.021-134.761 125.772-135.974z" style="fill:url(#d)"/><path d="m655.724 1360.039 2338.292-38.602c94.141-1.555 169.702 77.324 164.107 171.311l-80.486 1352.131c-4.405 74.001-65.333 131.969-139.462 132.686l-2247.664 21.714c-55.518.537-101.386-43.193-103.501-98.673l-53.776-1411.202c-2.661-69.836 52.612-128.212 122.49-129.365z" style="fill:#7d97f4"/><path d="m702.764 1432.617 2233.51-36.172c89.922-1.457 162.097 72.457 156.754 160.527l-76.879 1267.019c-4.208 69.343-62.406 123.662-133.213 124.333l-2146.943 20.348c-53.03.502-96.843-40.474-98.862-92.462l-51.367-1322.37c-2.543-65.441 50.253-120.142 117-121.223z" style="fill:#91b3fa"/><path d="m1361.986 1615.704-654.784 1.724a2.471 2.471 0 0 1-2.478-2.465l-.14-53.232a2.471 2.471 0 0 1 2.465-2.478l654.784-1.724a2.471 2.471 0 0 1 2.478 2.465l.14 53.232a2.472 2.472 0 0 1-2.465 2.478zM1775.054 1615.881l-226.745.597a2.37 2.37 0 0 1-2.377-2.365l-.141-53.432a2.371 2.371 0 0 1 2.365-2.377l226.745-.597a2.371 2.371 0 0 1 2.377 2.365l.141 53.431a2.372 2.372 0 0 1-2.365 2.378zM2278.539 1614.555l-449.641 1.184a3.77 3.77 0 0 1-3.779-3.759l-.133-50.635a3.77 3.77 0 0 1 3.759-3.779l449.641-1.184a3.77 3.77 0 0 1 3.779 3.759l.134 50.635a3.77 3.77 0 0 1-3.76 3.779zM877.09 1719.219l-169.315.446a3.77 3.77 0 0 1-3.779-3.759l-.133-50.635a3.77 3.77 0 0 1 3.759-3.779l169.315-.446a3.77 3.77 0 0 1 3.779 3.759l.133 50.635a3.77 3.77 0 0 1-3.759 3.779zM1363.561 1718.043l-474.845 1.25a2.471 2.471 0 0 1-2.478-2.465l-.14-53.232a2.471 2.471 0 0 1 2.465-2.478l474.845-1.25a2.471 2.471 0 0 1 2.478 2.465l.14 53.232a2.472 2.472 0 0 1-2.465 2.478zM1777.183 1718.218l-226.745.597a2.37 2.37 0 0 1-2.377-2.365l-.141-53.431a2.37 2.37 0 0 1 2.365-2.377l226.745-.597a2.37 2.37 0 0 1 2.377 2.365l.141 53.431a2.371 2.371 0 0 1-2.365 2.377zM2653.104 1715.912l-662.203 1.744a3.77 3.77 0 0 1-3.779-3.759l-.133-50.635a3.77 3.77 0 0 1 3.759-3.779l662.203-1.743a3.768 3.768 0 0 1 3.779 3.759l.133 50.635a3.769 3.769 0 0 1-3.759 3.778zM877.229 1821.413l-169.315.446a3.77 3.77 0 0 1-3.779-3.759l-.133-50.635a3.77 3.77 0 0 1 3.759-3.779l169.315-.446a3.77 3.77 0 0 1 3.779 3.759l.133 50.635a3.77 3.77 0 0 1-3.759 3.779zM1363.601 1820.237l-474.845 1.25a2.471 2.471 0 0 1-2.478-2.465l-.14-53.232a2.471 2.471 0 0 1 2.465-2.478l474.845-1.25a2.471 2.471 0 0 1 2.478 2.465l.14 53.232a2.473 2.473 0 0 1-2.465 2.478zM1777.283 1820.411l-226.745.597a2.37 2.37 0 0 1-2.377-2.365l-.141-53.431a2.37 2.37 0 0 1 2.365-2.377l226.745-.597a2.371 2.371 0 0 1 2.377 2.365l.141 53.432a2.37 2.37 0 0 1-2.365 2.376zM2938.307 1817.354l-865.179 2.278a3.77 3.77 0 0 1-3.779-3.759l-.133-50.635a3.77 3.77 0 0 1 3.76-3.779l865.179-2.278a3.77 3.77 0 0 1 3.779 3.759l.133 50.635a3.77 3.77 0 0 1-3.76 3.779zM878.92 1923.751l-169.315.446a3.77 3.77 0 0 1-3.779-3.759l-.133-50.635a3.77 3.77 0 0 1 3.759-3.779l169.315-.446a3.77 3.77 0 0 1 3.779 3.759l.133 50.635a3.77 3.77 0 0 1-3.759 3.779zM1366.392 1922.573l-474.845 1.25a2.471 2.471 0 0 1-2.478-2.465l-.14-53.232a2.471 2.471 0 0 1 2.465-2.478l474.845-1.25a2.471 2.471 0 0 1 2.478 2.465l.14 53.232a2.472 2.472 0 0 1-2.465 2.478zM1779.413 1922.748l-226.745.597a2.37 2.37 0 0 1-2.377-2.365l-.141-53.432a2.371 2.371 0 0 1 2.365-2.377l226.745-.597a2.37 2.37 0 0 1 2.377 2.365l.141 53.432a2.371 2.371 0 0 1-2.365 2.377zM2943.164 1919.684l-865.179 2.278a3.77 3.77 0 0 1-3.779-3.759l-.134-50.635a3.77 3.77 0 0 1 3.76-3.779l865.179-2.278a3.77 3.77 0 0 1 3.779 3.759l.133 50.635a3.768 3.768 0 0 1-3.759 3.779zM878.663 2029.946l-169.315.446a3.77 3.77 0 0 1-3.779-3.759l-.133-50.635a3.77 3.77 0 0 1 3.759-3.779l169.315-.446a3.77 3.77 0 0 1 3.779 3.759l.133 50.635a3.77 3.77 0 0 1-3.759 3.779zM1365.72 2028.769l-474.845 1.25a2.471 2.471 0 0 1-2.478-2.464l-.14-53.232a2.471 2.471 0 0 1 2.465-2.478l474.845-1.25a2.471 2.471 0 0 1 2.478 2.465l.14 53.232a2.471 2.471 0 0 1-2.465 2.477zM1778.99 2028.944l-226.745.597a2.371 2.371 0 0 1-2.377-2.365l-.141-53.431a2.371 2.371 0 0 1 2.365-2.377l226.745-.597a2.37 2.37 0 0 1 2.377 2.365l.141 53.432a2.37 2.37 0 0 1-2.365 2.376zM2941.712 2025.882l-865.179 2.278a3.77 3.77 0 0 1-3.779-3.759l-.134-50.635a3.77 3.77 0 0 1 3.76-3.779l865.179-2.278a3.77 3.77 0 0 1 3.779 3.759l.133 50.635a3.768 3.768 0 0 1-3.759 3.779zM880.354 2132.284l-169.315.446a3.77 3.77 0 0 1-3.779-3.76l-.133-50.635a3.77 3.77 0 0 1 3.759-3.779l169.315-.446a3.77 3.77 0 0 1 3.779 3.759l.133 50.635a3.77 3.77 0 0 1-3.759 3.78zM1368.511 2131.105l-474.845 1.25a2.471 2.471 0 0 1-2.478-2.465l-.14-53.231a2.471 2.471 0 0 1 2.465-2.478l474.845-1.25a2.471 2.471 0 0 1 2.478 2.465l.14 53.232a2.471 2.471 0 0 1-2.465 2.477zM1781.12 2131.281l-226.745.597a2.371 2.371 0 0 1-2.377-2.365l-.141-53.431a2.37 2.37 0 0 1 2.365-2.377l226.745-.597a2.37 2.37 0 0 1 2.377 2.365l.141 53.431a2.372 2.372 0 0 1-2.365 2.377zM2357.405 2129.763l-527.15 1.388a3.77 3.77 0 0 1-3.779-3.76l-.133-50.635a3.77 3.77 0 0 1 3.759-3.779l527.15-1.388a3.768 3.768 0 0 1 3.779 3.759l.133 50.635a3.77 3.77 0 0 1-3.759 3.78zM1368.904 2233.298l-658.378 1.733a2.471 2.471 0 0 1-2.478-2.465l-.14-53.232a2.471 2.471 0 0 1 2.465-2.478l658.378-1.733a2.471 2.471 0 0 1 2.478 2.465l.14 53.231a2.471 2.471 0 0 1-2.465 2.479zM1781.22 2233.474l-226.745.597a2.371 2.371 0 0 1-2.377-2.365l-.141-53.431a2.37 2.37 0 0 1 2.365-2.377l226.745-.597a2.37 2.37 0 0 1 2.377 2.365l.141 53.431a2.372 2.372 0 0 1-2.365 2.377zM2610.1 2231.292l-659.072 1.735a3.77 3.77 0 0 1-3.779-3.76l-.133-50.635a3.77 3.77 0 0 1 3.759-3.779l659.072-1.735a3.768 3.768 0 0 1 3.779 3.759l.133 50.635a3.77 3.77 0 0 1-3.759 3.78zM875.528 2336.833l-162.245.427a3.768 3.768 0 0 1-3.779-3.759l-.133-50.635a3.77 3.77 0 0 1 3.759-3.779l162.245-.427a3.77 3.77 0 0 1 3.779 3.759l.133 50.635a3.77 3.77 0 0 1-3.759 3.779zM1371.342 2335.635l-474.845 1.25a2.471 2.471 0 0 1-2.478-2.465l-.14-53.232a2.471 2.471 0 0 1 2.465-2.478l474.845-1.25a2.471 2.471 0 0 1 2.478 2.465l.14 53.231a2.472 2.472 0 0 1-2.465 2.479zM1783.35 2335.811l-226.745.597a2.371 2.371 0 0 1-2.377-2.365l-.141-53.431a2.371 2.371 0 0 1 2.365-2.377l226.745-.597a2.37 2.37 0 0 1 2.377 2.365l.141 53.431a2.372 2.372 0 0 1-2.365 2.377zM2948.275 2332.744l-894.822 2.356a3.77 3.77 0 0 1-3.779-3.76l-.134-50.635a3.77 3.77 0 0 1 3.76-3.779l894.822-2.356a3.77 3.77 0 0 1 3.779 3.759l.133 50.635a3.768 3.768 0 0 1-3.759 3.78zM879.321 2642.231l-169.315.446a3.768 3.768 0 0 1-3.779-3.759l-.133-50.635a3.77 3.77 0 0 1 3.759-3.779l169.315-.446a3.77 3.77 0 0 1 3.779 3.76l.133 50.635a3.768 3.768 0 0 1-3.759 3.778zM1367.711 2641.054l-474.845 1.25a2.472 2.472 0 0 1-2.478-2.465l-.14-53.232a2.471 2.471 0 0 1 2.465-2.478l474.845-1.25a2.471 2.471 0 0 1 2.478 2.465l.14 53.232a2.472 2.472 0 0 1-2.465 2.478zM1780.087 2641.228l-226.745.597a2.37 2.37 0 0 1-2.377-2.365l-.141-53.431a2.37 2.37 0 0 1 2.365-2.377l226.745-.597a2.371 2.371 0 0 1 2.377 2.365l.141 53.431a2.37 2.37 0 0 1-2.365 2.377zM2356.372 2639.711l-527.15 1.388a3.77 3.77 0 0 1-3.779-3.759l-.133-50.635a3.77 3.77 0 0 1 3.759-3.779l527.15-1.388a3.77 3.77 0 0 1 3.779 3.76l.133 50.635a3.77 3.77 0 0 1-3.759 3.778zM1368.104 2743.247l-658.378 1.733a2.471 2.471 0 0 1-2.478-2.465l-.14-53.232a2.471 2.471 0 0 1 2.465-2.478l658.378-1.733a2.472 2.472 0 0 1 2.478 2.465l.14 53.232a2.471 2.471 0 0 1-2.465 2.478zM1780.187 2743.421l-226.745.597a2.371 2.371 0 0 1-2.377-2.365l-.141-53.432a2.37 2.37 0 0 1 2.365-2.377l226.745-.597a2.371 2.371 0 0 1 2.377 2.365l.141 53.431a2.37 2.37 0 0 1-2.365 2.378zM2608.708 2741.24l-659.072 1.735a3.768 3.768 0 0 1-3.779-3.759l-.133-50.635a3.77 3.77 0 0 1 3.759-3.779l659.072-1.735a3.768 3.768 0 0 1 3.779 3.759l.133 50.635a3.768 3.768 0 0 1-3.759 3.779zM874.495 2846.781l-162.245.427a3.77 3.77 0 0 1-3.779-3.759l-.133-50.635a3.77 3.77 0 0 1 3.759-3.779l162.245-.427a3.77 3.77 0 0 1 3.779 3.76l.133 50.635a3.77 3.77 0 0 1-3.759 3.778zM1370.542 2845.584l-474.845 1.25a2.471 2.471 0 0 1-2.478-2.465l-.14-53.232a2.471 2.471 0 0 1 2.465-2.478l474.845-1.25a2.471 2.471 0 0 1 2.478 2.465l.14 53.231a2.472 2.472 0 0 1-2.465 2.479zM1782.317 2845.759l-226.745.597a2.37 2.37 0 0 1-2.377-2.365l-.141-53.432a2.371 2.371 0 0 1 2.365-2.377l226.745-.597a2.371 2.371 0 0 1 2.377 2.365l.141 53.431a2.372 2.372 0 0 1-2.365 2.378zM2946.884 2842.692l-894.822 2.356a3.77 3.77 0 0 1-3.779-3.759l-.133-50.635a3.77 3.77 0 0 1 3.76-3.779l894.822-2.356a3.77 3.77 0 0 1 3.779 3.76l.133 50.635a3.77 3.77 0 0 1-3.76 3.778zM873.817 2440.924l-162.245.427a3.77 3.77 0 0 1-3.779-3.759l-.133-50.635a3.77 3.77 0 0 1 3.759-3.779l162.245-.427a3.77 3.77 0 0 1 3.779 3.76l.133 50.635a3.768 3.768 0 0 1-3.759 3.778zM1367.948 2439.731l-474.845 1.25a2.471 2.471 0 0 1-2.478-2.465l-.14-53.232a2.471 2.471 0 0 1 2.465-2.478l474.845-1.25a2.472 2.472 0 0 1 2.478 2.465l.14 53.232a2.472 2.472 0 0 1-2.465 2.478zM1780.918 2439.904l-226.745.597a2.371 2.371 0 0 1-2.377-2.365l-.141-53.432a2.371 2.371 0 0 1 2.365-2.377l226.745-.597a2.37 2.37 0 0 1 2.377 2.365l.141 53.431a2.372 2.372 0 0 1-2.365 2.378zM2941.65 2436.848l-894.822 2.356a3.768 3.768 0 0 1-3.779-3.759l-.133-50.635a3.77 3.77 0 0 1 3.759-3.779l894.822-2.356a3.768 3.768 0 0 1 3.779 3.759l.133 50.635a3.768 3.768 0 0 1-3.759 3.779zM875.451 2543.262l-162.245.427a3.768 3.768 0 0 1-3.779-3.759l-.133-50.635a3.77 3.77 0 0 1 3.759-3.779l162.245-.427a3.768 3.768 0 0 1 3.779 3.759l.133 50.635a3.768 3.768 0 0 1-3.759 3.779zM1370.74 2542.067l-474.845 1.25a2.471 2.471 0 0 1-2.478-2.465l-.14-53.232a2.471 2.471 0 0 1 2.465-2.478l474.845-1.25a2.471 2.471 0 0 1 2.478 2.465l.14 53.231a2.473 2.473 0 0 1-2.465 2.479zM1783.048 2542.241l-226.745.597a2.37 2.37 0 0 1-2.377-2.365l-.141-53.431a2.37 2.37 0 0 1 2.365-2.377l226.745-.597a2.371 2.371 0 0 1 2.377 2.365l.141 53.431a2.371 2.371 0 0 1-2.365 2.377zM2946.663 2539.178l-894.822 2.356a3.77 3.77 0 0 1-3.779-3.76l-.133-50.635a3.768 3.768 0 0 1 3.759-3.779l894.822-2.356a3.768 3.768 0 0 1 3.779 3.759l.133 50.635a3.77 3.77 0 0 1-3.759 3.78zM1472.141 2914.213l-18.587.049a1.384 1.384 0 0 1-1.387-1.38l-3.767-1430.849a1.384 1.384 0 0 1 1.38-1.387l18.587-.049a1.384 1.384 0 0 1 1.387 1.38l3.767 1430.849a1.383 1.383 0 0 1-1.38 1.387z" style="opacity:.53;fill:#fff"/><linearGradient id="e" x1="1447.123" x2="1442.353" y1="3040.161" y2="3114.096" gradientUnits="userSpaceOnUse"><stop offset="0" style="stop-color:#09005d"/><stop offset="1" style="stop-color:#1a0f91"/></linearGradient><path d="M2079.828 3173.05H794.587c-11.49 0-20.804 9.315-20.804 20.805s9.314 20.804 20.804 20.804h1285.241c11.49 0 20.804-9.314 20.804-20.804.001-11.49-9.314-20.805-20.804-20.805z" style="fill:url(#e)"/><linearGradient id="f" x1="1448.992" x2="1432.297" y1="2835.94" y2="3198.463" gradientUnits="userSpaceOnUse"><stop offset="0" style="stop-color:#09005d"/><stop offset="1" style="stop-color:#1a0f91"/></linearGradient><path d="M1897.785 2961.529H976.63c-27.771 0-50.283 22.513-50.283 50.282v161.239h1021.721v-161.239c0-27.769-22.512-50.282-50.283-50.282z" style="fill:url(#f)"/><linearGradient id="g" x1="1446.834" x2="1432.524" y1="2737.387" y2="3040.284" gradientUnits="userSpaceOnUse"><stop offset="0" style="stop-color:#09005d"/><stop offset="1" style="stop-color:#1a0f91"/></linearGradient><path d="M1829.635 2871.683H1044.78c-27.77 0-50.283 22.512-50.283 50.282v39.563h885.42v-39.563c.001-27.769-22.512-50.282-50.282-50.282z" style="fill:url(#g)"/><linearGradient id="h" x1="1453.321" x2="1431.822" y1="2525.046" y2="2818.862" gradientUnits="userSpaceOnUse"><stop offset="0" style="stop-color:#09005d"/><stop offset="1" style="stop-color:#1a0f91"/></linearGradient><path d="M1673.63 2871.683h-472.846v-252.365c0-6.993 5.669-12.661 12.661-12.661h447.524c6.993 0 12.661 5.668 12.661 12.661v252.365z" style="fill:url(#h)"/><linearGradient id="i" x1="-1229.734" x2="-1125.939" y1="997.511" y2="997.511" gradientTransform="rotate(-42.637 1514.525 -1186.03)" gradientUnits="userSpaceOnUse"><stop offset="0" style="stop-color:#09005d"/><stop offset="1" style="stop-color:#1a0f91"/></linearGradient><path d="M666.134 1848.454c-11.521 10.608-12.523 28.453-2.262 40.284l647.04 755.569c10.702 12.338 29.483 13.393 41.498 2.33l55.049-50.686-712.602-773.944-28.723 26.447z" style="fill:url(#i)"/><linearGradient id="j" x1="-1159.526" x2="-907.799" y1="909.606" y2="909.606" gradientTransform="rotate(-42.637 1514.525 -1186.03)" gradientUnits="userSpaceOnUse"><stop offset="0" style="stop-color:#09005d"/><stop offset="1" style="stop-color:#1a0f91"/></linearGradient><path d="M754.738 1605.703c-22.027-22.959-58.372-24.085-81.778-2.534l-58.03 53.431c-23.406 21.551-25.279 57.865-4.213 81.709l772.039 880.388 161.834-149.007c13.125-12.084 13.722-32.605 1.324-45.433l-791.176-818.554z" style="fill:url(#j)"/><linearGradient id="k" x1="-854.79" x2="-1087.008" y1="379.98" y2="1057.87" gradientTransform="rotate(-42.637 1514.525 -1186.03)" gradientUnits="userSpaceOnUse"><stop offset="0" style="stop-color:#4f52ff"/><stop offset="1" style="stop-color:#4042e2"/></linearGradient><path d="m810.107 1790.172-6.07 5.589c-18.794 17.304-20.001 46.568-2.697 65.361l407.412 442.483c17.304 18.794 46.567 20.001 65.361 2.697l6.07-5.589c18.794-17.304 20.001-46.568 2.697-65.361L875.468 1792.87c-17.304-18.794-46.568-20.002-65.361-2.698z" style="fill:url(#k)"/><path d="M1030.483 1701.242h23.253v693.991h-23.253z" style="fill:#7d97f4" transform="rotate(-42.634 1042.214 2048.352)"/><linearGradient id="l" x1="-1275.01" x2="-862.524" y1="1513.225" y2="1513.225" gradientTransform="rotate(-42.637 1514.525 -1186.03)" gradientUnits="userSpaceOnUse"><stop offset="0" style="stop-color:#4f52ff"/><stop offset="1" style="stop-color:#4042e2"/></linearGradient><circle cx="1442.568" cy="2549.659" r="206.256" style="fill:url(#l)"/><circle cx="1442.568" cy="2549.659" r="157.552" style="fill:#7d97f4" transform="rotate(-45.001 1442.545 2549.688)"/><linearGradient id="m" x1="-1515.992" x2="-1487.378" y1="116.557" y2="-83.737" gradientTransform="rotate(-58.26 1040.002 -1579.11)" gradientUnits="userSpaceOnUse"><stop offset="0" style="stop-color:#09005d"/><stop offset="1" style="stop-color:#1a0f91"/></linearGradient><path d="m752.306 1712.883 51.102 31.614c11.154 6.9 25.804 3.218 32.37-8.136l395.552-694.015c6.296-10.887 2.797-24.807-7.898-31.423l-26.664-16.495-444.462 718.455z" style="fill:url(#m)"/><linearGradient id="n" x1="-1910.932" x2="-924.977" y1="-166.184" y2="-166.184" gradientTransform="rotate(-58.26 1040.002 -1579.11)" gradientUnits="userSpaceOnUse"><stop offset="0" style="stop-color:#09005d"/><stop offset="1" style="stop-color:#1a0f91"/></linearGradient><path d="m1180.822 818.537 53.87 33.326c21.728 13.442 28.716 41.793 15.723 63.793L775.238 1727.07l-150.231-92.939c-12.184-7.537-15.769-23.629-7.939-35.625l499.651-765.558c13.886-21.449 42.374-27.853 64.103-14.411z" style="fill:url(#n)"/><linearGradient id="o" x1="-1395.489" x2="-1454.672" y1="-367.439" y2="-20.795" gradientTransform="rotate(-58.26 1040.002 -1579.11)" gradientUnits="userSpaceOnUse"><stop offset="0" style="stop-color:#4f52ff"/><stop offset="1" style="stop-color:#4042e2"/></linearGradient><path d="m1034.766 1023.364-265.699 429.491c-11.756 19.002-5.881 43.936 13.121 55.692 19.002 11.755 43.937 5.881 55.692-13.122l265.699-429.491c11.755-19.002 5.881-43.937-13.122-55.692-19.001-11.755-43.935-5.881-55.691 13.122z" style="fill:url(#o)"/><path d="M643.349 1250.058h585.95v18.673h-585.95z" style="fill:#7d97f4" transform="rotate(-58.258 936.34 1259.436)"/><linearGradient id="p" x1="-2068.298" x2="-1737.059" y1="-137.995" y2="-137.995" gradientTransform="rotate(-58.26 1040.002 -1579.11)" gradientUnits="userSpaceOnUse"><stop offset="0" style="stop-color:#4f52ff"/><stop offset="1" style="stop-color:#4042e2"/></linearGradient><circle cx="717.595" cy="1681.706" r="165.63" style="fill:url(#p)"/><circle cx="717.595" cy="1681.707" r="126.519" style="fill:#7d97f4" transform="rotate(-45.001 717.579 1681.723)"/><linearGradient id="q" x1="2941.981" x2="3526.081" y1="242.919" y2="242.919" gradientTransform="rotate(31.311 1045.655 -2530.868)" gradientUnits="userSpaceOnUse"><stop offset="0" style="stop-color:#09005d"/><stop offset="1" style="stop-color:#1a0f91"/></linearGradient><path d="m1736.481 1106.584-25.841 42.482c-10.423 17.135-29.274 24.832-42.417 17.319l-485.07-274.13 72.065-118.471c5.844-9.608 16.513-13.698 23.62-9.056l453.518 296.226c12.714 8.216 14.547 28.495 4.125 45.63z" style="fill:url(#q)"/><linearGradient id="r" x1="3163.662" x2="2739.149" y1="59.108" y2="462.157" gradientTransform="rotate(31.311 1045.655 -2530.868)" gradientUnits="userSpaceOnUse"><stop offset="0" style="stop-color:#4f52ff"/><stop offset="1" style="stop-color:#4042e2"/></linearGradient><circle cx="1248.376" cy="839.06" r="130.013" style="fill:url(#r)"/><circle cx="1248.376" cy="839.06" r="99.313" style="fill:#7d97f4" transform="rotate(-85.135 1248.343 839.063)"/><linearGradient id="s" x1="4060.66" x2="3709.831" y1="144.722" y2="140.495" gradientTransform="rotate(31.311 1045.655 -2530.868)" gradientUnits="userSpaceOnUse"><stop offset="0" style="stop-color:#4f52ff"/><stop offset="1" style="stop-color:#4042e2"/></linearGradient><path d="m1818.499 1118.676 108.626-78.421 150.512 183.06-22.819 26.944-136.082-145.981-84.065 61.533z" style="fill:url(#s)"/><g style="opacity:.3"><linearGradient id="t" x1="1948.608" x2="1961.957" y1="8782.757" y2="7808.284" gradientTransform="scale(-1) rotate(-76.301 2227.111 -227.693)" gradientUnits="userSpaceOnUse"><stop offset="0" style="stop-color:#ff928e"/><stop offset="1" style="stop-color:#fe7062"/></linearGradient><path d="M2349.812 825.75c1.82-7.465 9.024-12.502 16.804-11.445a610.203 610.203 0 0 1 51.027 9.153c8.195 1.833 13.353 9.96 11.521 18.152l-.07.288c-1.956 8.025-9.988 13.041-18.084 11.229a579.957 579.957 0 0 0-48.474-8.697c-8.318-1.126-14.152-8.785-13.023-17.107.07-.534.174-1.059.299-1.573zm128.428 32.316c.141-.577.318-1.154.53-1.726 2.932-7.866 11.688-11.868 19.554-8.936a613.218 613.218 0 0 1 47.731 20.14c7.59 3.59 10.823 12.613 7.246 20.243-3.592 7.589-12.657 10.828-20.241 7.241a581.826 581.826 0 0 0-45.361-19.134c-7.293-2.72-11.258-10.447-9.459-17.828zm118.118 59.789a15.205 15.205 0 0 1 2.068-4.746c4.613-7.013 14.037-8.967 21.053-4.357a604.418 604.418 0 0 1 42.059 30.297c6.592 5.201 7.717 14.755 2.534 21.349-5.195 6.593-14.756 7.728-21.349 2.533a574.425 574.425 0 0 0-39.938-28.771c-5.52-3.625-7.906-10.235-6.427-16.305zm101.805 84.719a15.133 15.133 0 0 1 4.251-7.361c6.061-5.808 15.685-5.6 21.493.46a611.24 611.24 0 0 1 34.233 38.938c5.258 6.535 4.234 16.101-2.296 21.376-6.534 5.268-16.105 4.24-21.376-2.296a576.92 576.92 0 0 0-32.52-36.985c-3.726-3.895-4.974-9.254-3.785-14.132zm80.355 105.292a15.15 15.15 0 0 1 6.951-9.436c7.201-4.32 16.539-1.982 20.853 5.218a615.14 615.14 0 0 1 24.747 45.531c3.7 7.536.587 16.645-6.957 20.34-7.538 3.693-16.643.578-20.343-6.961a584.398 584.398 0 0 0-23.518-43.275 15.15 15.15 0 0 1-1.733-11.417zm55.057 120.436c1.203-4.936 4.848-9.157 10.03-10.857 7.979-2.618 16.565 1.725 19.186 9.701a612.47 612.47 0 0 1 14.06 49.88c1.931 8.174-3.126 16.36-11.298 18.292-8.165 1.933-16.357-3.126-18.29-11.295a582.573 582.573 0 0 0-13.358-47.393 15.108 15.108 0 0 1-.33-8.328zm-96.762 549.755a15.137 15.137 0 0 1 2.814-5.777 573.347 573.347 0 0 0 28.711-40.004c4.597-7.024 14.018-8.993 21.039-4.397 7.027 4.594 8.996 14.016 4.399 21.043a604.788 604.788 0 0 1-30.232 42.133c-5.186 6.605-14.743 7.753-21.345 2.568-4.844-3.8-6.754-9.952-5.386-15.566zm123.743-420.196c1.493-6.127 6.731-10.916 13.361-11.534 8.362-.779 15.768 5.366 16.548 13.724a605.061 605.061 0 0 1 2.591 51.751c.02 8.393-6.695 15.252-15.094 15.31-8.394.059-15.248-6.7-15.309-15.097a573.903 573.903 0 0 0-2.457-49.142 15.236 15.236 0 0 1 .36-5.012zm-54.23 307.485a15.25 15.25 0 0 1 1.015-2.885 582.77 582.77 0 0 0 19.061-45.424c2.922-7.872 11.669-11.888 19.539-8.971 7.869 2.921 11.927 11.672 8.97 19.538a616.4 616.4 0 0 1-20.055 47.798c-3.575 7.597-12.634 10.859-20.227 7.284-6.653-3.127-9.98-10.463-8.303-17.34zm51.594-175.147c1.817-7.453 9.004-12.489 16.775-11.45 8.323 1.112 14.165 8.758 13.06 17.082a608.58 608.58 0 0 1-9.124 51.343c-1.953 8.013-9.966 13.027-18.055 11.235-8.199-1.818-13.371-9.933-11.551-18.131a579.52 579.52 0 0 0 8.59-48.475c.077-.544.177-1.082.305-1.604z" style="fill:url(#t)"/><linearGradient id="u" x1="2446.402" x2="2459.751" y1="8790.001" y2="7815.499" gradientTransform="scale(-1) rotate(-76.301 2227.111 -227.693)" gradientUnits="userSpaceOnUse"><stop offset="0" style="stop-color:#ff928e"/><stop offset="1" style="stop-color:#fe7062"/></linearGradient><path d="M2663.569 1855.706a15.117 15.117 0 0 1 4.694-7.773 587.66 587.66 0 0 0 17.426-16.05c6.056-5.812 15.682-5.614 21.491.444 5.815 6.056 5.624 15.688-.448 21.493a612.445 612.445 0 0 1-18.327 16.887c-6.288 5.56-15.899 4.971-21.456-1.316-3.431-3.876-4.519-9.012-3.38-13.685z" style="fill:url(#u)"/></g><g style="opacity:.3"><linearGradient id="v" x1="2706.564" x2="2719.913" y1="8793.461" y2="7818.964" gradientTransform="scale(-1) rotate(-76.301 2227.111 -227.693)" gradientUnits="userSpaceOnUse"><stop offset="0" style="stop-color:#ff928e"/><stop offset="1" style="stop-color:#fe7062"/></linearGradient><path d="M2224.062 2002.752c1.738-7.128 8.436-12.142 15.983-11.536 7.811.63 15.768 1.106 23.645 1.412 8.391.328 14.926 7.394 14.599 15.782-.33 8.424-7.397 14.925-15.783 14.598a612.764 612.764 0 0 1-24.898-1.486c-8.368-.674-14.606-8.003-13.935-16.372a15.3 15.3 0 0 1 .389-2.398z" style="fill:url(#v)"/><linearGradient id="w" x1="2289.952" x2="2303.3" y1="8787.424" y2="7812.948" gradientTransform="scale(-1) rotate(-76.301 2227.111 -227.693)" gradientUnits="userSpaceOnUse"><stop offset="0" style="stop-color:#ff928e"/><stop offset="1" style="stop-color:#fe7062"/></linearGradient><path d="M1695.719 1272.933a625.17 625.17 0 0 1 5.334-20.378c2.264-8.084 10.651-12.806 18.736-10.544 8.085 2.261 12.825 10.696 10.548 18.734-4.382 15.669-8.12 31.479-11.139 47.175-1.602 8.249-9.553 13.642-17.797 12.057-8.249-1.587-13.647-9.558-12.059-17.801a611.271 611.271 0 0 1 6.377-29.243zm32.187-96.009c.201-.825.475-1.647.825-2.454a609.308 609.308 0 0 1 22.204-45.93c3.967-7.397 13.182-10.178 20.577-6.212 7.399 3.97 10.196 13.206 6.21 20.583a581.741 581.741 0 0 0-21.094 43.634c-3.332 7.704-12.282 11.247-19.983 7.914-6.901-2.987-10.461-10.471-8.739-17.535zm-48.193 204.666c1.697-6.963 8.152-11.957 15.568-11.564 8.387.446 14.82 7.604 14.377 15.988a571.97 571.97 0 0 0-.517 48.429c.252 8.392-6.324 15.41-14.713 15.675-8.394.264-15.412-6.324-15.677-14.716a605.568 605.568 0 0 1 .545-51.002c.053-.965.197-1.905.417-2.81zm112.82-317.868a15.202 15.202 0 0 1 2.489-5.346 606.567 606.567 0 0 1 31.764-39.92c5.5-6.342 15.097-7.024 21.439-1.524 6.347 5.502 7.034 15.097 1.526 21.443a575.753 575.753 0 0 0-30.162 37.909c-4.942 6.786-14.455 8.275-21.237 3.33-5.127-3.738-7.235-10.086-5.819-15.892zm-105.277 447.89c1.392-5.711 6.053-10.339 12.219-11.39 8.277-1.411 16.13 4.155 17.542 12.432a577.086 577.086 0 0 0 10.141 47.354c2.102 8.128-2.781 16.423-10.915 18.523-8.127 2.099-16.416-2.785-18.517-10.912a607.12 607.12 0 0 1-10.68-49.857 15.185 15.185 0 0 1 .21-6.15zm35.892 125.222a15.184 15.184 0 0 1 9.001-10.475c7.768-3.185 16.648.529 19.833 8.297a585.527 585.527 0 0 0 20.237 44.025c3.832 7.47.873 16.626-6.612 20.455-7.477 3.821-16.632.859-20.457-6.616a614.257 614.257 0 0 1-21.294-46.329 15.127 15.127 0 0 1-.708-9.357zm62.337 114.418a15.137 15.137 0 0 1 6.078-8.865c6.885-4.801 16.361-3.108 21.161 3.78a581.443 581.443 0 0 0 29.34 38.57c5.356 6.461 4.47 16.039-2.003 21.404-6.464 5.356-16.044 4.462-21.405-2.003a613.756 613.756 0 0 1-30.877-40.589 15.174 15.174 0 0 1-2.294-12.297zm85.801 98.093a15.133 15.133 0 0 1 3.56-6.656c5.671-6.19 15.283-6.609 21.473-.938a574.822 574.822 0 0 0 37.073 31.195c6.646 5.129 7.874 14.684 2.754 21.32-5.129 6.649-14.676 7.879-21.322 2.75a605.05 605.05 0 0 1-39.041-32.849c-4.236-3.883-5.768-9.61-4.497-14.822zm105.282 76.894c.33-1.353.855-2.682 1.581-3.951 4.166-7.287 13.455-9.817 20.739-5.649a576.963 576.963 0 0 0 43.019 22.246c7.614 3.54 10.9 12.601 7.375 20.192-3.537 7.614-12.581 10.916-20.195 7.377a606.24 606.24 0 0 1-45.287-23.422c-6.018-3.443-8.795-10.378-7.232-16.793zm119.523 51.85c.074-.303.16-.606.252-.907 2.48-8.019 10.995-12.51 19.013-10.028a587.74 587.74 0 0 0 34.375 9.498 599.305 599.305 0 0 0 12.483 2.897c8.2 1.812 13.379 9.927 11.564 18.123-1.672 8.336-9.923 13.375-18.117 11.566a621.833 621.833 0 0 1-13.131-3.048 617.234 617.234 0 0 1-36.16-9.994c-7.718-2.386-12.167-10.362-10.279-18.107z" style="fill:url(#w)"/><linearGradient id="x" x1="1782.34" x2="1795.689" y1="8780.868" y2="7806.367" gradientTransform="scale(-1) rotate(-76.301 2227.111 -227.693)" gradientUnits="userSpaceOnUse"><stop offset="0" style="stop-color:#ff928e"/><stop offset="1" style="stop-color:#fe7062"/></linearGradient><path d="M1880.781 967.298a15.152 15.152 0 0 1 4.75-7.827 606.149 606.149 0 0 1 19.094-16.027c6.54-5.266 16.11-4.233 21.373 2.307 5.263 6.542 4.24 16.105-2.307 21.373a581.88 581.88 0 0 0-18.135 15.222c-6.311 5.53-15.916 4.894-21.448-1.423a15.19 15.19 0 0 1-3.327-13.625z" style="fill:url(#x)"/></g><linearGradient id="y" x1="2126.052" x2="2139.401" y1="8785.475" y2="7810.979" gradientTransform="scale(-1) rotate(-76.301 2227.111 -227.693)" gradientUnits="userSpaceOnUse"><stop offset="0" style="stop-color:#ff928e"/><stop offset="1" style="stop-color:#fe7062"/></linearGradient><path d="M2047.224 1028.985a7.105 7.105 0 0 0-3.999 7.215l9.775 85.918c-31.516 25.248-59.234 55.703-81.666 90.688l-86.413-.691a7.103 7.103 0 0 0-6.755 4.735l-34.597 97.782a7.11 7.11 0 0 0 2.273 7.929l67.621 53.807c-4.56 41.308-2.163 82.417 6.464 121.868l-61.633 60.654a7.103 7.103 0 0 0-1.428 8.123l44.68 93.606a7.103 7.103 0 0 0 7.215 3.999l85.917-9.775c25.248 31.517 55.704 59.234 90.688 81.666l-.691 86.415a7.102 7.102 0 0 0 4.734 6.754l97.784 34.596a7.101 7.101 0 0 0 7.928-2.275l53.807-67.621c41.308 4.561 82.417 2.165 121.867-6.463l60.655 61.634a7.106 7.106 0 0 0 8.123 1.427l93.605-44.68a7.101 7.101 0 0 0 3.999-7.214l-9.776-85.918c31.518-25.247 59.235-55.703 81.666-90.688l86.415.692a7.106 7.106 0 0 0 6.755-4.734l34.595-97.784a7.103 7.103 0 0 0-2.274-7.929l-67.621-53.807c4.562-41.307 2.164-82.418-6.463-121.868l61.632-60.653a7.102 7.102 0 0 0 1.429-8.124l-44.68-93.605a7.105 7.105 0 0 0-7.214-3.999l-85.917 9.775c-25.248-31.517-55.705-59.234-90.688-81.666l.691-86.415a7.1 7.1 0 0 0-4.736-6.753l-97.781-34.596a7.107 7.107 0 0 0-7.93 2.273l-53.807 67.621c-41.307-4.56-82.416-2.163-121.867 6.463l-60.654-61.632a7.105 7.105 0 0 0-8.125-1.429l-93.603 44.679z" style="fill:url(#y)"/><path d="M2188.918 1392.879c12.036-49.377 58.864-83.895 110.941-79.05 57.246 5.328 99.477 56.229 94.153 113.471-2.574 27.734-15.804 52.797-37.233 70.576-21.43 17.784-48.505 26.158-76.235 23.575-57.246-5.328-99.477-56.229-94.154-113.47a105.155 105.155 0 0 1 2.528-15.102zm178.921 43.861a81.193 81.193 0 0 0 1.958-11.694c4.085-43.886-28.304-82.915-72.187-87-43.889-4.083-82.933 28.287-87.003 72.189-4.085 43.886 28.303 82.915 72.186 87 21.264 1.978 42.02-4.441 58.454-18.076 13.355-11.084 22.555-25.859 26.592-42.419z" style="opacity:.7;fill:#fff"/><path d="M2042.111 1359.286a261.286 261.286 0 0 1 7.523-25.247 257.96 257.96 0 0 1 20.834-44.77l.282-.481c.27-.454.539-.907.815-1.36.527-.883 1.065-1.76 1.602-2.635a6.08 6.08 0 0 1 6.61-2.722c.605.148 1.2.393 1.758.737 2.859 1.761 3.736 5.507 1.983 8.365-9.068 14.71-16.608 30.496-22.415 46.92-28.876 81.573-11.624 168.457 38.072 232.06 27.637 35.38 65.317 63.555 110.69 79.606a247.383 247.383 0 0 0 24.085 7.179c54.437 13.264 111.307 7.451 162.553-17.013 58.867-28.097 103.269-77.437 125.024-138.927 44.918-127-21.828-266.757-148.762-311.665a244.922 244.922 0 0 0-23.778-7.083c-34.726-8.459-70.916-9.226-105.977-2.117a6.078 6.078 0 0 1-7.166-4.751c-.657-3.295 1.451-6.504 4.754-7.168 36.809-7.462 74.807-6.661 111.263 2.22a257.826 257.826 0 0 1 24.958 7.432c133.271 47.15 203.308 193.965 156.176 327.188-22.839 64.556-69.453 116.35-131.252 145.846-53.799 25.683-113.501 31.784-170.651 17.862a262.033 262.033 0 0 1-25.281-7.535c-64.559-22.843-116.356-69.454-145.853-131.251-25.686-53.811-31.78-113.53-17.847-170.69z" style="opacity:.7;fill:#fff"/><linearGradient id="z" x1="2414.289" x2="2086.127" y1="1567.02" y2="1359.408" gradientUnits="userSpaceOnUse"><stop offset="0" style="stop-color:#4f52ff"/><stop offset="1" style="stop-color:#4042e2"/></linearGradient><path d="m1796.537 1074.556-47.33-28.541a2.184 2.184 0 0 0-2.999.743l-85.865 142.389a2.184 2.184 0 0 0 .743 2.999l47.329 28.541a2.184 2.184 0 0 0 2.999-.743l85.865-142.389a2.184 2.184 0 0 0-.742-2.999z" style="fill:url(#z)"/><linearGradient id="A" x1="4100.008" x2="3749.183" y1="360.656" y2="356.429" gradientTransform="rotate(31.311 1045.655 -2530.868)" gradientUnits="userSpaceOnUse"><stop offset="0" style="stop-color:#4f52ff"/><stop offset="1" style="stop-color:#4042e2"/></linearGradient><path d="m1790.178 1248.262-16.735 132.926 232.811 44.312 12.704-32.944-193.354-49.427 13.692-103.274z" style="fill:url(#A)"/><linearGradient id="B" x1="3613.819" x2="3709.747" y1="242.935" y2="242.935" gradientTransform="rotate(31.311 1045.655 -2530.868)" gradientUnits="userSpaceOnUse"><stop offset="0" style="stop-color:#09005d"/><stop offset="1" style="stop-color:#1a0f91"/></linearGradient><path d="M1755.106 1244.801c22.345 18.306 53.535 24.609 82.582 13.857 43.568-16.128 65.812-64.522 49.683-108.089-8.162-22.049-24.588-38.637-44.471-47.553l-87.794 141.785z" style="fill:url(#B)"/><linearGradient id="C" x1="3658.08" x2="3500.288" y1="167.78" y2="353.254" gradientTransform="rotate(31.311 1045.655 -2530.868)" gradientUnits="userSpaceOnUse"><stop offset="0" style="stop-color:#4f52ff"/><stop offset="1" style="stop-color:#4042e2"/></linearGradient><path d="m1707.309 1215.292-13.741 22.787c-2.478 4.11-.921 9.593 3.477 12.245l42.25 25.478c4.399 2.653 9.974 1.471 12.452-2.639l109.563-181.687c2.479-4.11.922-9.592-3.477-12.245l-42.25-25.478c-4.399-2.653-9.974-1.471-12.452 2.639l-12.591 20.879-83.231 138.021z" style="fill:url(#C)"/><g style="opacity:.3"><linearGradient id="D" x1="20921.643" x2="20227.525" y1="5675.107" y2="5267.98" gradientTransform="rotate(89.324 -147.031 -1718.876)" gradientUnits="userSpaceOnUse"><stop offset="0" style="stop-color:#ff928e"/><stop offset="1" style="stop-color:#fe7062"/></linearGradient><path d="M2421.085 1863.457c-.052-4.373 3.209-8.17 7.648-8.687a347.457 347.457 0 0 1 29.432-2.166 8.652 8.652 0 0 1 8.918 8.381l.002.169a8.652 8.652 0 0 1-8.385 8.748c-9.33.288-18.736.98-27.959 2.057a8.653 8.653 0 0 1-9.656-8.502zm75.386-.334a8.656 8.656 0 0 1 9.568-8.719 349.006 349.006 0 0 1 29.167 4.359c4.693.906 7.751 5.425 6.857 10.138a8.655 8.655 0 0 1-10.138 6.854 331.079 331.079 0 0 0-27.718-4.139c-4.406-.469-7.684-4.169-7.736-8.493zm73.586 16.272a8.657 8.657 0 0 1 11.463-8.288 344.081 344.081 0 0 1 27.475 10.761c4.37 1.936 6.341 7.046 4.415 11.414a8.656 8.656 0 0 1-11.414 4.415 327.052 327.052 0 0 0-26.09-10.22 8.655 8.655 0 0 1-5.849-8.082zm68.113 32.326a8.612 8.612 0 0 1 1.304-4.66c2.521-4.059 7.858-5.305 11.917-2.785a348.143 348.143 0 0 1 24.381 16.632 8.664 8.664 0 0 1 1.756 12.112c-2.859 3.828-8.281 4.614-12.112 1.756a328.645 328.645 0 0 0-23.16-15.798 8.65 8.65 0 0 1-4.086-7.257zm59.193 46.702a8.622 8.622 0 0 1 2.499-6.186 8.651 8.651 0 0 1 12.237-.071 349.865 349.865 0 0 1 20.082 21.609 8.648 8.648 0 0 1-.961 12.2 8.656 8.656 0 0 1-12.201-.963 332.504 332.504 0 0 0-19.086-20.538 8.628 8.628 0 0 1-2.57-6.051zm47.385 58.629a8.647 8.647 0 0 1 3.996-7.405 8.656 8.656 0 0 1 11.951 2.637 348.35 348.35 0 0 1 14.804 25.518 8.654 8.654 0 0 1-3.645 11.684c-4.229 2.22-9.462.589-11.682-3.643a331.396 331.396 0 0 0-14.065-24.246 8.593 8.593 0 0 1-1.359-4.545zm24.354 316.827a8.615 8.615 0 0 1 .735-3.583 326.378 326.378 0 0 0 10.177-26.117c1.542-4.523 6.459-6.941 10.98-5.398a8.651 8.651 0 0 1 5.4 10.981 344.185 344.185 0 0 1-10.715 27.507 8.653 8.653 0 0 1-11.407 4.433 8.655 8.655 0 0 1-5.17-7.823zm8.838-249.199a8.658 8.658 0 0 1 5.737-8.249 8.653 8.653 0 0 1 11.065 5.229 344.59 344.59 0 0 1 8.744 28.17c1.197 4.625-1.536 9.357-6.159 10.576-4.62 1.219-9.355-1.539-10.576-6.161a326.565 326.565 0 0 0-8.302-26.751 8.69 8.69 0 0 1-.509-2.814zm13.561 177.221a8.69 8.69 0 0 1 .152-1.734 331.911 331.911 0 0 0 4.09-27.742c.498-4.754 4.754-8.205 9.506-7.708 4.752.498 8.227 4.75 7.708 9.506a351.282 351.282 0 0 1-4.302 29.192c-.898 4.695-5.431 7.774-10.124 6.876-4.111-.786-6.982-4.361-7.03-8.39zm3.692-103.874c-.052-4.367 3.199-8.159 7.632-8.685a8.658 8.658 0 0 1 9.616 7.573 346.314 346.314 0 0 1 2.221 29.418c.004.06.005.123.006.184a8.654 8.654 0 0 1-17.3.383 329.579 329.579 0 0 0-2.116-27.945 9.418 9.418 0 0 1-.059-.928z" style="fill:url(#D)"/><linearGradient id="E" x1="21058.389" x2="20364.248" y1="5443.533" y2="5036.392" gradientTransform="rotate(89.324 -147.031 -1718.876)" gradientUnits="userSpaceOnUse"><stop offset="0" style="stop-color:#ff928e"/><stop offset="1" style="stop-color:#fe7062"/></linearGradient><path d="M2739.69 2387.05a8.609 8.609 0 0 1 1.49-4.95 334.336 334.336 0 0 0 7.34-11.313c2.518-4.061 7.854-5.313 11.914-2.793 4.063 2.518 5.319 7.856 2.791 11.915a349.648 349.648 0 0 1-7.719 11.903c-2.681 3.955-8.064 4.989-12.017 2.307a8.64 8.64 0 0 1-3.799-7.069z" style="fill:url(#E)"/></g><g style="opacity:.3"><linearGradient id="F" x1="20999.643" x2="20305.488" y1="5544.229" y2="5137.081" gradientTransform="rotate(89.324 -147.031 -1718.876)" gradientUnits="userSpaceOnUse"><stop offset="0" style="stop-color:#ff928e"/><stop offset="1" style="stop-color:#fe7062"/></linearGradient><path d="M2518.12 2530.262a8.658 8.658 0 0 1 7.183-8.621 325.382 325.382 0 0 0 13.238-2.564 8.655 8.655 0 0 1 10.281 6.639 8.643 8.643 0 0 1-6.639 10.281 347.921 347.921 0 0 1-13.939 2.7 8.655 8.655 0 0 1-10.124-8.435z" style="fill:url(#F)"/><linearGradient id="G" x1="20847.211" x2="20153.096" y1="5802.052" y2="5394.926" gradientTransform="rotate(89.324 -147.031 -1718.876)" gradientUnits="userSpaceOnUse"><stop offset="0" style="stop-color:#ff928e"/><stop offset="1" style="stop-color:#fe7062"/></linearGradient><path d="M2123.613 2202.506c-.047-3.981-.027-7.979.061-11.991.106-4.778 4.063-8.567 8.841-8.463s8.584 4.085 8.465 8.84a334.84 334.84 0 0 0 .526 27.588c.283 4.775-3.339 8.873-8.109 9.164a8.653 8.653 0 0 1-9.166-8.111 346.803 346.803 0 0 1-.618-17.027zm4.177-57.492a8.647 8.647 0 0 1 .108-1.47 346.862 346.862 0 0 1 5.751-28.465 8.653 8.653 0 0 1 10.469-6.334c4.641 1.143 7.489 5.841 6.334 10.472a331.15 331.15 0 0 0-5.464 27.042 8.652 8.652 0 0 1-17.198-1.245zm2.356 119.671c-.048-4.08 2.805-7.746 6.95-8.577a8.655 8.655 0 0 1 10.188 6.784 325.529 325.529 0 0 0 6.561 26.778c1.325 4.592-1.309 9.391-5.897 10.724a8.656 8.656 0 0 1-10.725-5.899 345.028 345.028 0 0 1-6.909-28.201 8.881 8.881 0 0 1-.168-1.609zm17.279-191.229a8.657 8.657 0 0 1 .617-3.3 344.948 344.948 0 0 1 11.873-26.503 8.652 8.652 0 0 1 11.607-3.871 8.646 8.646 0 0 1 3.873 11.608 327.83 327.83 0 0 0-11.273 25.168c-1.766 4.44-6.801 6.606-11.24 4.838a8.657 8.657 0 0 1-5.457-7.94zm5.26 261.86a8.654 8.654 0 0 1 5.128-8.008 8.654 8.654 0 0 1 11.43 4.376 328.315 328.315 0 0 0 12.286 24.679 8.652 8.652 0 0 1-3.4 11.757 8.651 8.651 0 0 1-11.753-3.4 345.154 345.154 0 0 1-12.937-25.983 8.645 8.645 0 0 1-.754-3.421zm37.493 63.977a8.653 8.653 0 0 1 15.592-5.277 333.194 333.194 0 0 0 17.383 21.416c3.169 3.578 2.832 9.045-.755 12.214a8.655 8.655 0 0 1-12.216-.757 349.669 349.669 0 0 1-18.291-22.537 8.607 8.607 0 0 1-1.713-5.059zm50.548 54.282a8.615 8.615 0 0 1 2.099-5.748 8.653 8.653 0 0 1 12.203-.907 330.968 330.968 0 0 0 21.631 17.121 8.65 8.65 0 0 1 1.921 12.086 8.653 8.653 0 0 1-12.086 1.921 349.656 349.656 0 0 1-22.764-18.017 8.634 8.634 0 0 1-3.004-6.456zm61.179 41.962a8.616 8.616 0 0 1 1.022-4.174 8.65 8.65 0 0 1 11.708-3.553 326.993 326.993 0 0 0 24.853 11.961 8.653 8.653 0 1 1-6.837 15.898 344.76 344.76 0 0 1-26.172-12.595 8.65 8.65 0 0 1-4.574-7.537zm68.925 27.519c-.01-.792.093-1.6.313-2.402a8.652 8.652 0 0 1 10.637-6.047 328.219 328.219 0 0 0 26.866 6.186c4.699.875 7.792 5.408 6.921 10.092a8.652 8.652 0 0 1-10.093 6.922 344.821 344.821 0 0 1-28.283-6.514 8.66 8.66 0 0 1-6.361-8.237zm73.237 11.696a8.652 8.652 0 0 1 9.078-8.753 334.463 334.463 0 0 0 27.591.211c4.778-.16 8.781 3.583 8.939 8.359.257 4.833-3.581 8.778-8.355 8.939a352.122 352.122 0 0 1-29.024-.224 8.654 8.654 0 0 1-8.229-8.532z" style="fill:url(#G)"/><linearGradient id="H" x1="20718.584" x2="20024.441" y1="6022.879" y2="5615.736" gradientTransform="rotate(89.324 -147.031 -1718.876)" gradientUnits="userSpaceOnUse"><stop offset="0" style="stop-color:#ff928e"/><stop offset="1" style="stop-color:#fe7062"/></linearGradient><path d="M2182.458 2007.811a8.613 8.613 0 0 1 1.513-4.987 342.67 342.67 0 0 1 8.264-11.537 8.653 8.653 0 0 1 12.112-1.749c3.827 2.864 4.615 8.282 1.749 12.112a332.12 332.12 0 0 0-7.848 10.957c-2.698 3.942-8.084 4.948-12.028 2.247a8.642 8.642 0 0 1-3.762-7.043z" style="fill:url(#H)"/></g><linearGradient id="I" x1="20889.506" x2="20195.357" y1="5731.736" y2="5324.59" gradientTransform="rotate(89.324 -147.031 -1718.876)" gradientUnits="userSpaceOnUse"><stop offset="0" style="stop-color:#ff928e"/><stop offset="1" style="stop-color:#fe7062"/></linearGradient><path d="M2282.958 2018.299a4.045 4.045 0 0 0-1.185 4.544l17.535 45.995c-13.81 18.378-24.79 39.089-32.214 61.552l-47.748 11.834a4.044 4.044 0 0 0-3.056 3.566l-5.255 58.81a4.047 4.047 0 0 0 2.375 4.051l44.894 20.112a214.417 214.417 0 0 0 20.791 66.287l-25.412 42.159a4.042 4.042 0 0 0 .361 4.681l37.869 45.301a4.044 4.044 0 0 0 4.544 1.185l45.995-17.535c18.377 13.81 39.09 24.789 61.552 32.213l11.834 47.749a4.044 4.044 0 0 0 3.565 3.055l58.811 5.255a4.042 4.042 0 0 0 4.05-2.375l20.112-44.894a214.364 214.364 0 0 0 66.287-20.791l42.159 25.413a4.045 4.045 0 0 0 4.681-.361l45.301-37.87a4.04 4.04 0 0 0 1.185-4.543l-17.536-45.995c13.811-18.377 24.79-39.089 32.214-61.552l47.749-11.834a4.047 4.047 0 0 0 3.056-3.565l5.254-58.811a4.044 4.044 0 0 0-2.375-4.051l-44.894-20.112c-3.323-23.423-10.457-45.753-20.791-66.288l25.412-42.158a4.044 4.044 0 0 0-.36-4.682l-37.87-45.301a4.042 4.042 0 0 0-4.543-1.185l-45.995 17.535a214.403 214.403 0 0 0-61.552-32.213l-11.834-47.749a4.044 4.044 0 0 0-3.566-3.055l-58.81-5.255a4.045 4.045 0 0 0-4.051 2.375l-20.112 44.894c-23.422 3.324-45.752 10.457-66.287 20.79l-42.159-25.411a4.045 4.045 0 0 0-4.682.36l-45.299 37.87z" style="fill:url(#I)"/><path d="M2412.531 2198.93c-.343-28.929 20.6-54.583 50.002-59.273 32.32-5.154 62.803 16.944 67.958 49.261 2.501 15.657-1.251 31.348-10.555 44.18-9.303 12.836-23.049 21.281-38.705 23.777-32.32 5.154-62.803-16.945-67.958-49.261a59.71 59.71 0 0 1-.742-8.684zm104.862-1.106a46.117 46.117 0 0 0-.573-6.725c-3.951-24.778-27.328-41.721-52.104-37.77-24.779 3.953-41.733 27.321-37.771 52.105 3.951 24.777 27.328 41.721 52.104 37.77 12.005-1.915 22.543-8.388 29.678-18.23 5.796-7.999 8.781-17.447 8.666-27.15z" style="opacity:.7;fill:#fff"/><path d="M2326.83 2201.159c-.059-4.969.132-9.969.58-14.986a147.164 147.164 0 0 1 5.16-27.632l.087-.305c.084-.288.169-.576.257-.865.166-.561.339-1.121.511-1.679a3.462 3.462 0 0 1 3.26-2.436 3.464 3.464 0 0 1 3.349 4.49 139.727 139.727 0 0 0-5.728 29.042c-4.392 49.063 17.403 94.534 53.797 122.582 20.241 15.603 45.002 25.813 72.291 28.25 4.785.428 9.557.612 14.296.554 31.893-.381 62.431-11.626 87.231-32.359 28.489-23.814 45.999-57.299 49.303-94.281 6.817-76.381-49.744-144.011-126.088-150.832a139.139 139.139 0 0 0-14.113-.544c-20.344.244-40.409 4.937-58.738 13.813a3.458 3.458 0 0 1-4.622-1.607 3.461 3.461 0 0 1 1.608-4.625c19.243-9.318 40.309-14.247 61.667-14.504 4.928-.06 9.872.13 14.813.57 80.154 7.161 139.528 78.218 132.37 158.343-3.469 38.827-21.851 73.976-51.759 98.977-26.035 21.767-58.094 33.571-91.576 33.972-4.975.059-9.984-.134-15.006-.581-38.828-3.47-73.979-21.851-98.98-51.758-21.772-26.041-33.574-58.111-33.97-91.599z" style="opacity:.7;fill:#fff"/><linearGradient id="J" x1="862.258" x2="570.016" y1="2946.771" y2="3310.348" gradientTransform="scale(-1 1) rotate(43.472 -9.86 -1373.01)" gradientUnits="userSpaceOnUse"><stop offset="0" style="stop-color:#febbba"/><stop offset="1" style="stop-color:#ff928e"/></linearGradient><path d="m2567.592 2434.537-2.678-23.128c54.188-8.577 92.387-41.005 108.571-50.323 16.798 21.735 28.305 41.437 40.646 67.257-67.224 29.422-146.539 6.194-146.539 6.194z" style="fill:url(#J)"/><linearGradient id="K" x1="-3358.613" x2="-3268.384" y1="3175.259" y2="3175.259" gradientTransform="matrix(-1 0 0 1 -146.321 0)" gradientUnits="userSpaceOnUse"><stop offset="0" style="stop-color:#09005d"/><stop offset="1" style="stop-color:#1a0f91"/></linearGradient><path d="M3199.731 3143.465s10.026 15.805 12.549 60.053c.235 4.123-3.031 7.635-7.16 7.635h-78.416c-3.155 0-5.407-3.094-4.396-6.082 4.595-13.6 18.489-46.757 49.489-65.705l27.934 4.099z" style="fill:url(#K)"/><linearGradient id="L" x1="-3349.46" x2="-3312.867" y1="3133.331" y2="3133.331" gradientTransform="matrix(-1 0 0 1 -146.321 0)" gradientUnits="userSpaceOnUse"><stop offset="0" style="stop-color:#febbba"/><stop offset="1" style="stop-color:#ff928e"/></linearGradient><path d="m3203.139 3113.482-4.435 37.189c-.383 3.208-2.897 5.777-6.107 6.147-4.289.494-10.523.842-16.581-.157-5.507-.908-9.47-5.813-9.47-11.395v-35.906l36.593 4.122z" style="fill:url(#L)"/><linearGradient id="M" x1="-3166.731" x2="-3025.159" y1="3173.817" y2="3173.817" gradientTransform="matrix(-1 0 0 1 -146.321 0)" gradientUnits="userSpaceOnUse"><stop offset="0" style="stop-color:#09005d"/><stop offset="1" style="stop-color:#1a0f91"/></linearGradient><path d="M3005.717 3139.365s15.009 23.329 14.688 55.351c-.076 7.543-6.39 13.551-13.934 13.551h-121.788c-5.703 0-8.018-7.328-3.351-10.605 23.045-16.183 68.342-46.415 101.103-58.297h23.282z" style="fill:url(#M)"/><linearGradient id="N" x1="-3164.581" x2="-3128.189" y1="3117.082" y2="3117.082" gradientTransform="matrix(-1 0 0 1 -146.321 0)" gradientUnits="userSpaceOnUse"><stop offset="0" style="stop-color:#febbba"/><stop offset="1" style="stop-color:#ff928e"/></linearGradient><path d="m3018.259 3099.202-9.46 45.93c-1.058 5.137-6.083 8.592-11.203 7.449-3.112-.695-6.784-2.026-10.707-4.479-3.728-2.331-5.618-6.766-4.856-11.097l9.786-55.644 26.44 17.841z" style="fill:url(#N)"/><linearGradient id="O" x1="3635.515" x2="3388.568" y1="2212.968" y2="2506.634" gradientUnits="userSpaceOnUse"><stop offset="0" style="stop-color:#4f52ff"/><stop offset="1" style="stop-color:#4042e2"/></linearGradient><path d="M3185.762 2460.618s32.893 28.999 39.083 63.889c6.19 34.89-17.539 601.967-17.539 601.967s-32.892 5.473-49.848-4.802c0 0-20.11-368.029-35.396-453.071 0 0-80.165 381.229-102.377 450.113 0 0-31.688 3.855-41.907-2.175 0 0 20.999-494.18 47.385-582.038l160.599-73.883z" style="fill:url(#O)"/><linearGradient id="P" x1="3188.299" x2="3123.228" y1="2138.056" y2="2858.838" gradientUnits="userSpaceOnUse"><stop offset="0" style="stop-color:#09005d"/><stop offset="1" style="stop-color:#1a0f91"/></linearGradient><path d="M3123.023 2656.64a3.568 3.568 0 0 0 3.451-2.67l13.619-52.247 29.01-18.609a3.572 3.572 0 0 0-3.856-6.012l-30.186 19.365a3.557 3.557 0 0 0-1.527 2.105l-13.969 53.596a3.566 3.566 0 0 0 3.458 4.472z" style="fill:url(#P)"/><linearGradient id="Q" x1="-2961.207" x2="-3035.244" y1="1771.747" y2="2181.122" gradientTransform="matrix(-1 0 0 1 -146.321 0)" gradientUnits="userSpaceOnUse"><stop offset="0" style="stop-color:#4f52ff"/><stop offset="1" style="stop-color:#4042e2"/></linearGradient><path d="M2861.163 2132.95c138.469-11.496 174.66 17.159 174.66 17.159l-66.543 105.053s-136.059-2.688-233.552-77.83c18.246-19.65 30.917-41.366 39.045-58.275 25.14 10.448 54.09 16.574 86.39 13.893z" style="fill:url(#Q)"/><linearGradient id="R" x1="-2921.094" x2="-2785.844" y1="2051.479" y2="2051.479" gradientTransform="matrix(-1 0 0 1 -146.321 0)" gradientUnits="userSpaceOnUse"><stop offset="0" style="stop-color:#febbba"/><stop offset="1" style="stop-color:#ff928e"/></linearGradient><path d="M2644.322 1929.696c.187-4.437 6.2-5.644 8.085-1.623l17.669 37.704a39.274 39.274 0 0 1 3.135 23.369l-6.198 21.945a37.875 37.875 0 0 0 7.726 30.149c16.235 20.297 50.811 57.365 100.034 77.818-8.127 16.909-20.799 38.625-39.045 58.275-35.772-27.571-66.359-64.884-83.117-115.415a18.531 18.531 0 0 1-13.075-18.419l4.786-113.803z" style="fill:url(#R)"/><linearGradient id="S" x1="2954.692" x2="2887.95" y1="2176.112" y2="2963.671" gradientUnits="userSpaceOnUse"><stop offset="0" style="stop-color:#4f52ff"/><stop offset="1" style="stop-color:#4042e2"/></linearGradient><path d="M2815.583 2193.856c48.747-52.527 141.597-76.258 195.355-86.006 23.552-4.271 46.767 8.835 55.112 31.268 24.192 65.032 89.988 234.222 102.74 263.301 10.463 23.856 21.387 47.155 28.329 61.722 4.147 8.702.524 19.115-8.161 23.301-45.229 21.801-126.613 46.466-159.607 56.088-7.258 2.117-14.484-3.333-14.484-10.892a35.371 35.371 0 0 0-5.042-18.2l-124.957-208.231c-77.884 86.357-125.733 121.033-177.721 126.151-17.154-17.473-45.347-54.437-36.119-71.994 66.579-34.845 144.555-166.508 144.555-166.508z" style="fill:url(#S)"/><linearGradient id="T" x1="909.938" x2="617.707" y1="3000.99" y2="3364.554" gradientTransform="scale(-1 1) rotate(43.472 -9.86 -1373.01)" gradientUnits="userSpaceOnUse"><stop offset="0" style="stop-color:#febbba"/><stop offset="1" style="stop-color:#ff928e"/></linearGradient><path d="m2586.99 2431.496-54.999 56.375-80.427 20.487c3.062-11.887 54.913-42.686 54.913-42.686s38.22-49.052 50.282-60.519c10.017-9.523 22.26 6.259 26.121 11.88a44.547 44.547 0 0 1 1.226 1.87l2.884 12.593z" style="fill:url(#T)"/><linearGradient id="U" x1="-2943.613" x2="-3226.647" y1="1861.241" y2="2381.289" gradientTransform="matrix(-1 0 0 1 -146.321 0)" gradientUnits="userSpaceOnUse"><stop offset="0" style="stop-color:#febbba"/><stop offset="1" style="stop-color:#ff928e"/></linearGradient><path d="m2936.996 2011.383 41.523 101.326s-47.71 33.024-86.095 29.881l-20.723-91.111 65.295-40.096z" style="fill:url(#U)"/><linearGradient id="V" x1="-2776.915" x2="-2902" y1="2183.724" y2="2349.202" gradientTransform="scale(-1 1) rotate(-35.217 -3188.853 2242.816)" gradientUnits="userSpaceOnUse"><stop offset="0" style="stop-color:#febbba"/><stop offset="1" style="stop-color:#ff928e"/></linearGradient><path d="M2866.854 1942.306c-.951 1.348-30.04 106.434-30.04 106.434l60.356 15.334 42.368-95.504s-56.763-48.82-72.684-26.264z" style="fill:url(#V)"/><linearGradient id="W" x1="-2872.444" x2="-2723.027" y1="2223.641" y2="2223.641" gradientTransform="scale(-1 1) rotate(-35.217 -3188.853 2242.816)" gradientUnits="userSpaceOnUse"><stop offset="0" style="stop-color:#09005d"/><stop offset="1" style="stop-color:#1a0f91"/></linearGradient><path d="m2916.81 1983.08-18.366 52.021a7.643 7.643 0 0 1-.958 1.863c-2.492 3.541-11.96 15.096-23.192 4.688-10.191-9.444-19.631-17.911-28.351-19.449a7.7 7.7 0 0 0-8.766 5.53c-2.64 9.549-8.192 31.176-10.149 50.701-.397 3.962 2.339 7.543 6.251 8.286 11.788 2.239 36.782 6.265 57.648 4.793 2.827-.199 5.315-1.896 6.495-4.473 5.75-12.565 23.369-50.69 29.922-60.555 6.15-9.259 21.228-8.999 27.552-8.439a7.568 7.568 0 0 0 5.676-1.856c5.532-4.849 16.06-17.229 1.25-32.05a7.717 7.717 0 0 1 .179-11.109c6.359-5.98 13.162-16.586 2.565-29.74-10.77-13.37-24.988-11.242-33.698-8.063-3.523 1.285-7.365-.204-9.279-3.427-1.09-1.835-2.991-3.224-6.288-2.94-4.443.382-8.178-3.325-8.098-7.783.154-8.565-2.913-19.387-17.771-24.011-26.366-8.206-42.807 17.266-44.436 36.272-1.628 19.007 27.463 26.279 44.569 24.996 13.006-.974 22.663 11.917 26.545 18.152a7.65 7.65 0 0 1 .7 6.593z" style="fill:url(#W)"/><linearGradient id="X" x1="-2960.116" x2="-2859.787" y1="2314.769" y2="2211.834" gradientTransform="scale(-1 1) rotate(-35.217 -3188.853 2242.816)" gradientUnits="userSpaceOnUse"><stop offset="0" style="stop-color:#febbba"/><stop offset="1" style="stop-color:#ff928e"/></linearGradient><path d="M2920.467 2045.361s4.259-32.997 17.986-34.613c13.726-1.617 27.086 9.664 13.44 28.185-16.976 23.037-31.426 6.428-31.426 6.428z" style="fill:url(#X)"/></svg>