<svg xmlns="http://www.w3.org/2000/svg" xml:space="preserve" style="enable-background:new 0 0 3710 3710" viewBox="0 0 3710 3710"><path d="M0 0h3710v3710H0z" style="fill:#fff"/><linearGradient id="a" x1="3397.934" x2="1393.017" y1="3564.317" y2="1400.279" gradientUnits="userSpaceOnUse"><stop offset="0" style="stop-color:#dae3fe"/><stop offset="1" style="stop-color:#e9effd"/></linearGradient><path d="M3118.536 2331.113c-275.49 643.926-1002.696 920.508-1572.473 873.35-155.572-12.876-468.587-38.783-712.992-269.908C363.709 2490.693 435.996 1562.9 885.31 1016.666c57.862-70.344 458.377-541.638 1082.505-535.33 456.952 4.619 777.683 262.745 816.682 294.903 49.267 40.624 157.93 137.158 255.861 290.305 230.105 359.839 250.332 862.179 78.178 1264.569z" style="fill:url(#a)"/><path d="M484.215 468.963c-2.613-11.125 13.036-18.52 22.619-10.749 97.313 78.911 331.126 315.213 272.855 728.168-73.109 518.114 51.88 707.169 207.461 822.489 0 0-213.664-54.231-348.092-246.068-330.05-471.005-108.375-1096.031-154.843-1293.84z" style="fill:#bdd0fb"/><path d="M558.271 630.79c12.174 57.679 23.024 115.534 31.409 173.65 8.737 58.067 15.431 116.337 20.013 174.702 4.322 58.376 7.374 116.813 7.548 175.275.478 58.459-1.953 116.869-4.63 175.508-2.297 58.617-4.997 117.657-.706 177.115 4.219 59.337 16.71 119.192 41.495 175.302 6.196 13.984 12.711 27.925 20.112 41.396 7.116 13.595 14.93 26.921 23.018 40.121 16.331 26.337 34.714 51.782 55.2 75.934 41.121 48.221 90.714 90.997 145.348 127.2 5.75 3.81 13.989 2.874 18.402-2.092 4.333-4.875 3.365-11.823-2.116-15.68l-.039-.027c-13-9.13-25.862-18.377-38.203-28.088-6.262-4.771-12.265-9.772-18.375-14.673-5.887-5.095-12.006-9.994-17.704-15.241-23.199-20.648-44.691-42.678-64.189-65.971-39.22-46.37-70.617-98.04-94.405-151.607-11.547-26.908-20.777-54.503-27.517-82.616-6.715-28.121-10.939-56.73-13.275-85.569-4.678-57.711-2.565-116.167-.756-174.794 1.721-58.643 2.984-117.583 1.437-176.477a2128.056 2128.056 0 0 0-3.88-88.271c-.854-14.702-2.037-29.387-3.19-44.072a2808.008 2808.008 0 0 0-4.273-43.996c-6.317-58.608-14.702-117.022-25.212-175.125-10.833-58.059-23.446-115.851-38.617-173.125-.434-1.638-2.322-2.661-4.217-2.286-1.841.362-3.01 1.919-2.678 3.507z" style="fill:#fff"/><path d="M736.299 1709.113c-11.932 12.66-32.915 9.019-40.092-6.827-39.606-87.436-129.228-344.776 18.788-641.245 124.993-250.355 168.978-397.985 184.302-466.388 3.24-14.464 23.063-16.385 29.046-2.823 66.01 149.623 240.309 658.559-192.044 1117.283z" style="fill:#91b3fa"/><path d="M714.626 1699.887a6.793 6.793 0 0 1-7.996-6.79c.065-4.252 8.34-429.249 166.409-785.201a6.797 6.797 0 0 1 8.965-3.451 6.795 6.795 0 0 1 3.451 8.966c-156.92 353.361-165.179 775.672-165.244 779.895a6.792 6.792 0 0 1-5.585 6.581z" style="fill:#fff"/><linearGradient id="b" x1="2863.126" x2="831.264" y1="1104.503" y2="2651.577" gradientUnits="userSpaceOnUse"><stop offset="0" style="stop-color:#4f52ff"/><stop offset="1" style="stop-color:#4042e2"/></linearGradient><path d="m674.637 1101.958 2296.627-38.81c92.463-1.563 166.678 77.742 161.183 172.238l-79.051 1359.441c-4.327 74.401-64.17 132.683-136.977 133.402l-2207.615 21.832c-54.529.539-99.58-43.426-101.656-99.206L554.33 1232.024c-2.614-70.216 51.673-128.906 120.307-130.066z" style="fill:url(#b)"/><path d="m709.841 1136.59 2236.687-36.924c90.05-1.487 162.328 73.964 156.976 163.867l-76.989 1293.377c-4.213 70.786-62.495 126.235-133.401 126.919l-2149.998 20.772c-53.105.513-96.98-41.316-99.003-94.385l-51.44-1349.882c-2.545-66.801 50.326-122.64 117.168-123.744z" style="fill:#91b3fa"/><path d="m751.67 1181.17 2129.856-35.161c85.749-1.415 154.574 70.432 149.479 156.041l-73.311 1231.602c-4.012 67.405-59.51 120.205-127.03 120.858l-2047.307 19.779c-50.569.488-92.349-39.343-94.274-89.877l-48.984-1285.407c-2.424-63.612 47.922-116.784 111.571-117.835z" style="fill:#bdd0fb"/><linearGradient id="c" x1="1657.436" x2="2247.943" y1="1968.691" y2="-136.404" gradientUnits="userSpaceOnUse"><stop offset="0" style="stop-color:#4f52ff"/><stop offset="1" style="stop-color:#4042e2"/></linearGradient><path d="m2951.694 1098.596-2246.059 37.079c-67.123 1.108-120.215 57.18-117.659 124.263l3.626 95.156h2512.253l5.472-91.944c5.375-90.28-67.206-166.047-157.633-164.554z" style="fill:url(#c)"/><g style="opacity:.85"><path d="M776.263 1181.67c0 11.157-9.044 20.201-20.201 20.201s-20.202-9.044-20.202-20.201 9.045-20.202 20.202-20.202c11.157 0 20.201 9.045 20.201 20.202zM776.263 1240.864c0 11.157-9.044 20.201-20.201 20.201s-20.202-9.044-20.202-20.201 9.045-20.201 20.202-20.201c11.157-.001 20.201 9.043 20.201 20.201zM776.263 1300.057c0 11.157-9.044 20.202-20.201 20.202s-20.202-9.045-20.202-20.202c0-11.157 9.045-20.201 20.202-20.201 11.157 0 20.201 9.044 20.201 20.201z" style="fill:#fff"/></g><g style="opacity:.8"><path d="m1545.769 2540.351-180.437 9.419v-276.296l180.437-6.469zM1838.084 2525.092l-174.15 9.091v-360.782l174.15-5.306zM2120.354 2510.358l-168.186 8.779v-471.25l168.186-3.921zM2393.088 2496.121l-162.523 8.484v-615.728l162.523-2.242zM2326.823 1517.31c-13.227-7.626-30.55-3.907-38.599 8.426a896.28 896.28 0 0 1-26.877 38.691c-173.08 235.261-457.531 374.64-857.587 412.297-13.039 1.223-23.347 2.165-30.973 3.153-4.99.657-12.096 1.6-19.017 4.376-6.966 2.779-13.65 7.486-17.557 15.723-6.778 14.31.8 30.454 16.852 36.103a34.512 34.512 0 0 0 12.237 1.931c4.615-.094 9.18-1.131 13.276-2.873 5.838-.894 18.406-2.117 30.55-3.294 73.241-7.155 242.227-23.584 423.451-91.037 203.111-75.596 361.739-191.814 474.663-345.689a888.163 888.163 0 0 0 28.948-41.753c8.048-12.284 3.858-28.428-9.367-36.054z" style="fill:#fff"/><path d="M2339.254 1677.916c-14.649.01-26.993-10.634-27.959-24.51l-7.996-114.847-117.886 72.678c-13.11 8.067-30.884 4.762-39.69-7.423-8.815-12.206-5.283-28.655 7.879-36.717l199.338-122.105 14.23 205.071c.998 14.404-10.662 26.848-26.073 27.796a30.04 30.04 0 0 1-1.843.057z" style="fill:#fff"/></g><path d="M2533.529 2874.75h26.373v285.207h-26.373z" style="fill:#7d97f4"/><path d="M2662.209 3165.456h-230.988c0-9.481 7.687-17.168 17.168-17.168h196.654c9.481.001 17.166 7.687 17.166 17.168zM2696.491 2864.852c0 15.599-12.762 28.361-28.362 28.361h-233.7c-15.599 0-28.362-12.762-28.362-28.361v-25.644c0-15.599 12.762-28.362 28.362-28.362h233.7c15.599 0 28.362 12.762 28.362 28.362v25.644z" style="fill:#7d97f4"/><linearGradient id="d" x1="2258.904" x2="2446.425" y1="2918.562" y2="2918.562" gradientUnits="userSpaceOnUse"><stop offset="0" style="stop-color:#febbba"/><stop offset="1" style="stop-color:#ff928e"/></linearGradient><path d="M2352.018 2684.583s-39.189 6.075-83.25 35.53c-6.934 4.635-10.738 12.716-9.693 20.991 5.276 41.792 26.969 177.057 98.501 309.172 3.772 6.966 4.856 15.076 3.192 22.821l-12.428 57.835-23.047 21.61h59.363l39.525-106.963-16.901-5.344a31.98 31.98 0 0 1-22.333-29.939l-1.983-114.741c1.692-51.12-31.345-86.391-31.345-86.391l94.805-4.612-94.406-119.969z" style="fill:url(#d)"/><linearGradient id="e" x1="2373.641" x2="2346.059" y1="3040.751" y2="3463.663" gradientUnits="userSpaceOnUse"><stop offset="0" style="stop-color:#4f52ff"/><stop offset="1" style="stop-color:#4042e2"/></linearGradient><path d="M2302.113 3162.976c-5.406 7.075 58.187 16.412 90.316.936 0 0 44.538-77.489 44.538-117.386 0 0-3.535-8.135-29.686-6.291 0 0-14.954 91.751-30.745 102.029-15.79 10.278-44.178 1.04-44.178 1.04s-22.268 9.232-30.245 19.672z" style="fill:url(#e)"/><linearGradient id="f" x1="2038.724" x2="2434.43" y1="2931.372" y2="2931.372" gradientUnits="userSpaceOnUse"><stop offset="0" style="stop-color:#febbba"/><stop offset="1" style="stop-color:#ff928e"/></linearGradient><path d="M2434.43 2810.845c-.505-.873-102.072-12.212-102.072-12.212s3.324 30.882-7.064 73.393c-10.388 42.511-159.512 226.695-159.512 226.695l15.636 49.567c-48.345 16.841-95.9 19.533-142.694 8.584l96.902-58.151s90.689-309.053 146.239-364.187l101.81-35.223 50.755 111.534z" style="fill:url(#f)"/><linearGradient id="g" x1="2282.888" x2="2726.192" y1="2724.946" y2="2724.946" gradientUnits="userSpaceOnUse"><stop offset="0" style="stop-color:#09005d"/><stop offset="1" style="stop-color:#1a0f91"/></linearGradient><path d="M2662.209 2631.019s58.518 87.038 63.32 126.74c4.802 39.703-16.029 55.836-77.429 58.496-61.4 2.66-225.314 2.617-225.314 2.617l-139.898-119.56s101.951-36.379 128.459-46.666c26.506-10.286 250.862-21.627 250.862-21.627z" style="fill:url(#g)"/><linearGradient id="h" x1="2107.484" x2="2079.903" y1="3023.393" y2="3446.306" gradientUnits="userSpaceOnUse"><stop offset="0" style="stop-color:#4f52ff"/><stop offset="1" style="stop-color:#4042e2"/></linearGradient><path d="M2175.509 3131.596s16.834 16.305 5.462 34.446c0 0-133.353 23.637-169.559 12.912 0 0 7.518-17.159 48.287-36.69l-3.008 2.309c-3.807 2.923-1.574 9.01 3.217 8.737 26.866-1.532 82.464-6.453 115.601-21.714z" style="fill:url(#h)"/><linearGradient id="i" x1="571.363" x2="91.217" y1="2053.854" y2="2629.138" gradientTransform="matrix(-1 0 0 1 2878.896 0)" gradientUnits="userSpaceOnUse"><stop offset="0" style="stop-color:#09005d"/><stop offset="1" style="stop-color:#1a0f91"/></linearGradient><path d="M2396.729 2218.618c0 8.115 73.041 308.396 73.041 308.396l208.101 61.206c40.13 11.803 83.219-4.485 105.506-39.883h.001c55.378-87.955 28.924-204.152-59.072-259.464l-29.472-18.525a553.21 553.21 0 0 1-159.5-152.119l-11.1-15.931-127.505 116.32z" style="fill:url(#i)"/><path d="M2751.189 2508.751a.85.85 0 0 1-.437-1.577c24.615-14.791 26.976-48.377 26.846-62.13-.255-27.288-7.505-54.253-20.973-77.984-24.21-42.669-66.113-71.691-106.636-99.758l-8.397-5.825c-41.426-28.816-87.179-63.806-105.807-114.49a.85.85 0 0 1 .504-1.091.853.853 0 0 1 1.088.504c18.459 50.221 63.974 85.013 105.184 113.684l8.394 5.822c40.679 28.175 82.745 57.31 107.15 100.315 13.607 23.983 20.933 51.232 21.192 78.807.129 14.047-2.305 48.36-27.669 63.602a.863.863 0 0 1-.439.121z" style="fill:#7d97f4"/><path d="M2734.309 2464.084a.849.849 0 0 1-.832-1.014c5.475-27.843 4.659-52.705-2.428-73.893-12.821-38.339-46.871-66.252-75.1-86.285-5.681-4.033-11.548-8.069-17.219-11.972-26.193-18.025-53.278-36.665-72.941-62.077a.85.85 0 0 1 .149-1.191.844.844 0 0 1 1.19.153c19.504 25.201 46.48 43.765 72.563 61.717 5.678 3.907 11.548 7.946 17.239 11.984 28.442 20.184 62.753 48.327 75.73 87.134 7.18 21.469 8.016 46.622 2.481 74.759a.848.848 0 0 1-.832.685z" style="fill:#7d97f4"/><linearGradient id="j" x1="2428.205" x2="3385.881" y1="2515.43" y2="2033.195" gradientUnits="userSpaceOnUse"><stop offset="0" style="stop-color:#fe7062"/><stop offset="1" style="stop-color:#ff928e"/></linearGradient><path d="M2503.955 2619.497s-68.144-64.887-101.688-107.864c-18.132-23.232-23.826-53.815-15.44-82.067 15.314-51.594 42.53-105.032 45.012-113.35 3.804-12.748 80.211-12.218 80.211-12.218s150.355 97.581 209.43 262.877l-66.345 20.654s-39.258-65.862-78.046-107.736c0 0 67.118 88.666 69.482 124.964l-142.616 14.74z" style="fill:url(#j)"/><linearGradient id="k" x1="2482.945" x2="2456.234" y1="2414.222" y2="2242.825" gradientUnits="userSpaceOnUse"><stop offset="0" style="stop-color:#febbba"/><stop offset="1" style="stop-color:#ff928e"/></linearGradient><path d="M2411.304 2227.464c.798 2.651 32.035 86.268 33.595 87.639 1.56 1.373 43.736 3.641 63.587-9.927l-49.243-96.32-47.939 18.608z" style="fill:url(#k)"/><linearGradient id="l" x1="2596.813" x2="2968.531" y1="2608.179" y2="2608.179" gradientUnits="userSpaceOnUse"><stop offset="0" style="stop-color:#febbba"/><stop offset="1" style="stop-color:#ff928e"/></linearGradient><path d="m2365.129 2624.314 50.067-48.258 69.261 29.259s68.941 10.681 108.399 0l39.458-10.682 89.167-27.759 14.004 39.577c3.556 10.048-.017 21.204-8.706 27.378-7.714 5.482-16.757 11.506-22.52 14.027-11.742 5.137-289.463-3.554-289.463-3.554l-49.667-19.988z" style="fill:url(#l)"/><linearGradient id="m" x1="812.716" x2="992.728" y1="1636.458" y2="1758.73" gradientTransform="rotate(-3.242 10396.575 -25427.499)" gradientUnits="userSpaceOnUse"><stop offset="0" style="stop-color:#febbba"/><stop offset="1" style="stop-color:#ff928e"/></linearGradient><path d="M2419.411 2089.169s-36.123 17.729-58.25 72.639c-22.128 54.908-1.934 78.534 21.864 80.583 23.798 2.05 59.068-.471 94.447-37.138 35.377-36.668-11.003-137.34-58.061-116.084z" style="fill:url(#m)"/><linearGradient id="n" x1="1073.123" x2="584.93" y1="1491.944" y2="2076.869" gradientTransform="scale(-1 1) rotate(3.25 -9461.322 -58573.935)" gradientUnits="userSpaceOnUse"><stop offset="0" style="stop-color:#09005d"/><stop offset="1" style="stop-color:#1a0f91"/></linearGradient><path d="M2450.75 2178.126s23.479-79.829-45.944-76.815l-15.676 12.335s-27.916-41.935 12.684-65.014c40.6-23.08 103.982-8.182 124.957 47.091 20.973 55.273 12.632 92.207-15.417 120.814-28.047 28.608-41.97-1.233-41.97-1.233s14.677-26.101 7.355-39.203c-7.323-13.103-21.522 4.019-21.522 4.019l-4.467-1.994z" style="fill:url(#n)"/><linearGradient id="o" x1="830.599" x2="1029.198" y1="1746.455" y2="1881.352" gradientTransform="rotate(23.93 819.901 5616.785)" gradientUnits="userSpaceOnUse"><stop offset="0" style="stop-color:#febbba"/><stop offset="1" style="stop-color:#ff928e"/></linearGradient><path d="M2450.997 2192.086s32.323-34.38 44.15-9.727c11.827 24.653-32.146 30.742-48.719 31.68l4.569-21.953z" style="fill:url(#o)"/><linearGradient id="p" x1="2512.39" x2="2278.391" y1="2752.346" y2="2816.479" gradientTransform="rotate(-2.807 -1133.747 811.913)" gradientUnits="userSpaceOnUse"><stop offset="0" style="stop-color:#09005d"/><stop offset="1" style="stop-color:#1a0f91"/></linearGradient><path d="M2554.598 2647.065c-.222.011-.445.017-.668.015l-290.428-.317c-7.18-.006-12.993-5.832-12.986-13.012.007-7.182 5.854-13.115 13.015-12.986l290.428.317c7.18.006 12.993 5.833 12.986 13.012-.008 6.956-5.478 12.631-12.347 12.971z" style="fill:url(#p)"/><linearGradient id="q" x1="2287.165" x2="2121.132" y1="2418.733" y2="2594.22" gradientUnits="userSpaceOnUse"><stop offset="0" style="stop-color:#09005d"/><stop offset="1" style="stop-color:#1a0f91"/></linearGradient><path d="M2002.42 2383.374h241.87a46.098 46.098 0 0 1 41.694 26.435L2397.8 2646.91h-300.58a28.017 28.017 0 0 1-26.056-17.719l-86.709-219.401c-5.009-12.678 4.333-26.416 17.965-26.416z" style="fill:url(#q)"/><linearGradient id="r" x1="2186.791" x2="2111.456" y1="2462.428" y2="2575.874" gradientUnits="userSpaceOnUse"><stop offset="0" style="stop-color:#4f52ff"/><stop offset="1" style="stop-color:#4042e2"/></linearGradient><path d="M2172.82 2504.943c5.242 16.283 1.37 32.098-8.648 35.323-10.018 3.224-22.388-7.363-27.629-23.647-5.242-16.284-1.369-32.099 8.649-35.324 10.017-3.224 22.387 7.363 27.628 23.648z" style="fill:url(#r)"/><linearGradient id="s" x1="-9526.142" x2="-9523.69" y1="3436.001" y2="3695.879" gradientTransform="matrix(-1 0 0 1 -6719.28 0)" gradientUnits="userSpaceOnUse"><stop offset="0" style="stop-color:#09005d"/><stop offset="1" style="stop-color:#1a0f91"/></linearGradient><path d="M2885.708 3129.507s3.048 16.925 4.252 37.018c.513 8.562-5.832 16.001-14.369 16.829-29.727 2.883-97.393 8.207-140.6 1.972-6.052-.874-8.456-8.308-3.982-12.476 17.816-16.598 60.84-48.885 131.656-55.943l23.043 12.6z" style="fill:url(#s)"/><linearGradient id="t" x1="-9588.785" x2="-9602.27" y1="3145.781" y2="3040.36" gradientTransform="matrix(-1 0 0 1 -6719.28 0)" gradientUnits="userSpaceOnUse"><stop offset="0" style="stop-color:#febbba"/><stop offset="1" style="stop-color:#ff928e"/></linearGradient><path d="m2900.487 3091.355-15.03 36.839c-2.06 5.048-7.181 8.187-12.604 7.619-3.68-.385-8.038-1.091-12.278-2.378-8.482-2.574-13.266-11.565-10.727-20.058l11.344-37.944 39.295 15.922z" style="fill:url(#t)"/><linearGradient id="u" x1="-9877.254" x2="-9874.802" y1="3439.311" y2="3699.187" gradientTransform="matrix(-1 0 0 1 -6719.28 0)" gradientUnits="userSpaceOnUse"><stop offset="0" style="stop-color:#09005d"/><stop offset="1" style="stop-color:#1a0f91"/></linearGradient><path d="M3157.448 3158.848s-30.097 25.182-41.823 57.483c-3.226 8.884 3.592 18.243 13.043 18.243h61.935c9.065 0 16.015-8.155 14.436-17.081-3.946-22.305-15.322-58.551-47.591-58.645z" style="fill:url(#u)"/><linearGradient id="v" x1="-9883.501" x2="-9896.642" y1="3181.913" y2="3079.182" gradientTransform="matrix(-1 0 0 1 -6719.28 0)" gradientUnits="userSpaceOnUse"><stop offset="0" style="stop-color:#febbba"/><stop offset="1" style="stop-color:#ff928e"/></linearGradient><path d="M3194.731 3126.075s-6.079 26.908-10.752 44.69c-.848 3.228-4.292 4.999-7.435 3.875-9.374-3.351-17-4.833-22.545-4.089-2.563.344-4.8-1.788-4.834-4.374l-.582-44.693 46.148 4.591z" style="fill:url(#v)"/><linearGradient id="w" x1="-9975.327" x2="-9570.88" y1="2791.553" y2="2791.553" gradientTransform="matrix(-1 0 0 1 -6719.28 0)" gradientUnits="userSpaceOnUse"><stop offset="0" style="stop-color:#09005d"/><stop offset="1" style="stop-color:#1a0f91"/></linearGradient><path d="M3034.665 2520.596 2851.6 3079.078s35.113 22.996 51.841 22.038l217.439-448.831s38.05 276.554 19.612 475.099l62.28 4.751s101.269-507.382 24.565-681.164l-192.672 69.625z" style="fill:url(#w)"/><linearGradient id="x" x1="-9891.436" x2="-9876.727" y1="2729.501" y2="2700.081" gradientTransform="matrix(-1 0 0 1 -6719.28 0)" gradientUnits="userSpaceOnUse"><stop offset="0" style="stop-color:#4f52ff"/><stop offset="1" style="stop-color:#4042e2"/></linearGradient><path d="M3119.703 2647.46a1.773 1.773 0 0 0 1.76-1.994l-7.104-56.388c-.121-.97-.999-1.646-1.981-1.537a1.773 1.773 0 0 0-1.537 1.98l7.104 56.387a1.775 1.775 0 0 0 1.758 1.552z" style="fill:url(#x)"/><linearGradient id="y" x1="2921.963" x2="3465.326" y1="2469.4" y2="1759.633" gradientUnits="userSpaceOnUse"><stop offset="0" style="stop-color:#fe7062"/><stop offset="1" style="stop-color:#ff928e"/></linearGradient><path d="M3000.343 2029.161s148.317 13.17 127.336 118.849c0 0 81.986 154.288 120.316 336.038 1.248 5.914-2.715 11.683-8.672 12.703l-246.997 42.29c-6.814 1.167-13.385-3.083-15.116-9.775l-59.016-228.084-22.997 106.044-73.072-19.04 61.514-311.609c0 .001 8.582-45.462 116.704-47.416z" style="fill:url(#y)"/><linearGradient id="z" x1="-5066.617" x2="-6169.673" y1="-5920.397" y2="-3945.659" gradientTransform="matrix(-1 0 0 1 -6719.28 0)" gradientUnits="userSpaceOnUse"><stop offset="0" style="stop-color:#e1473d"/><stop offset="1" style="stop-color:#e9605a"/></linearGradient><path d="M2916.939 2290.98a1.842 1.842 0 0 0 1.799-2.229l-20.589-94.538a1.84 1.84 0 0 0-3.595.783l20.589 94.538a1.841 1.841 0 0 0 1.796 1.446z" style="fill:url(#z)"/><linearGradient id="A" x1="-9784.189" x2="-9600.024" y1="2507.191" y2="2507.191" gradientTransform="matrix(-1 0 0 1 -6719.28 0)" gradientUnits="userSpaceOnUse"><stop offset="0" style="stop-color:#febbba"/><stop offset="1" style="stop-color:#ff928e"/></linearGradient><path d="M2931.847 2572.3a35.263 35.263 0 0 1 25.505-3.318l17.184 4.278c3.654.909 7.272-1.606 7.692-5.347l17.784-158.287c22.236 10.559 54.316 9.298 64.895 8.525l-40.931 186.608h-143.233l51.104-32.459z" style="fill:url(#A)"/><linearGradient id="B" x1="-9614.477" x2="-9270.56" y1="2276.331" y2="2276.331" gradientTransform="matrix(-1 0 0 1 -6719.28 0)" gradientUnits="userSpaceOnUse"><stop offset="0" style="stop-color:#febbba"/><stop offset="1" style="stop-color:#ff928e"/></linearGradient><path d="m2551.28 2228.956 4.329-14.388a28.462 28.462 0 0 1 16.635-18.204l78.3-31.488s1.182-10.042-16.544-16.866-13.582-26.676-13.582-26.676 24.218 11.048 59.67 28.568c20.276 10.021 31.652 27.711 37.684 41.028l177.426 216.296-20.831 14.313c-27.392 18.821-65.066 9.575-80.633-19.788l-96.118-184.313c-48.258 14.497-97.089 17.269-146.336 11.518z" style="fill:url(#B)"/><linearGradient id="C" x1="-9738.293" x2="-9618.602" y1="2083.44" y2="1960.64" gradientTransform="matrix(-1 0 0 1 -6719.28 0)" gradientUnits="userSpaceOnUse"><stop offset="0" style="stop-color:#febbba"/><stop offset="1" style="stop-color:#ff928e"/></linearGradient><path d="m2952.294 1928.258 45.618 127.674s-40.395 31.58-69.873 20.902l-22.988-73.185c.001-.001 17.558-89.448 47.243-75.391z" style="fill:url(#C)"/><linearGradient id="D" x1="-9564.71" x2="-9713.935" y1="1883.269" y2="2080.682" gradientTransform="matrix(-1 0 0 1 -6719.28 0)" gradientUnits="userSpaceOnUse"><stop offset="0" style="stop-color:#febbba"/><stop offset="1" style="stop-color:#ff928e"/></linearGradient><path d="M2816.146 1882.406c0 1.967 43.943 124.396 43.943 124.396l69.372-26.577L2905.052 1858c0 .001-88.906-8.531-88.906 24.406z" style="fill:url(#D)"/><linearGradient id="E" x1="-9678.676" x2="-9500.424" y1="1930.889" y2="1930.889" gradientTransform="matrix(-1 0 0 1 -6719.28 0)" gradientUnits="userSpaceOnUse"><stop offset="0" style="stop-color:#09005d"/><stop offset="1" style="stop-color:#1a0f91"/></linearGradient><path d="m2892.883 1887.778 17.888 63.336a9.08 9.08 0 0 1 .348 2.474c.007 5.166-1.272 22.941-19.378 20.523-16.429-2.194-31.455-3.952-41.009.549a9.185 9.185 0 0 0-4.74 11.42c3.996 11.122 13.462 36.019 24.987 56.395 2.339 4.135 7.469 5.742 11.792 3.775 13.029-5.928 40.158-19.199 59.482-34.987 2.618-2.139 3.876-5.504 3.253-8.827-3.04-16.202-12.096-65.479-12.496-79.601-.375-13.255 14.499-23.374 21.047-27.178a9.031 9.031 0 0 0 4.255-5.714c2.055-8.532 3.8-27.84-20.829-32.096a9.207 9.207 0 0 1-7.469-10.95c2.084-10.203 1.417-25.219-17.959-30.749-19.695-5.621-32.087 6.234-38.39 15.324-2.548 3.676-7.317 4.868-11.4 3.043-2.325-1.039-5.134-1.085-8.152 1.46-4.066 3.429-10.258 2.385-13.247-2.015-5.743-8.453-16.175-16.89-33.838-11.176-31.342 10.141-29.844 46.276-18.355 65.92 11.488 19.644 44.844 6.718 60.634-6.299 12.005-9.897 30.285-3.977 38.358-.57a9.12 9.12 0 0 1 5.218 5.943z" style="fill:url(#E)"/><linearGradient id="F" x1="-9783.267" x2="-9663.576" y1="2039.604" y2="1916.805" gradientTransform="matrix(-1 0 0 1 -6719.28 0)" gradientUnits="userSpaceOnUse"><stop offset="0" style="stop-color:#febbba"/><stop offset="1" style="stop-color:#ff928e"/></linearGradient><path d="M2939.293 1945.96s-18.549-35.089-6.283-46.107c12.266-11.019 33.047-9.216 32.488 18.223-.695 34.13-26.205 27.884-26.205 27.884z" style="fill:url(#F)"/><linearGradient id="G" x1="-5162.125" x2="-6265.179" y1="-5973.744" y2="-3999.009" gradientTransform="matrix(-1 0 0 1 -6719.28 0)" gradientUnits="userSpaceOnUse"><stop offset="0" style="stop-color:#e1473d"/><stop offset="1" style="stop-color:#e9605a"/></linearGradient><path d="M3050.515 2420.524c10.123 0 17.348-.769 18.129-.855l1.316-.147 54.007-251.798a1.838 1.838 0 0 0-1.412-2.184 1.829 1.829 0 0 0-2.184 1.412l-53.446 249.185c-8.037.707-50.958 3.556-73.615-12.496l46.784-218.763-9.765-18.401a1.84 1.84 0 1 0-3.25 1.723l9.14 17.22-46.999 219.77.938.706c16.373 12.3 42.744 14.628 60.357 14.628z" style="fill:url(#G)"/><path d="M2742.174 2641.187h285.832v-29.498h-285.832c6.118 0 6.118 29.498 0 29.498z" style="fill:#91b3fa"/><linearGradient id="H" x1="-1811.566" x2="-1812.791" y1="2789.228" y2="2715.704" gradientTransform="matrix(-1 0 0 1 1080.72 0)" gradientUnits="userSpaceOnUse"><stop offset="0" style="stop-color:#4f52ff"/><stop offset="1" style="stop-color:#4042e2"/></linearGradient><path d="M3027.006 2641.187c.55 0 1-.45 1-1v-27.497c0-.55-.45-1-1-1h-292.548c-.55 0-1-.45-1-1v-4.67c0-.55.45-1 1-1h309.914c6.818 0 12.344 5.527 12.344 12.344v18.853c0 6.428-5.21 11.639-11.639 11.639h-310.619c-.55 0-1-.45-1-1v-4.669c0-.55.45-1 1-1h292.548z" style="fill:url(#H)"/><path d="M1832.378 3202.603a8.728 8.728 0 0 1-3.714-.839c-4.774-2.242-6.979-8.283-4.925-13.493l197.349-500.738c2.052-5.209 7.584-7.614 12.362-5.376 4.774 2.242 6.979 8.283 4.926 13.493l-197.348 500.737c-1.532 3.887-5.003 6.216-8.65 6.216z" style="fill:#7d97f4"/><path d="M2054.7 3202.603c-3.646 0-7.117-2.326-8.648-6.215l-197.349-500.737c-2.053-5.211.152-11.252 4.926-13.493 4.771-2.242 10.307.164 12.363 5.376l197.348 500.738c2.054 5.21-.151 11.251-4.925 13.493a8.743 8.743 0 0 1-3.715.838zM2770.809 3191.623a8.732 8.732 0 0 1-3.714-.839c-4.773-2.242-6.979-8.282-4.925-13.493l197.348-500.738c2.054-5.209 7.583-7.614 12.363-5.376 4.773 2.242 6.979 8.283 4.925 13.493l-197.348 500.737c-1.532 3.887-5.003 6.216-8.649 6.216z" style="fill:#7d97f4"/><path d="M2993.129 3191.623c-3.646 0-7.117-2.326-8.649-6.215l-197.348-500.737c-2.054-5.211.152-11.252 4.925-13.493 4.771-2.242 10.307.164 12.363 5.376l197.348 500.738c2.054 5.211-.151 11.251-4.925 13.493a8.72 8.72 0 0 1-3.714.838z" style="fill:#7d97f4"/><path d="M3069.511 2661.07c.732-3.293-.265-6.698-2.719-9.284-2.454-2.587-6.108-4.086-9.964-4.086H1750.731c-5.07 0-9.791 2.248-12.523 5.964-2.732 3.716-3.098 8.386-.972 12.39l14.154 26.645c3.241 6.102 10.263 10.008 17.991 10.008h1278.486c7.188 0 13.367-4.434 14.732-10.573l6.912-31.064z" style="fill:#7d97f4"/><g style="opacity:.3"><path d="M2809.441 1404.476a5.768 5.768 0 0 1 1.048-7.644 231.601 231.601 0 0 1 15.554-12.049 5.768 5.768 0 0 1 8.043 1.37l.063.093a5.768 5.768 0 0 1-1.435 7.95 220.22 220.22 0 0 0-14.776 11.445 5.77 5.77 0 0 1-8.497-1.165zm41.761-27.965a5.769 5.769 0 0 1 2.104-8.369 232.4 232.4 0 0 1 17.811-8.326 5.77 5.77 0 1 1 4.439 10.65 220.768 220.768 0 0 0-16.925 7.914 5.772 5.772 0 0 1-7.429-1.869zm46.88-18.075a5.77 5.77 0 0 1 3.315-8.828 229.477 229.477 0 0 1 19.23-4.146 5.775 5.775 0 0 1 6.659 4.715 5.771 5.771 0 0 1-4.715 6.659 218.115 218.115 0 0 0-18.261 3.936 5.772 5.772 0 0 1-6.228-2.336zm49.754-7.14a5.77 5.77 0 0 1 4.601-9.008 231.765 231.765 0 0 1 19.675.257 5.774 5.774 0 0 1 5.438 6.082 5.771 5.771 0 0 1-6.082 5.439 218.927 218.927 0 0 0-18.689-.243 5.764 5.764 0 0 1-4.943-2.527zm50.097 4.135a5.767 5.767 0 0 1 5.881-8.906 233.573 233.573 0 0 1 19.12 4.605 5.766 5.766 0 0 1 3.962 7.132 5.77 5.77 0 0 1-7.134 3.961 221.804 221.804 0 0 0-18.172-4.378 5.745 5.745 0 0 1-3.657-2.414zm47.93 15.113a5.77 5.77 0 0 1 7.103-8.525 232.427 232.427 0 0 1 17.628 8.722 5.77 5.77 0 0 1-5.552 10.115 221.242 221.242 0 0 0-16.749-8.288 5.737 5.737 0 0 1-2.43-2.024zm130.28 167.051a5.753 5.753 0 0 1-.912-2.262 217.28 217.28 0 0 0-3.97-18.261 5.768 5.768 0 0 1 4.111-7.045 5.768 5.768 0 0 1 7.047 4.111 229.248 229.248 0 0 1 4.183 19.231 5.77 5.77 0 0 1-4.704 6.667 5.77 5.77 0 0 1-5.755-2.441zm-86.918-141.709a5.768 5.768 0 0 1 8.222-7.869 229.944 229.944 0 0 1 15.239 12.429c2.37 2.128 2.595 5.764.475 8.145a5.77 5.77 0 0 1-8.146.474 217.576 217.576 0 0 0-14.47-11.803 5.807 5.807 0 0 1-1.32-1.376zm72.839 93.465a5.815 5.815 0 0 1-.555-1.02 221.06 221.06 0 0 0-7.951-16.92 5.771 5.771 0 0 1 2.441-7.786c2.824-1.474 6.321-.392 7.786 2.441a233.648 233.648 0 0 1 8.366 17.804 5.77 5.77 0 0 1-10.087 5.481zm-36.225-59.072a5.77 5.77 0 0 1 9.173-6.974 230.799 230.799 0 0 1 12.074 15.526c.025.032.048.067.071.1a5.77 5.77 0 0 1-9.471 6.588 219.35 219.35 0 0 0-11.473-14.746 6.472 6.472 0 0 1-.374-.494zM3179.395 1577.974a5.744 5.744 0 0 1-.997-3.299c.031-2.974-.001-5.998-.091-8.99a5.768 5.768 0 0 1 5.59-5.942 5.763 5.763 0 0 1 5.941 5.592c.097 3.146.129 6.327.098 9.457a5.769 5.769 0 0 1-10.541 3.182z" style="fill:#7d97f4"/></g><g style="opacity:.3"><path d="M3109.066 1739.188a5.772 5.772 0 0 1 .814-7.437 217.409 217.409 0 0 0 6.41-6.302 5.769 5.769 0 0 1 8.158-.1 5.764 5.764 0 0 1 .1 8.159 233.129 233.129 0 0 1-6.75 6.637 5.77 5.77 0 0 1-8.732-.957zM2769.107 1702.464a239.682 239.682 0 0 1-4.385-6.684 5.77 5.77 0 0 1 9.753-6.168 223.217 223.217 0 0 0 10.458 15.134 5.77 5.77 0 0 1-9.21 6.951 232.644 232.644 0 0 1-6.616-9.233zm-18.865-33.481a5.885 5.885 0 0 1-.482-.856 231.512 231.512 0 0 1-7.294-17.934 5.77 5.77 0 0 1 3.482-7.377c3-1.075 6.313.485 7.378 3.484a220.966 220.966 0 0 0 6.929 17.038 5.767 5.767 0 0 1-10.013 5.645zm45.407 65.619a5.769 5.769 0 0 1 8.861-7.311 217.234 217.234 0 0 0 13.513 12.46 5.77 5.77 0 0 1-7.457 8.806c-4.913-4.16-9.7-8.576-14.23-13.122a5.843 5.843 0 0 1-.687-.833zm-60.866-112.611a5.755 5.755 0 0 1-.873-2.061 230.282 230.282 0 0 1-3.17-19.1 5.768 5.768 0 0 1 5.022-6.428 5.764 5.764 0 0 1 6.429 5.022 218.776 218.776 0 0 0 3.01 18.137 5.768 5.768 0 0 1-4.462 6.83 5.77 5.77 0 0 1-5.956-2.4zm99.416 143.548a5.77 5.77 0 0 1 7.861-8.12 219.01 219.01 0 0 0 15.92 9.184 5.768 5.768 0 1 1-5.34 10.227 230.338 230.338 0 0 1-16.762-9.669 5.731 5.731 0 0 1-1.679-1.622zm44.405 21.729a5.769 5.769 0 0 1 6.718-8.677 222.199 222.199 0 0 0 17.549 5.493 5.764 5.764 0 0 1 4.082 7.064 5.771 5.771 0 0 1-7.066 4.081 232.995 232.995 0 0 1-18.467-5.781 5.74 5.74 0 0 1-2.816-2.18zm48.086 11.532a5.744 5.744 0 0 1-.952-3.967 5.768 5.768 0 0 1 6.446-5 220.58 220.58 0 0 0 18.327 1.541 5.77 5.77 0 0 1-.486 11.528 232.849 232.849 0 0 1-19.286-1.622 5.758 5.758 0 0 1-4.049-2.48zm49.454.769a5.766 5.766 0 0 1 4.226-8.983 218.293 218.293 0 0 0 18.216-2.512 5.773 5.773 0 0 1 6.707 4.645 5.77 5.77 0 0 1-4.647 6.707 229.787 229.787 0 0 1-19.182 2.647 5.772 5.772 0 0 1-5.32-2.504zm48.434-10.109a5.786 5.786 0 0 1-.711-1.45 5.768 5.768 0 0 1 3.682-7.279 219.157 219.157 0 0 0 17.206-6.463 5.775 5.775 0 0 1 7.564 3.057 5.768 5.768 0 0 1-3.057 7.565 229.61 229.61 0 0 1-18.114 6.803c-2.5.82-5.16-.161-6.57-2.233zm45-20.489a5.767 5.767 0 0 1 1.819-8.208 223.437 223.437 0 0 0 15.407-10.049 5.768 5.768 0 0 1 8.046 1.35c1.923 2.591 1.245 6.196-1.348 8.045a233.664 233.664 0 0 1-16.208 10.57 5.77 5.77 0 0 1-7.716-1.708zM2730.056 1572.61a5.74 5.74 0 0 1-.997-3.328c.047-3.123.162-6.304.34-9.455a5.768 5.768 0 0 1 6.084-5.435 5.768 5.768 0 0 1 5.435 6.085 220.79 220.79 0 0 0-.323 8.98 5.768 5.768 0 0 1-10.539 3.153z" style="fill:#7d97f4"/></g><path d="M2789.758 1541.403a2.695 2.695 0 0 0 1.016 2.961l26.691 19.093a142.938 142.938 0 0 0 4.784 46.068l-22.168 24.17a2.697 2.697 0 0 0-.384 3.107l18.751 34.611a2.7 2.7 0 0 0 2.812 1.376l32.354-5.369a142.961 142.961 0 0 0 35.978 29.167l1.417 32.787a2.697 2.697 0 0 0 1.925 2.468l37.733 11.214a2.695 2.695 0 0 0 2.961-1.016l19.093-26.691a142.963 142.963 0 0 0 46.068-4.784l24.17 22.168a2.696 2.696 0 0 0 3.106.384l34.611-18.752a2.695 2.695 0 0 0 1.375-2.812l-5.369-32.354a142.913 142.913 0 0 0 29.167-35.977l32.788-1.417a2.698 2.698 0 0 0 2.468-1.925l11.214-37.733a2.695 2.695 0 0 0-1.016-2.961l-26.692-19.093a142.907 142.907 0 0 0-4.784-46.068l22.168-24.17a2.697 2.697 0 0 0 .384-3.107l-18.752-34.611a2.694 2.694 0 0 0-2.812-1.375l-32.354 5.369a142.9 142.9 0 0 0-35.978-29.167l-1.416-32.786a2.697 2.697 0 0 0-1.926-2.469l-37.733-11.214a2.695 2.695 0 0 0-2.961 1.016l-19.093 26.691a142.963 142.963 0 0 0-46.068 4.784l-24.17-22.168a2.695 2.695 0 0 0-3.107-.383l-34.611 18.751a2.697 2.697 0 0 0-1.376 2.812l5.369 32.354a142.957 142.957 0 0 0-29.167 35.977l-32.787 1.417a2.7 2.7 0 0 0-2.469 1.926l-11.21 37.731z" style="fill:#7d97f4"/><path d="M2928.309 1594.013c-10.85-15.946-8.668-37.916 5.939-51.357 16.057-14.773 41.136-13.728 55.91 2.327 7.159 7.777 10.856 17.878 10.416 28.435-.439 10.56-4.964 20.317-12.743 27.472-16.057 14.774-41.136 13.728-55.909-2.327a39.611 39.611 0 0 1-3.613-4.55zm57.852-39.255a30.699 30.699 0 0 0-2.797-3.525c-11.326-12.31-30.557-13.109-42.866-1.785-12.31 11.327-13.118 30.557-1.785 42.868 11.325 12.31 30.557 13.109 42.866 1.785 5.964-5.488 9.434-12.968 9.771-21.065.274-6.581-1.55-12.93-5.189-18.278z" style="fill:#bdd0fb"/><path d="M2881.515 1626.832a99.145 99.145 0 0 1-5.2-8.539 97.976 97.976 0 0 1-7.316-17.254l-.064-.202a96.513 96.513 0 0 1-.176-.575c-.115-.373-.225-.748-.335-1.121a2.307 2.307 0 1 1 4.43-1.294 93.178 93.178 0 0 0 7.52 18.245c15.639 28.878 44.504 46.11 75.06 48.281 16.995 1.21 34.514-2.242 50.573-10.943a94.03 94.03 0 0 0 8.147-4.96c17.579-11.964 30.402-29.464 36.541-50.123 7.052-23.729 4.442-48.785-7.35-70.549-24.358-44.948-80.704-61.681-125.633-37.338a93.121 93.121 0 0 0-8.042 4.898 92.385 92.385 0 0 0-27.544 29.319 2.305 2.305 0 0 1-3.161.81 2.308 2.308 0 0 1-.811-3.162 97 97 0 0 1 28.917-30.782 97.976 97.976 0 0 1 8.44-5.142c47.172-25.558 106.343-7.958 131.892 39.196 12.38 22.85 15.119 49.152 7.716 74.063-6.444 21.688-19.906 40.059-38.36 52.62a99.42 99.42 0 0 1-8.551 5.207c-22.852 12.38-49.154 15.121-74.065 7.717-21.693-6.444-40.067-19.913-52.628-38.372z" style="fill:#bdd0fb"/><g style="opacity:.3"><path d="M2572.997 1327.236a3.563 3.563 0 0 1 .195-4.266 152.009 152.009 0 0 1 5.996-6.868 3.566 3.566 0 0 1 5.036-.19 3.557 3.557 0 0 1 .189 5.036 145.782 145.782 0 0 0-5.717 6.548 3.564 3.564 0 0 1-5.699-.26zM2592.268 1307.745a3.563 3.563 0 0 1 .655-4.728 154.881 154.881 0 0 1 15.242-11.293c1.653-1.072 3.856-.475 4.932 1.044a3.565 3.565 0 0 1-1.044 4.93 148.282 148.282 0 0 0-14.544 10.772 3.564 3.564 0 0 1-5.241-.725zm31.022-20.161a3.567 3.567 0 0 1 1.379-5.21 154.538 154.538 0 0 1 17.518-7.267 3.563 3.563 0 1 1 2.32 6.738 147.555 147.555 0 0 0-16.71 6.932 3.563 3.563 0 0 1-4.507-1.193zm34.983-12.036a3.566 3.566 0 0 1 2.215-5.491 153.582 153.582 0 0 1 18.78-2.74 3.557 3.557 0 0 1 3.845 3.257 3.563 3.563 0 0 1-3.255 3.845 146.478 146.478 0 0 0-17.906 2.613 3.566 3.566 0 0 1-3.679-1.484zm36.874-3.068a3.568 3.568 0 0 1-.614-2.145 3.566 3.566 0 0 1 3.706-3.417c6.312.257 12.659.909 18.873 1.937a3.564 3.564 0 0 1-1.167 7.032 146.973 146.973 0 0 0-17.996-1.848 3.558 3.558 0 0 1-2.802-1.559zm36.504 6.032a3.565 3.565 0 0 1 3.952-5.425 155.79 155.79 0 0 1 17.826 6.461 3.564 3.564 0 0 1-2.831 6.54 148.478 148.478 0 0 0-17.009-6.162 3.562 3.562 0 0 1-1.938-1.414zm33.929 14.706a3.563 3.563 0 0 1 4.752-5.077c5.435 3.2 10.722 6.77 15.71 10.611a3.567 3.567 0 0 1 .648 4.999 3.563 3.563 0 0 1-4.996.649 146.13 146.13 0 0 0-14.977-10.117 3.534 3.534 0 0 1-1.137-1.065zm29.296 22.55a3.564 3.564 0 0 1 5.454-4.534 154.647 154.647 0 0 1 12.633 14.149c1.194 1.569.949 3.79-.597 5.006a3.565 3.565 0 0 1-5.004-.593 146.418 146.418 0 0 0-12.045-13.496 3.598 3.598 0 0 1-.441-.532zm31.495 45.483a3.694 3.694 0 0 1-.307-.549 147.582 147.582 0 0 0-7.204-13.989 92.918 92.918 0 0 0-1.204-2.03 3.563 3.563 0 0 1 1.198-4.895c1.684-1.026 3.93-.509 4.896 1.195.431.713.857 1.427 1.274 2.151a155.11 155.11 0 0 1 7.541 14.652 3.561 3.561 0 0 1-6.194 3.465z" style="fill:#7d97f4"/></g><g style="opacity:.3"><path d="M2566.067 1509.007a3.565 3.565 0 0 1 .905-4.923 3.561 3.561 0 0 1 4.961.877 147.425 147.425 0 0 0 11.06 13.935c1.293 1.467 1.196 3.717-.271 5.033a3.565 3.565 0 0 1-5.033-.271 155.173 155.173 0 0 1-11.595-14.61c-.008-.014-.018-.028-.027-.041zm-9.533-15.538a3.681 3.681 0 0 1-.2-.331 155.89 155.89 0 0 1-7.787-16.956 3.563 3.563 0 0 1 6.644-2.581 149.187 149.187 0 0 0 7.428 16.181 3.562 3.562 0 0 1-6.085 3.687zm33.843 42.606a3.563 3.563 0 0 1 5.285-4.691 147.742 147.742 0 0 0 14.109 10.85 3.564 3.564 0 0 1-3.998 5.902 154.332 154.332 0 0 1-14.787-11.378 3.498 3.498 0 0 1-.609-.683zm-46.998-76.549a3.597 3.597 0 0 1-.509-1.131 152.92 152.92 0 0 1-3.463-18.345 3.564 3.564 0 0 1 3.09-3.982 3.57 3.57 0 0 1 3.979 3.09 146.402 146.402 0 0 0 3.302 17.49 3.565 3.565 0 0 1-2.581 4.328 3.566 3.566 0 0 1-3.818-1.45zm77.129 96.936a3.564 3.564 0 0 1 4.568-5.18 146.448 146.448 0 0 0 16.297 7.139 3.565 3.565 0 0 1-2.46 6.691 155.045 155.045 0 0 1-17.088-7.485 3.563 3.563 0 0 1-1.317-1.165zm34.142 12.564a3.564 3.564 0 0 1 3.762-5.474 148.84 148.84 0 0 0 17.539 3.038 3.563 3.563 0 0 1-.788 7.081 155.83 155.83 0 0 1-18.386-3.182 3.553 3.553 0 0 1-2.127-1.463zm36.173 4.024a3.52 3.52 0 0 1-.614-1.966 3.563 3.563 0 0 1 3.527-3.6 145.73 145.73 0 0 0 17.754-1.26 3.563 3.563 0 0 1 .936 7.066 154.072 154.072 0 0 1-18.62 1.323 3.564 3.564 0 0 1-2.983-1.563zM2538.815 1423.245a3.544 3.544 0 0 1-.615-1.993c-.009-3.05.074-6.113.243-9.107a3.566 3.566 0 0 1 3.759-3.358 3.575 3.575 0 0 1 3.358 3.76c-.162 2.854-.24 5.778-.233 8.688a3.564 3.564 0 0 1-6.512 2.01z" style="fill:#7d97f4"/></g><path d="M2578.538 1399.8a1.803 1.803 0 0 0 .68 1.981l17.861 12.776a95.667 95.667 0 0 0 3.201 30.826l-14.833 16.173a1.804 1.804 0 0 0-.257 2.079l12.547 23.16a1.807 1.807 0 0 0 1.882.921l21.65-3.593a95.674 95.674 0 0 0 24.074 19.518l.948 21.939a1.805 1.805 0 0 0 1.289 1.652l25.249 7.504a1.804 1.804 0 0 0 1.981-.68l12.776-17.86a95.673 95.673 0 0 0 30.827-3.201l16.173 14.834c.567.52 1.402.623 2.079.257l23.16-12.548a1.803 1.803 0 0 0 .92-1.882l-3.593-21.65a95.626 95.626 0 0 0 19.517-24.074l21.94-.948a1.804 1.804 0 0 0 1.651-1.288l7.504-25.25a1.804 1.804 0 0 0-.68-1.981l-17.861-12.776a95.612 95.612 0 0 0-3.201-30.826l14.834-16.174c.52-.567.624-1.402.257-2.079l-12.548-23.16a1.804 1.804 0 0 0-1.882-.92l-21.649 3.593a95.639 95.639 0 0 0-24.075-19.518l-.948-21.939a1.804 1.804 0 0 0-1.289-1.652l-25.249-7.504a1.804 1.804 0 0 0-1.981.68l-12.776 17.86a95.64 95.64 0 0 0-30.826 3.202l-16.173-14.834a1.804 1.804 0 0 0-2.079-.256l-23.16 12.547a1.805 1.805 0 0 0-.921 1.882l3.593 21.65a95.648 95.648 0 0 0-19.517 24.074l-21.939.948a1.806 1.806 0 0 0-1.652 1.288l-7.504 25.249z" style="fill:#7d97f4"/><path d="M2670.833 1435.24c-3.234-4.752-4.854-10.393-4.611-16.24.3-7.193 3.383-13.838 8.682-18.713 10.932-10.061 28.015-9.351 38.081 1.584 10.057 10.969 9.35 28.024-1.586 38.085-5.298 4.876-12.178 7.396-19.369 7.095-7.194-.298-13.841-3.381-18.715-8.682a27.522 27.522 0 0 1-2.482-3.129zm38.718-26.262a20.02 20.02 0 0 0-1.809-2.281c-7.404-8.043-19.969-8.565-28.014-1.163a19.697 19.697 0 0 0-6.385 13.763c-.22 5.293 1.638 10.349 5.218 14.251a19.709 19.709 0 0 0 13.765 6.386 19.698 19.698 0 0 0 14.251-5.221c7.317-6.734 8.411-17.745 2.974-25.735z" style="fill:#bdd0fb"/><path d="M2638.233 1458.041a67.935 67.935 0 0 1-3.55-5.83 67.54 67.54 0 0 1-5.268-12.622l-.173-.589a3.562 3.562 0 0 1 2.421-4.419 3.568 3.568 0 0 1 4.417 2.422 60.205 60.205 0 0 0 4.867 11.811l.001.001c.111.206.226.412.339.615 4.899 8.84 11.817 16.124 20.126 21.407a60.344 60.344 0 0 0 14.675 6.753l.128.039c.132.039.26.08.391.117 15.362 4.564 31.582 2.875 45.672-4.759a60.765 60.765 0 0 0 5.274-3.21c11.38-7.745 19.681-19.076 23.657-32.45 4.564-15.362 2.873-31.581-4.761-45.669-7.634-14.078-20.299-24.364-35.658-28.932-15.362-4.564-31.582-2.875-45.672 4.759a60.058 60.058 0 0 0-5.205 3.169 59.806 59.806 0 0 0-17.831 18.98 3.56 3.56 0 0 1-4.88 1.253 3.566 3.566 0 0 1-1.252-4.883 66.954 66.954 0 0 1 19.948-21.237 67.601 67.601 0 0 1 5.823-3.547c15.766-8.542 33.912-10.432 51.1-5.323 17.184 5.109 31.359 16.588 39.893 32.366 8.542 15.764 10.434 33.909 5.323 51.097-4.445 14.963-13.733 27.638-26.465 36.303a68.535 68.535 0 0 1-5.898 3.592c-30.52 16.533-68.32 6.89-87.442-21.214z" style="fill:#bdd0fb"/><linearGradient id="I" x1="1481.724" x2="1125.107" y1="867.719" y2="1693.031" gradientUnits="userSpaceOnUse"><stop offset="0" style="stop-color:#febbba"/><stop offset="1" style="stop-color:#ff928e"/></linearGradient><path d="M899.548 1381.119c0-129.399 161.328-234.299 360.336-234.299s360.336 104.9 360.336 234.299c0 129.4-161.328 234.299-360.336 234.299-25.108 0-49.614-1.672-73.272-4.852-30.701-4.126-57.387 21.579-54.697 52.44 2.505 28.743 10.849 53.981 18.01 71.146 3.445 8.256-5.456 16.294-13.287 11.97-72.341-39.951-98.913-114.915-108.659-166.409-2.509-13.255-10.352-24.846-21.694-32.152-65.908-42.459-106.737-101.349-106.737-166.442z" style="fill:url(#I)"/><linearGradient id="J" x1="16880.479" x2="16352.153" y1="3026.343" y2="3601.013" gradientTransform="matrix(1 .0095 -.0095 1 -15669.081 -63.475)" gradientUnits="userSpaceOnUse"><stop offset="0" style="stop-color:#09005d"/><stop offset="1" style="stop-color:#1a0f91"/></linearGradient><path d="M1015.236 3164.449s-5.768 30.924-8.742 61.562c-1.164 11.973 7.976 22.466 19.991 23.082 40.817 2.09 128.132 6.231 159.488 5.13 4.714-.165 7.84-4.959 6.139-9.358a15.39 15.39 0 0 0-7.792-8.367l-143.646-67.687-25.438-4.362z" style="fill:url(#J)"/><linearGradient id="K" x1="16708.992" x2="16755.922" y1="3069.019" y2="3069.019" gradientTransform="matrix(1 .0095 -.0095 1 -15669.081 -63.475)" gradientUnits="userSpaceOnUse"><stop offset="0" style="stop-color:#febbba"/><stop offset="1" style="stop-color:#ff928e"/></linearGradient><path d="m1010.927 3146.206 4.042 37.093s25.162 12.007 42.548-1.076l-10.073-41.39-36.517 5.373z" style="fill:url(#K)"/><linearGradient id="L" x1="-6309.191" x2="-5884.688" y1="29188.154" y2="28699.127" gradientTransform="matrix(1 .0095 -.0095 1 -15669.081 -63.475)" gradientUnits="userSpaceOnUse"><stop offset="0" style="stop-color:#09005d"/><stop offset="1" style="stop-color:#1a0f91"/></linearGradient><path d="M1020.877 2449.658c-1.991 9.658-14.799 482.747 33.756 695.273.792 3.468-.996 7.017-4.301 8.331-7.787 3.095-23.04 7.541-41.271 7.978-5.646.136-10.672-3.581-12.212-9.014-13.988-49.335-80.915-296.488-87.706-532.041-7.589-263.207.086-8.958.086-8.958l7.474-162.582 104.174 1.013z" style="fill:url(#L)"/><linearGradient id="M" x1="16761.957" x2="16233.61" y1="2917.362" y2="3492.055" gradientTransform="matrix(1 .0095 -.0095 1 -15669.081 -63.475)" gradientUnits="userSpaceOnUse"><stop offset="0" style="stop-color:#09005d"/><stop offset="1" style="stop-color:#1a0f91"/></linearGradient><path d="M849.113 3179.026s-8.859 15.554-17.688 57.027c-1.594 7.49 3.581 14.722 11.194 15.545 13.471 1.454 34.211 3.357 50.84 3.402 7.665.02 13.71-6.596 12.86-14.215-1.697-15.185-7.197-40.125-24.737-59.689l-32.469-2.07z" style="fill:url(#M)"/><linearGradient id="N" x1="16539.857" x2="16580.373" y1="3066.606" y2="3066.606" gradientTransform="matrix(1 .0095 -.0095 1 -15669.081 -63.475)" gradientUnits="userSpaceOnUse"><stop offset="0" style="stop-color:#febbba"/><stop offset="1" style="stop-color:#ff928e"/></linearGradient><path d="m841.918 3131.296 9.737 56.13s10.085 7.651 30.229 2.366l-4.328-60.333-35.638 1.837z" style="fill:url(#N)"/><linearGradient id="O" x1="-6378.98" x2="-5954.478" y1="29127.545" y2="28638.519" gradientTransform="matrix(1 .0095 -.0095 1 -15669.081 -63.475)" gradientUnits="userSpaceOnUse"><stop offset="0" style="stop-color:#09005d"/><stop offset="1" style="stop-color:#1a0f91"/></linearGradient><path d="M820.548 2462.268c-43.747 249.253 3.087 617.11 19.378 689.177.997 4.413 4.518 7.819 8.973 8.601 7.566 1.328 20.033 2.472 32.367-.983a10.274 10.274 0 0 0 7.478-9.393c2.833-58.111 2.138-415.028 42.027-555.7a32.036 32.036 0 0 1 12.526-17.557l75.318-52.469 6.556-85.913-204.623 24.237z" style="fill:url(#O)"/><linearGradient id="P" x1="6386.3" x2="7085.879" y1="-11415.796" y2="-12322.531" gradientTransform="matrix(-1 0 0 1 -3125.47 0)" gradientUnits="userSpaceOnUse"><stop offset="0" style="stop-color:#fe7062"/><stop offset="1" style="stop-color:#ff928e"/></linearGradient><path d="M1088.648 1991.749c-123.947-3.231-261.06 30.063-261.06 30.063-39.009 215.259-10.891 464.245-10.891 464.245 95.732 26.083 204.38-13.439 204.38-13.439 16.811-89.969 93.655-342.889 93.655-342.889 60.641-6.939 110.704-23.938 152.015-46.649-30.996-36.63-45.331-83-51.487-110.389-43.962 13.201-88.383 20.054-126.612 19.058z" style="fill:url(#P)"/><linearGradient id="Q" x1="16902.158" x2="17141.922" y1="1844.68" y2="1844.68" gradientTransform="matrix(1 .0095 -.0095 1 -15669.081 -63.475)" gradientUnits="userSpaceOnUse"><stop offset="0" style="stop-color:#febbba"/><stop offset="1" style="stop-color:#ff928e"/></linearGradient><path d="M1456.564 1812.646c-12.037-14.825-27.516-8.014-27.516-8.014-18.978 76.885-115.227 138.454-213.789 168.057 6.156 27.388 20.491 73.758 51.487 110.389 163.964-90.143 189.818-270.432 189.818-270.432z" style="fill:url(#Q)"/><linearGradient id="R" x1="-6641.778" x2="-6480.894" y1="1803.563" y2="2169.611" gradientTransform="matrix(-1 -.0095 -.0095 1 -5222.355 36.702)" gradientUnits="userSpaceOnUse"><stop offset="0" style="stop-color:#febbba"/><stop offset="1" style="stop-color:#ff928e"/></linearGradient><path d="M1453.573 1816.358c1.236 4.063-13.579 10.091-22.11-6.56-.227-7.943-4.732-42.006.074-48.43 25.599-34.21 75.004-76.93 75.004-76.93 8.202 8.25 1.304 16.21 1.304 16.21l-24.004 24.533c4.886 9.03 10.878 16.672 13.616 27.565 2.073 8.25.673 17.031-3.555 24.48-4.244 7.476-10.029 17.192-15.483 24.786-10.322 14.376-24.846 14.346-24.846 14.346z" style="fill:url(#R)"/><linearGradient id="S" x1="17140.773" x2="17207.904" y1="1682.589" y2="1579.374" gradientTransform="matrix(1 .0095 -.0095 1 -15669.081 -63.475)" gradientUnits="userSpaceOnUse"><stop offset="0" style="stop-color:#febbba"/><stop offset="1" style="stop-color:#ff928e"/></linearGradient><path d="m1473.294 1741.147-21.834 18.154-6.975 18.215 19.107 21.607s6.839-36.209 11.74-44.014c4.9-7.804 2.434-11.624-2.038-13.962z" style="fill:url(#S)"/><linearGradient id="T" x1="6489.627" x2="7189.206" y1="-11336.052" y2="-12242.787" gradientTransform="matrix(-1 0 0 1 -3125.47 0)" gradientUnits="userSpaceOnUse"><stop offset="0" style="stop-color:#fe7062"/><stop offset="1" style="stop-color:#ff928e"/></linearGradient><path d="m873.991 2142.301-46.403-120.489s-116.543 77.57-136.537 177.141c21.864 1.82 61.622 7.891 100.403 27.939 9.012-47.021 82.537-84.591 82.537-84.591z" style="fill:url(#T)"/><linearGradient id="U" x1="16377.506" x2="16680.92" y1="2184.267" y2="2184.267" gradientTransform="matrix(1 .0095 -.0095 1 -15669.081 -63.475)" gradientUnits="userSpaceOnUse"><stop offset="0" style="stop-color:#febbba"/><stop offset="1" style="stop-color:#ff928e"/></linearGradient><path d="M974.103 2256.216s-130.706 72.232-173.974 9.077c-8.982-13.114-11.037-26.081-8.675-38.403-38.781-20.048-78.54-26.119-100.403-27.939-6.028 30.017-3.298 62.03 14.064 94.523 75.497 141.291 285.886-5.041 285.886-5.041l-16.898-32.217z" style="fill:url(#U)"/><linearGradient id="V" x1="16610.496" x2="16730.461" y1="1859.905" y2="1859.905" gradientTransform="matrix(1 .0095 -.0095 1 -15669.081 -63.475)" gradientUnits="userSpaceOnUse"><stop offset="0" style="stop-color:#febbba"/><stop offset="1" style="stop-color:#ff928e"/></linearGradient><path d="m964.04 1889.909-40.533 113.694c-.671 1.883.085 3.983 1.827 4.968 10.695 6.047 49.268 23.6 96.233-5.552 4.893-3.037 8.252-8.034 9.044-13.737l13.715-98.606-80.286-.767z" style="fill:url(#V)"/><linearGradient id="W" x1="6956.273" x2="6911.444" y1="9677.357" y2="9529.5" gradientTransform="rotate(-41.21 -6356.204 13602.377)" gradientUnits="userSpaceOnUse"><stop offset="0" style="stop-color:#febbba"/><stop offset="1" style="stop-color:#ff928e"/></linearGradient><path d="M1050.872 1785.096s42.537 81.947 36.671 114.83c-5.866 32.882-59.525 30.005-106.146 2.809l-31.916-88.351 101.391-29.288z" style="fill:url(#W)"/><linearGradient id="X" x1="6915.832" x2="6953.331" y1="9419.738" y2="9633.62" gradientTransform="rotate(-41.21 -6356.204 13602.377)" gradientUnits="userSpaceOnUse"><stop offset="0" style="stop-color:#09005d"/><stop offset="1" style="stop-color:#1a0f91"/></linearGradient><path d="M983.882 1859.519c1.913-.826 2.638-3.151 1.514-4.905-3.42-5.335-9.822-16.212-11.807-25.701 0 0-7.738-5.061 19.929-11.405 27.668-6.344 68.932-16.208 77.809-39.621 8.654-22.829-12.962-80.651-48.763-35.085-1.362 1.734-3.998 1.748-5.325-.014-5.724-7.6-20.816-23.407-42.068-14.115-19.886 8.697-22.255 23.185-22.053 30.502.06 2.152-1.88 3.807-3.991 3.383-9.993-2.005-34.002-3.874-45.452 20.665-9.43 20.212-3.536 31.761 1.878 37.433a3.35 3.35 0 0 1-1.487 5.549c-6.6 1.952-15.148 7.45-14.446 22.874.973 21.322 24.818 19.672 31.611 18.765 1.113-.148 2.23.244 2.974 1.085 5.755 6.492 31.702 34.074 60.035 37.639 2.453.309 4.38-2.098 3.598-4.444l-11.935-35.799a3.379 3.379 0 0 1 1.865-4.168l6.114-2.638z" style="fill:url(#X)"/><linearGradient id="Y" x1="6910.448" x2="6870.114" y1="9676.667" y2="9543.638" gradientTransform="rotate(-41.21 -6356.204 13602.377)" gradientUnits="userSpaceOnUse"><stop offset="0" style="stop-color:#febbba"/><stop offset="1" style="stop-color:#ff928e"/></linearGradient><path d="M988.768 1864.631s-30.638-21.453-33.062-3.656c-2.422 17.797 27.525 26.075 42.46 19.573l-9.398-15.917z" style="fill:url(#Y)"/><linearGradient id="Z" x1="16473.24" x2="16640.662" y1="2083.589" y2="2781.187" gradientTransform="translate(-15400.792)" gradientUnits="userSpaceOnUse"><stop offset="0" style="stop-color:#09005d"/><stop offset="1" style="stop-color:#1a0f91"/></linearGradient><path d="m947.39 2370.371 71.201-248.65a7.248 7.248 0 0 1 6.132-5.221c12.901-1.505 50.281-5.731 93.441-9.382 51.986-4.398 112.359-7.96 148.435-4.93 5.129.431 8.228 5.856 5.947 10.47-20.515 41.505-104.902 210.337-147.16 265.645a7.294 7.294 0 0 1-5.871 2.882l-165.198-1.537c-4.808-.044-8.25-4.656-6.927-9.277z" style="fill:url(#Z)"/><linearGradient id="aa" x1="16358.516" x2="16453.375" y1="2268.14" y2="2268.14" gradientTransform="translate(-15400.792)" gradientUnits="userSpaceOnUse"><stop offset="0" style="stop-color:#febbba"/><stop offset="1" style="stop-color:#ff928e"/></linearGradient><path d="M964.593 2310.297s-9.919-40.784-5.918-55.253c4.001-14.469 11.753-33.073 37.59-28.939 25.839 4.134 56.317 15.019 56.317 15.019s-1.54 18.847-21.177 12.766l12.178 9.423s-1.741 15.09-18.328 7.028l11.326 12.496s-7.124 12.394-19.327 4.445c-12.203-7.95-18.053 27.926-52.661 23.015z" style="fill:url(#aa)"/><path d="M1113.417 2181.346c0 11.543 9.357 20.9 20.901 20.9 11.543 0 20.9-9.357 20.9-20.9 0-11.544-9.357-20.901-20.9-20.901-11.544 0-20.901 9.357-20.901 20.901zM1025.611 2194.817l-3.257-.962 14.496-49.174c2.248-7.621 8.4-13.35 16.051-14.947 45.846-9.568 170.64-11.586 171.894-11.606l.053 3.396c-1.254.018-125.722 2.033-171.25 11.533-6.427 1.343-11.597 6.165-13.491 12.586l-14.496 49.174z" style="fill:#91b3fa"/></svg>