<?xml version="1.0" encoding="utf-8"?>
<!-- Generator: Adobe Illustrator 27.5.0, SVG Export Plug-In . SVG Version: 6.00 Build 0)  -->
<svg version="1.1" xmlns="http://www.w3.org/2000/svg" xmlns:xlink="http://www.w3.org/1999/xlink" x="0px" y="0px"
	 viewBox="0 0 3710 3710" style="enable-background:new 0 0 3710 3710;" xml:space="preserve">
<g id="Background">
	<g>
		<g>
			<rect style="fill:#FFFFFF;" width="3710" height="3710"/>
		</g>
	</g>
</g>
<g id="Illustration">
	<g>
		<linearGradient id="SVGID_1_" gradientUnits="userSpaceOnUse" x1="3599.0088" y1="4081.1628" x2="1108.2836" y2="987.8385">
			<stop  offset="0" style="stop-color:#DAE3FE"/>
			<stop  offset="1" style="stop-color:#E9EFFD"/>
		</linearGradient>
		<path style="fill:url(#SVGID_1_);" d="M2913.794,2861.268c-57.211,60.229-111.343,99.07-154.113,129.758
			c-502.741,360.723-1097.618,255.574-1224.046,229.895c-186.695-37.919-547.571-111.215-808.478-418.036
			c-394.731-464.196-333.265-1195.522-27.085-1678.281c56.005-88.305,351.84-578.417,953.124-657.016
			c363.89-47.567,788.07,48.37,1095.249,305.725C3393.241,1313.523,3347.339,2404.846,2913.794,2861.268z"/>
		<g>
			<g>
				<g style="opacity:0.3;">
					<path style="fill:#91B3FA;" d="M902.878,2735.948c-0.925,5.741-6.059,9.975-11.992,9.645
						c-12.978-0.718-26.117-2.013-39.052-3.844c-6.294-0.891-10.673-6.713-9.782-13.005c0.012-0.075,0.024-0.148,0.036-0.222
						c0.994-6.172,6.753-10.439,12.971-9.558c12.289,1.741,24.77,2.969,37.097,3.652c6.344,0.35,11.206,5.78,10.853,12.126
						C902.989,2735.15,902.942,2735.552,902.878,2735.948z M804.034,2719.273c-0.072,0.444-0.17,0.89-0.296,1.334
						c-1.74,6.112-8.107,9.657-14.218,7.917c-12.553-3.577-25.078-7.726-37.224-12.332c-5.943-2.253-8.924-8.868-6.683-14.839
						c2.255-5.942,8.9-8.93,14.838-6.678c11.546,4.377,23.444,8.318,35.375,11.715
						C801.493,2708.003,804.949,2713.595,804.034,2719.273z M711.32,2681.249c-0.204,1.265-0.624,2.517-1.275,3.705
						c-3.06,5.569-10.053,7.608-15.624,4.551c-11.419-6.265-22.709-13.107-33.554-20.336c-5.286-3.529-6.708-10.671-3.193-15.957
						c3.524-5.287,10.67-6.717,15.957-3.193c10.298,6.865,21.016,13.36,31.862,19.312
						C709.875,2671.736,712.072,2676.58,711.32,2681.249z M629.419,2623.435c-0.337,2.09-1.254,4.112-2.766,5.81
						c-4.225,4.746-11.499,5.167-16.245,0.943c-9.734-8.67-19.211-17.863-28.167-27.325c-4.36-4.615-4.161-11.895,0.449-16.267
						c4.614-4.367,11.898-4.166,16.267,0.449c8.504,8.987,17.504,17.72,26.758,25.955
						C628.76,2615.715,630.023,2619.684,629.419,2623.435z M562.468,2548.812c-0.472,2.931-2.071,5.678-4.679,7.537
						c-5.174,3.692-12.36,2.488-16.048-2.686c-7.55-10.585-14.755-21.646-21.405-32.869c-3.245-5.464-1.442-12.524,4.028-15.765
						c5.466-3.239,12.523-1.436,15.767,4.031c6.321,10.669,13.169,21.181,20.343,31.241
						C562.305,2542.867,562.933,2545.927,562.468,2548.812z M513.696,2461.242c-0.612,3.796-3.108,7.2-6.916,8.794
						c-5.863,2.454-12.602-0.307-15.059-6.168c-5.03-12.012-9.61-24.393-13.603-36.793c-1.948-6.052,1.377-12.532,7.427-14.48
						c6.045-1.948,12.53,1.377,14.478,7.425c3.797,11.784,8.144,23.544,12.924,34.958
						C513.809,2457.033,514.026,2459.194,513.696,2461.242z M553.709,2040.62c-0.253,1.573-0.838,3.115-1.776,4.528
						c-6.84,10.298-13.322,21.033-19.262,31.908c-3.047,5.576-10.038,7.627-15.611,4.58c-5.578-3.045-7.63-10.036-4.582-15.614
						c6.256-11.452,13.082-22.761,20.283-33.606c3.516-5.295,10.659-6.735,15.951-3.219
						C552.594,2031.775,554.405,2036.302,553.709,2040.62z M485.561,2365.104c-0.759,4.712-4.424,8.641-9.389,9.505
						c-6.263,1.09-12.22-3.102-13.31-9.362c-2.235-12.832-3.937-25.917-5.061-38.893c-0.519-6.332,4.136-11.91,10.47-12.458
						c6.33-0.549,11.907,4.14,12.458,10.472c1.065,12.323,2.683,24.748,4.804,36.933
						C485.755,2362.595,485.759,2363.877,485.561,2365.104z M508.024,2129.838c-0.121,0.75-0.314,1.5-0.593,2.238
						c-4.364,11.575-8.282,23.493-11.656,35.418c-1.732,6.115-8.091,9.67-14.204,7.942c-6.113-1.732-9.7-8.091-7.941-14.204
						c3.551-12.548,7.675-25.089,12.263-37.269c2.242-5.947,8.881-8.952,14.825-6.71
						C505.925,2119.213,508.876,2124.548,508.024,2129.838z M479.607,2265.091c-0.924,5.733-6.044,9.964-11.97,9.646
						c-6.347-0.339-11.214-5.758-10.879-12.105c0.695-12.992,1.961-26.13,3.768-39.046c0.008-0.08,0.022-0.162,0.034-0.242
						c0.993-6.163,6.738-10.428,12.949-9.561c6.296,0.88,10.685,6.693,9.804,12.988c-1.713,12.269-2.913,24.747-3.572,37.092
						C479.715,2264.277,479.672,2264.689,479.607,2265.091z"/>
					<path style="fill:#91B3FA;" d="M604.314,1977.634c-0.36,2.236-1.381,4.392-3.075,6.147c-4.12,4.269-8.216,8.696-12.185,13.156
						c-4.22,4.749-11.496,5.177-16.243,0.955c-4.751-4.221-5.185-11.5-0.952-16.245c4.17-4.693,8.481-9.348,12.815-13.842
						c4.411-4.573,11.698-4.705,16.268-0.295C603.763,1970.23,604.893,1974.04,604.314,1977.634z"/>
				</g>
				<g style="opacity:0.3;">
					<path style="fill:#91B3FA;" d="M927.115,1840.302c-0.883,5.483-5.637,9.668-11.368,9.664
						c-5.931-0.006-11.964,0.112-17.926,0.354c-6.351,0.256-11.706-4.683-11.962-11.032c-0.257-6.376,4.686-11.706,11.033-11.962
						c6.277-0.252,12.63-0.378,18.876-0.374c6.355,0.006,11.501,5.162,11.497,11.517
						C927.264,1839.092,927.211,1839.705,927.115,1840.302z"/>
					<path style="fill:#91B3FA;" d="M1369.578,2359.269c-0.842,5.227-1.776,10.46-2.802,15.696
						c-1.223,6.236-7.268,10.302-13.504,9.081s-10.319-7.301-9.083-13.503c2.366-12.086,4.237-24.24,5.574-36.264
						c0.713-6.32,6.39-10.867,12.705-10.166c6.32,0.702,10.871,6.393,10.168,12.708
						C1371.809,2344.258,1370.78,2351.811,1369.578,2359.269z M1351.055,2433.643c-0.102,0.634-0.26,1.271-0.475,1.901
						c-4.147,12.15-8.857,24.259-13.997,35.989c-2.549,5.819-9.336,8.471-15.153,5.922c-5.821-2.552-8.486-9.352-5.921-15.158
						c4.881-11.141,9.352-22.645,13.297-34.189c2.052-6.013,8.592-9.223,14.603-7.171
						C1348.794,2422.776,1351.93,2428.209,1351.055,2433.643z M1375.133,2276.322c-0.863,5.356-5.434,9.511-11.053,9.66
						c-6.355,0.167-11.638-4.848-11.808-11.201c-0.318-12.152-1.164-24.455-2.517-36.573c-0.694-6.317,3.847-12.007,10.161-12.711
						c6.318-0.703,12.009,3.847,12.712,10.163c1.422,12.76,2.312,25.719,2.65,38.516
						C1375.297,2274.907,1375.245,2275.625,1375.133,2276.322z M1309.086,2522.938c-0.232,1.442-0.748,2.861-1.557,4.183
						c-6.709,10.931-13.968,21.708-21.572,32.028c-3.769,5.115-10.97,6.206-16.085,2.437c-5.12-3.771-6.213-10.969-2.439-16.088
						c7.219-9.8,14.112-20.032,20.483-30.414c3.321-5.417,10.41-7.111,15.824-3.788
						C1307.834,2513.809,1309.805,2518.472,1309.086,2522.938z M1361.638,2178.667c-0.708,4.393-3.946,8.164-8.536,9.328
						c-6.16,1.562-12.421-2.167-13.982-8.328c-2.983-11.777-6.515-23.594-10.494-35.122c-2.074-6.007,1.113-12.559,7.124-14.631
						c6.006-2.072,12.553,1.116,14.627,7.122c4.191,12.136,7.909,24.577,11.052,36.978
						C1361.825,2175.583,1361.88,2177.163,1361.638,2178.667z M1327.04,2086.336c-0.566,3.512-2.748,6.714-6.163,8.445
						c-5.67,2.869-12.594,0.6-15.463-5.07c-5.505-10.873-11.533-21.641-17.912-32.004c-3.34-5.407-1.657-12.493,3.761-15.831
						c5.413-3.332,12.498-1.647,15.833,3.764c6.715,10.906,13.057,22.237,18.848,33.679
						C1327.084,2081.57,1327.413,2084.02,1327.04,2086.336z M1273.136,2003.744c-0.43,2.671-1.798,5.2-4.054,7.054
						c-4.907,4.035-12.159,3.327-16.194-1.582c-7.746-9.424-15.97-18.622-24.454-27.342c-4.429-4.553-4.335-11.834,0.226-16.271
						c4.556-4.429,11.838-4.33,16.271,0.226c8.924,9.177,17.585,18.858,25.734,28.773
						C1272.847,1997.258,1273.643,2000.598,1273.136,2003.744z M1202.508,1934.879c-0.298,1.851-1.053,3.652-2.287,5.236
						c-3.907,5.011-11.135,5.905-16.146,1.997c-9.613-7.499-19.653-14.668-29.846-21.313c-5.323-3.471-6.823-10.607-3.358-15.922
						c3.471-5.325,10.601-6.826,15.923-3.355c10.736,6.999,21.311,14.55,31.43,22.443
						C1201.654,1926.641,1203.154,1930.87,1202.508,1934.879z M1118.452,1883.178c-0.168,1.041-0.484,2.075-0.956,3.076
						c-2.706,5.748-9.563,8.215-15.309,5.507c-11.002-5.18-22.369-9.959-33.795-14.203c-5.958-2.214-8.981-8.854-6.777-14.793
						c2.212-5.958,8.838-8.992,14.795-6.778c12.027,4.469,23.996,9.499,35.577,14.955
						C1116.735,1873.178,1119.247,1878.244,1118.452,1883.178z M1025.155,1851.229c-0.038,0.233-0.084,0.467-0.136,0.7
						c-1.39,6.2-7.545,10.1-13.744,8.708c-8.753-1.964-17.668-3.679-26.507-5.103c-3.199-0.515-6.4-0.992-9.593-1.436
						c-6.296-0.875-10.691-6.687-9.814-12.98c0.761-6.39,6.684-10.687,12.976-9.815c3.362,0.467,6.723,0.969,10.091,1.512
						c9.296,1.498,18.679,3.305,27.884,5.37C1022.279,1839.521,1026.115,1845.272,1025.155,1851.229z"/>
					<path style="fill:#91B3FA;" d="M1248.286,2600.991c-0.364,2.259-1.401,4.429-3.114,6.191
						c-4.347,4.462-8.871,8.917-13.446,13.24c-4.619,4.366-11.901,4.161-16.265-0.458c-4.364-4.62-4.166-11.898,0.458-16.265
						c4.345-4.107,8.641-8.339,12.77-12.574c4.43-4.551,11.716-4.648,16.269-0.213
						C1247.747,2593.63,1248.862,2597.419,1248.286,2600.991z"/>
				</g>
				<g>
					<g>
						<path style="fill:#91B3FA;" d="M1118.995,2564.436c1.985-1.149,3.024-3.432,2.584-5.684l-12.533-64.242
							c22.265-20.943,41.352-45.586,56.177-73.329l65.244-4.666c2.289-0.163,4.221-1.761,4.813-3.978l20.235-75.858
							c0.591-2.218-0.29-4.565-2.191-5.846l-54.253-36.541c0.961-31.442-3.314-62.317-12.192-91.566l42.864-49.466
							c1.502-1.734,1.739-4.23,0.59-6.215l-39.331-67.948c-1.15-1.987-3.433-3.024-5.684-2.584l-64.241,12.532
							c-20.942-22.265-45.587-41.351-73.33-56.177l-4.666-65.245c-0.163-2.288-1.76-4.22-3.977-4.812l-75.859-20.235
							c-2.216-0.592-4.565,0.289-5.846,2.192l-36.541,54.253c-31.442-0.962-62.317,3.313-91.566,12.191l-49.466-42.865
							c-1.733-1.501-4.23-1.739-6.215-0.59l-67.947,39.332c-1.987,1.149-3.024,3.432-2.585,5.684l12.533,64.242
							c-22.266,20.941-41.352,45.586-56.177,73.329l-65.246,4.665c-2.288,0.164-4.221,1.76-4.813,3.977l-20.234,75.859
							c-0.592,2.217,0.288,4.564,2.192,5.846l54.253,36.541c-0.963,31.442,3.314,62.318,12.192,91.567l-42.864,49.465
							c-1.503,1.733-1.74,4.231-0.591,6.216l39.332,67.948c1.149,1.985,3.432,3.023,5.684,2.584l64.241-12.532
							c20.942,22.265,45.587,41.351,73.33,56.177l4.665,65.245c0.163,2.287,1.761,4.221,3.979,4.811l75.857,20.235
							c2.217,0.591,4.565-0.288,5.847-2.191l36.541-54.253c31.441,0.961,62.316-3.315,91.566-12.191l49.466,42.863
							c1.734,1.503,4.229,1.74,6.216,0.591L1118.995,2564.436z"/>
					</g>
					<g>
						<path style="fill:#BDD0FB;" d="M990.239,2298.367c-6.118,37.979-39.38,66.835-78.965,66.306
							c-43.514-0.584-78.435-36.457-77.854-79.967c0.277-21.081,8.756-40.787,23.858-55.487
							c15.102-14.705,35.029-22.649,56.107-22.365c43.515,0.584,78.435,36.457,77.854,79.967
							C991.185,2290.744,990.845,2294.602,990.239,2298.367z M852.602,2276.012c-0.472,2.933-0.734,5.916-0.776,8.941
							c-0.448,33.359,26.333,60.864,59.69,61.313c33.362,0.447,60.878-26.322,61.315-59.692
							c0.448-33.359-26.333-60.864-59.69-61.312c-16.164-0.216-31.439,5.873-43.021,17.147
							C860.71,2251.573,854.654,2263.274,852.602,2276.012z"/>
					</g>
					<path style="fill:#BDD0FB;" d="M1103.027,2314.903c-1.051,6.523-2.436,13.031-4.161,19.502l0,0
						c-0.542,2.037-1.119,4.065-1.727,6.084c-3.001,9.953-6.79,19.652-11.305,28.947c-0.062,0.126-0.123,0.253-0.184,0.38
						c-0.176,0.359-0.352,0.717-0.533,1.075c-0.344,0.698-0.698,1.392-1.05,2.084c-0.931,1.821-2.907,2.757-4.824,2.45
						c-0.466-0.075-0.929-0.225-1.371-0.45c-2.263-1.157-3.15-3.931-1.998-6.193c5.959-11.643,10.701-24.007,14.096-36.749
						c16.892-63.284-1.34-127.806-42.656-172.814c-22.977-25.037-53.1-44.035-88.299-53.422c-6.172-1.648-12.382-2.971-18.604-3.971
						c-41.871-6.741-84.433,1.059-121.632,22.594c-42.731,24.733-73.273,64.628-85.997,112.331
						c-26.27,98.523,32.481,199.969,130.955,226.236c6.072,1.62,12.203,2.926,18.367,3.917c26.71,4.298,54.063,2.705,80.091-4.763
						c0.673-0.192,1.352-0.226,2-0.12c1.704,0.274,3.186,1.503,3.692,3.274c0.694,2.447-0.704,4.994-3.157,5.694
						c-27.326,7.84-56.045,9.516-84.086,5.003c-6.47-1.04-12.905-2.411-19.278-4.109
						c-103.389-27.577-165.047-134.152-137.48-237.503c13.358-50.082,45.422-91.96,90.281-117.926
						c39.052-22.608,83.734-30.795,127.691-23.721c6.532,1.052,13.05,2.442,19.528,4.168c50.083,13.361,91.964,45.422,117.93,90.28
						C1101.927,2226.242,1110.11,2270.937,1103.027,2314.903z"/>
				</g>
			</g>
			<g>
				<g style="opacity:0.3;">
					<path style="fill:#91B3FA;" d="M1139.791,3171.83c-0.489,3.035-2.919,5.512-6.126,5.916
						c-5.985,0.758-12.076,1.344-18.101,1.741c-3.915,0.258-7.297-2.704-7.559-6.624c-0.275-3.921,2.708-7.3,6.624-7.559
						c5.741-0.379,11.546-0.937,17.258-1.659c3.89-0.494,7.445,2.265,7.943,6.158
						C1139.914,3170.497,1139.896,3171.175,1139.791,3171.83z"/>
					<path style="fill:#91B3FA;" d="M1085.154,3173.681c-0.573,3.556-3.757,6.171-7.426,5.956
						c-10.371-0.602-20.829-1.745-31.079-3.396c-2.158-0.348-4.319-0.721-6.484-1.115c-3.864-0.71-6.24-4.594-5.718-8.271
						c0.706-3.861,4.408-6.417,8.267-5.715c2.069,0.379,4.135,0.737,6.197,1.069c9.778,1.575,19.752,2.665,29.641,3.242
						c3.921,0.227,6.909,3.587,6.685,7.505C1085.217,3173.203,1085.192,3173.445,1085.154,3173.681z M1012.568,3160.406
						c-0.053,0.332-0.128,0.668-0.23,0.996c-1.173,3.748-5.158,5.837-8.906,4.667c-12.022-3.75-23.917-8.282-35.348-13.466
						c-3.577-1.62-5.146-5.848-3.539-9.407c1.624-3.577,5.829-5.159,9.406-3.539c10.908,4.945,22.254,9.265,33.718,12.845
						C1011.083,3153.57,1013.121,3156.974,1012.568,3160.406z M945.37,3129.926c-0.143,0.89-0.461,1.767-0.958,2.584
						c-2.051,3.346-6.43,4.391-9.776,2.34c-10.715-6.576-21.142-13.894-30.975-21.755c-3.071-2.453-3.568-6.912-1.112-9.989
						c2.448-3.064,6.922-3.563,9.986-1.115c9.379,7.496,19.313,14.474,29.536,20.743
						C944.598,3124.287,945.814,3127.168,945.37,3129.926z M887.719,3083.856c-0.234,1.453-0.922,2.843-2.049,3.951
						c-2.81,2.739-7.314,2.685-10.053-0.125c-8.796-9.02-17.105-18.66-24.702-28.664c-2.371-3.127-1.752-7.586,1.365-9.956
						c3.124-2.375,7.581-1.766,9.959,1.362c7.237,9.535,15.168,18.735,23.553,27.333
						C887.426,3079.433,888.065,3081.708,887.719,3083.856z M843.069,3025.105c-0.327,2.028-1.528,3.901-3.444,5.017
						c-3.389,1.973-7.738,0.823-9.716-2.567c-6.325-10.875-12.044-22.241-16.988-33.787c-1.555-3.611,0.123-7.787,3.732-9.332
						c3.609-1.545,7.789,0.127,9.331,3.732c4.721,11.017,10.172,21.859,16.213,32.234
						C843.055,3021.88,843.322,3023.54,843.069,3025.105z M814.036,2957.306c-0.423,2.627-2.317,4.909-5.045,5.7
						c-3.768,1.09-7.705-1.084-8.799-4.852c-3.494-12.084-6.267-24.503-8.234-36.903c-0.604-3.889,2.034-7.517,5.908-8.134
						c3.874-0.616,7.518,2.03,8.131,5.904c1.877,11.827,4.518,23.661,7.85,35.182
						C814.15,2955.247,814.198,2956.302,814.036,2957.306z M802.464,2884.486c-0.53,3.288-3.325,5.851-6.774,5.966
						c-3.923,0.131-7.209-2.943-7.343-6.866c-0.421-12.532-0.058-25.253,1.073-37.815c0.419-3.911,3.815-6.794,7.722-6.439
						c3.908,0.352,6.789,3.807,6.44,7.715c-1.087,11.983-1.431,24.116-1.029,36.064
						C802.568,2883.581,802.535,2884.04,802.464,2884.486z M819.122,2775.409c-0.065,0.404-0.166,0.813-0.308,1.216
						c-3.411,9.784-6.346,19.926-8.723,30.147c-0.369,1.546-0.713,3.069-1.036,4.592c-0.829,3.839-4.604,6.281-8.442,5.456
						c-3.847-0.821-6.393-4.647-5.459-8.44c0.353-1.623,0.712-3.242,1.099-4.863c2.487-10.678,5.563-21.311,9.142-31.57
						c1.293-3.708,5.341-5.663,9.048-4.37C817.745,2768.727,819.66,2772.069,819.122,2775.409z"/>
				</g>
				<g style="opacity:0.3;">
					<path style="fill:#91B3FA;" d="M1398.856,2917.845c-0.617,3.83-4.205,6.465-8.057,5.896c-3.88-0.572-6.566-4.186-5.99-8.068
						c1.728-11.689,2.758-23.583,3.059-35.351c0.135-3.897,3.36-7.026,7.287-6.924c3.927,0.102,7.022,3.366,6.924,7.287
						c-0.322,12.341-1.396,24.811-3.208,37.063C1398.867,2917.78,1398.861,2917.814,1398.856,2917.845z M1391.388,2953.427
						c-0.041,0.254-0.095,0.501-0.164,0.754c-3.258,11.935-7.277,23.793-11.941,35.245c-1.485,3.634-5.626,5.381-9.26,3.9
						c-3.642-1.479-5.368-5.645-3.907-9.261c4.453-10.927,8.286-22.242,11.4-33.631c1.031-3.785,4.941-6.016,8.725-4.981
						C1389.782,2946.42,1391.957,2949.892,1391.388,2953.427z M1400.701,2845.305c-0.501,3.111-3.042,5.618-6.328,5.94
						c-3.899,0.381-7.376-2.475-7.759-6.382c-1.155-11.767-3.03-23.559-5.586-35.056c-0.836-3.842,1.566-7.628,5.401-8.475
						c3.828-0.853,7.628,1.566,8.48,5.397c2.677,12.052,4.643,24.417,5.847,36.75
						C1400.817,2844.104,1400.796,2844.716,1400.701,2845.305z M1363.954,3020.65c-0.129,0.798-0.396,1.587-0.812,2.336
						c-6.036,10.809-12.803,21.354-20.113,31.335c-2.317,3.169-6.765,3.855-9.934,1.538c-3.156-2.315-3.845-6.763-1.535-9.93
						c6.967-9.521,13.415-19.571,19.174-29.876c1.915-3.424,6.246-4.652,9.671-2.737
						C1363.081,3014.812,1364.415,3017.786,1363.954,3020.65z M1384.955,2774.476c-0.4,2.484-2.11,4.679-4.645,5.575
						c-3.705,1.312-7.764-0.628-9.074-4.326c-3.931-11.118-8.585-22.11-13.843-32.675c-1.753-3.519-0.314-7.783,3.202-9.529
						c3.515-1.747,7.783-0.314,9.53,3.201c5.505,11.079,10.389,22.604,14.515,34.26
						C1385.051,2772.144,1385.138,2773.343,1384.955,2774.476z M1352.678,2709.49c-0.306,1.901-1.379,3.669-3.109,4.81
						c-3.279,2.157-7.688,1.25-9.844-2.029c-6.501-9.876-13.655-19.443-21.261-28.433c-2.539-3-2.161-7.487,0.833-10.017
						c2.996-2.537,7.476-2.162,10.01,0.832c7.978,9.426,15.48,19.453,22.291,29.802
						C1352.614,2706,1352.951,2707.798,1352.678,2709.49z M1305.758,2654.102c-0.215,1.336-0.809,2.625-1.803,3.692
						c-2.665,2.882-7.163,3.053-10.044,0.386c-8.666-8.036-17.908-15.605-27.461-22.497c-3.173-2.296-3.898-6.74-1.6-9.92
						c2.298-3.183,6.737-3.902,9.923-1.603c10.013,7.23,19.707,15.167,28.803,23.592
						C1305.386,2649.431,1306.123,2651.834,1305.758,2654.102z"/>
					<path style="fill:#91B3FA;" d="M1320.867,3079.491c-0.218,1.354-0.829,2.657-1.839,3.732
						c-4.166,4.433-8.483,8.759-12.828,12.868c-2.853,2.693-7.352,2.569-10.049-0.283c-2.682-2.854-2.563-7.348,0.284-10.049
						c4.146-3.915,8.263-8.046,12.24-12.273c2.689-2.86,7.189-2.996,10.045-0.308
						C1320.503,3074.856,1321.229,3077.24,1320.867,3079.491z"/>
				</g>
				<g>
					<g>
						<path style="fill:#91B3FA;" d="M1231.168,3059.057c1.328-0.769,2.023-2.296,1.729-3.803l-8.386-42.988
							c14.898-14.013,27.671-30.504,37.591-49.068l43.658-3.122c1.531-0.109,2.824-1.178,3.22-2.661l13.541-50.76
							c0.395-1.484-0.194-3.054-1.467-3.912l-36.304-24.451c0.643-21.04-2.217-41.7-8.158-61.272l28.683-33.1
							c1.005-1.16,1.164-2.831,0.394-4.16l-26.319-45.467c-0.77-1.329-2.297-2.023-3.804-1.729l-42.987,8.386
							c-14.013-14.899-30.504-27.671-49.069-37.592l-3.121-43.659c-0.11-1.531-1.178-2.824-2.661-3.22l-50.761-13.54
							c-1.484-0.396-3.055,0.193-3.912,1.467l-24.452,36.304c-21.04-0.644-41.7,2.217-61.272,8.158l-33.101-28.683
							c-1.16-1.005-2.83-1.164-4.158-0.395l-45.468,26.319c-1.329,0.768-2.023,2.296-1.729,3.803l8.387,42.988
							c-14.9,14.013-27.671,30.504-37.591,49.069l-43.659,3.122c-1.531,0.11-2.824,1.178-3.22,2.661l-13.54,50.761
							c-0.396,1.483,0.193,3.054,1.467,3.912l36.304,24.451c-0.644,21.04,2.217,41.701,8.158,61.273l-28.682,33.099
							c-1.006,1.16-1.164,2.832-0.395,4.16l26.319,45.467c0.769,1.328,2.296,2.023,3.804,1.729l42.987-8.385
							c14.013,14.899,30.505,27.67,49.069,37.591l3.121,43.659c0.109,1.53,1.178,2.824,2.662,3.219l50.76,13.541
							c1.484,0.395,3.054-0.193,3.912-1.467l24.452-36.303c21.039,0.643,41.699-2.218,61.271-8.157l33.1,28.682
							c1.16,1.005,2.83,1.164,4.16,0.395L1231.168,3059.057z"/>
					</g>
					<g>
						<path style="fill:#BDD0FB;" d="M1145.938,2881.245c-1.823,11.318-7.202,21.714-15.565,29.856
							c-10.288,10.015-23.862,15.424-38.22,15.23c-29.629-0.394-53.418-24.826-53.029-54.466
							c0.45-29.677,24.839-53.431,54.474-53.032c14.359,0.191,27.783,5.963,37.795,16.25c10.019,10.288,15.431,23.863,15.233,38.224
							C1146.588,2875.989,1146.357,2878.644,1145.938,2881.245z M1053.837,2866.27c-0.304,1.888-0.474,3.818-0.503,5.785
							c-0.286,21.802,17.212,39.773,39.013,40.065c10.557,0.14,20.547-3.835,28.109-11.203c7.57-7.371,11.804-17.244,11.959-27.805
							l0,0c0.141-10.56-3.839-20.548-11.204-28.113c-7.371-7.57-17.245-11.815-27.809-11.956
							C1073.573,2832.776,1056.903,2847.239,1053.837,2866.27z"/>
					</g>
					<path style="fill:#BDD0FB;" d="M1224.429,2892.856c-0.715,4.44-1.663,8.878-2.841,13.313
						c-2.347,8.806-5.591,17.383-9.656,25.511c-0.185,0.364-0.371,0.728-0.556,1.092c-1.437,2.813-4.489,4.257-7.449,3.784
						c-0.719-0.116-1.434-0.347-2.116-0.696c-3.494-1.787-4.857-6.069-3.085-9.562c3.867-7.553,6.935-15.557,9.126-23.787
						l0.001-0.004c0.122-0.451,0.237-0.907,0.352-1.356c5.009-19.526,4.96-39.561,0.155-58.602
						c-2.609-10.335-6.629-20.381-12.02-29.893c-0.044-0.078-0.087-0.154-0.131-0.232c-0.138-0.237-0.269-0.472-0.407-0.706
						c-16.014-27.661-41.839-47.434-72.722-55.671c-3.996-1.069-8.013-1.924-12.042-2.573c-27.106-4.363-54.66,0.688-78.747,14.627
						c-27.661,16.014-47.428,41.841-55.664,72.72c-8.22,30.864-3.955,63.125,12.052,90.789
						c16.014,27.661,41.839,47.434,72.722,55.671c3.929,1.051,7.899,1.894,11.886,2.537c17.295,2.782,35,1.751,51.848-3.084
						c1.039-0.297,2.088-0.35,3.088-0.185c2.631,0.424,4.92,2.321,5.702,5.055c1.072,3.775-1.094,7.708-4.875,8.793
						c-18.853,5.408-38.666,6.564-58.009,3.456c-4.467-0.72-8.906-1.663-13.301-2.835c-34.555-9.219-63.448-31.338-81.363-62.29
						c-17.91-30.947-22.73-67.005-13.485-101.567c9.214-34.552,31.331-63.445,62.285-81.357
						c26.941-15.599,57.769-21.248,88.095-16.365c4.502,0.725,9.001,1.682,13.469,2.873
						C1193.632,2760.16,1235.212,2825.921,1224.429,2892.856z"/>
				</g>
			</g>
		</g>
		<g>
			<g>
				
					<linearGradient id="SVGID_00000065793960554764857780000015633001936326649746_" gradientUnits="userSpaceOnUse" x1="1387.0836" y1="1815.2336" x2="3131.6128" y2="1815.2336">
					<stop  offset="0" style="stop-color:#09005D"/>
					<stop  offset="1" style="stop-color:#1A0F91"/>
				</linearGradient>
				<path style="fill:url(#SVGID_00000065793960554764857780000015633001936326649746_);" d="M1415.619,593.71
					c-9.185,433.431-38.972,1928.492-24.753,2458.296c1.507,56.127,39.968,101.176,87.946,103.013
					c237.292,9.084,1107.192,32.109,1495.322,13.06c80.841-3.968,145.129-80.573,146.807-175.208
					c8.067-454.94,25.86-1734.512-16.434-2320.685c-5.069-70.231-52.189-126.16-112.138-133.177
					c-258.423-30.243-1132.063-104.17-1467.385-78.713C1464.509,464.887,1417.121,522.836,1415.619,593.71z"/>
				<path style="fill:#91B3FA;" d="M1521.499,726.689c-12.772,349.843-53.061,1513.685-40.274,1944.048
					c1.869,62.904,44.248,113.766,97.959,117.445c221.145,15.139,975.636,48.52,1300.001,18.135
					c58.406-5.471,104.24-60.73,107.392-129.178c16.438-356.911,63.633-1440.611,51.377-1866.154
					c-1.957-67.885-46.906-123.326-104.737-129.399c-239.243-25.13-1040.976-84.922-1316.611-67.328
					C1564.865,617.56,1523.709,666.123,1521.499,726.689z"/>
				<path style="opacity:0.33;fill:#FFFFFF;" d="M1583.447,795.594c-11.682,325.43-48.53,1408.057-36.835,1808.388
					c1.71,58.515,40.47,105.827,89.595,109.249c202.263,14.083,892.334,45.134,1189.004,16.869
					c53.419-5.089,95.34-56.492,98.223-120.164c15.034-332.005,58.2-1340.082,46.99-1735.929
					c-1.79-63.148-42.901-114.72-95.794-120.37c-218.816-23.376-952.095-78.995-1204.195-62.63
					C1623.11,694.081,1585.469,739.255,1583.447,795.594z"/>
				
					<linearGradient id="SVGID_00000022541260945270655860000012879755877691869599_" gradientUnits="userSpaceOnUse" x1="2002.063" y1="544.6596" x2="2329.3579" y2="544.6596">
					<stop  offset="0" style="stop-color:#4F52FF"/>
					<stop  offset="1" style="stop-color:#4042E2"/>
				</linearGradient>
				<path style="opacity:0.66;fill:url(#SVGID_00000022541260945270655860000012879755877691869599_);" d="M2002.063,536.031
					L2002.063,536.031c0,13.299,8.859,24.268,20.212,24.963c56.047,3.434,213.933,13.149,284.494,17.938
					c13.913,0.945,24.833-13.685,22.193-29.693l-0.45-2.732c-1.802-10.923-9.545-19.144-19.014-20.159
					c-47.697-5.114-191.616-19.29-286.972-15.309C2011.073,511.519,2002.063,522.622,2002.063,536.031z"/>
			</g>
			<g>
				<path style="opacity:0.54;fill:#FFFFFF;" d="M2609.347,2399.934h-687.878c-7.041,0-12.749-5.708-12.749-12.75V2201.13
					c0-7.041,5.708-12.75,12.749-12.75h687.878c7.041,0,12.749,5.708,12.749,12.75v186.054
					C2622.097,2394.226,2616.389,2399.934,2609.347,2399.934z"/>
				<path style="opacity:0.54;fill:#FFFFFF;" d="M2612.627,2559.829h-687.878c-7.041,0-12.749-5.708-12.749-12.749v-80.278
					c0-7.041,5.708-12.749,12.749-12.749h687.878c7.041,0,12.749,5.708,12.749,12.749v80.278
					C2625.377,2554.121,2619.669,2559.829,2612.627,2559.829z"/>
			</g>
		</g>
		<g>
			
				<linearGradient id="SVGID_00000123430176212093763330000001132400091809076118_" gradientUnits="userSpaceOnUse" x1="2903.7014" y1="2130.4329" x2="3210.7659" y2="1774.0192" gradientTransform="matrix(0.9997 -0.0214 0.0214 0.9997 -1063.6167 74.5589)">
				<stop  offset="0" style="stop-color:#FF928E"/>
				<stop  offset="1" style="stop-color:#FE7062"/>
			</linearGradient>
			
				<circle style="fill:url(#SVGID_00000123430176212093763330000001132400091809076118_);" cx="2190.196" cy="1772.006" r="228.911"/>
			
				<linearGradient id="SVGID_00000002345000461264683940000003129757824059307414_" gradientUnits="userSpaceOnUse" x1="3384.2773" y1="1514.0642" x2="2476.28" y2="2885.7891" gradientTransform="matrix(0.9997 -0.0214 0.0214 0.9997 -1063.6167 74.5589)">
				<stop  offset="0" style="stop-color:#FF928E"/>
				<stop  offset="1" style="stop-color:#FE7062"/>
			</linearGradient>
			<circle style="fill:url(#SVGID_00000002345000461264683940000003129757824059307414_);" cx="2190.197" cy="1772.006" r="221.3"/>
			<path style="opacity:0.7;fill:#FFFFFF;" d="M2005.939,1691.407c-1.12,0.024-2.264-0.205-3.344-0.723
				c-3.689-1.764-5.247-6.184-3.483-9.865c34.702-72.577,106.183-118.724,186.549-120.446c12.826-0.275,25.693,0.606,38.247,2.614
				c4.033,0.644,6.781,4.438,6.138,8.472c-0.644,4.04-4.419,6.817-8.478,6.137c-11.675-1.86-23.649-2.681-35.589-2.426
				c-74.749,1.601-141.235,44.526-173.516,112.027C2011.218,1689.804,2008.645,1691.349,2005.939,1691.407z"/>
			
				<ellipse transform="matrix(0.7071 -0.7071 0.7071 0.7071 -613.3975 2072.5747)" style="opacity:0.78;fill:#FFFFFF;" cx="2195.12" cy="1776.724" rx="187.304" ry="187.303"/>
			<g>
				
					<linearGradient id="SVGID_00000130625892393751023960000013015793265066063528_" gradientUnits="userSpaceOnUse" x1="2581.6382" y1="1138.5776" x2="2378.4753" y2="1478.8761">
					<stop  offset="0" style="stop-color:#FF928E"/>
					<stop  offset="1" style="stop-color:#FE7062"/>
				</linearGradient>
				<path style="fill:url(#SVGID_00000130625892393751023960000013015793265066063528_);" d="M2179.726,1916.328l-0.436-20.372
					c-21.256-0.395-42.371-4.958-57.43-11.171c-5.377-2.217-8.221-8.139-6.812-13.781l4.769-19.089
					c1.75-7.002,9.243-10.765,15.958-8.118c14.934,5.888,33.312,10.404,53.018,9.982c20.456-0.438,35.563-7.699,35.258-21.916
					c-0.274-12.827-12.226-20.201-40.82-27.22c-40.802-10.226-70.306-27.285-71.071-62.997c-0.691-32.245,22.36-57.367,63.131-64.83
					l-0.437-20.375c-0.14-6.556,5.06-11.985,11.616-12.125l11.97-0.256c6.555-0.14,11.984,5.061,12.124,11.617l0.392,18.293
					c19.669,0.365,34.047,3.42,45.485,7.166c5.861,1.919,9.173,8.117,7.687,14.102l-4.384,17.652
					c-1.691,6.807-8.844,10.669-15.456,8.329c-10.537-3.729-25.404-7.528-44.612-7.117c-24.271,0.52-30.989,10.723-30.796,19.738
					c0.238,11.094,14.962,18.41,46.722,27.443c45.363,12.556,64.486,30.877,65.206,64.509c0.661,30.858-21.628,59.086-65.859,66.97
					l0.489,22.8c0.14,6.556-5.06,11.984-11.616,12.124l-11.971,0.257C2185.295,1928.085,2179.866,1922.885,2179.726,1916.328z"/>
			</g>
		</g>
		<g>
			
				<linearGradient id="SVGID_00000143592632008633436390000008957360138180530307_" gradientUnits="userSpaceOnUse" x1="3107.0203" y1="1953.7598" x2="3498.9238" y2="1498.8724" gradientTransform="matrix(0.9997 -0.0214 0.0214 0.9997 -1063.6167 74.5589)">
				<stop  offset="0" style="stop-color:#FF928E"/>
				<stop  offset="1" style="stop-color:#FE7062"/>
			</linearGradient>
			<circle style="fill:url(#SVGID_00000143592632008633436390000008957360138180530307_);" cx="2474.05" cy="1488.75" r="292.158"/>
			
				<linearGradient id="SVGID_00000109747149422836881630000012468358005588795017_" gradientUnits="userSpaceOnUse" x1="3720.3743" y1="1167.0942" x2="2561.5063" y2="2917.8135" gradientTransform="matrix(0.9997 -0.0214 0.0214 0.9997 -1063.6167 74.5589)">
				<stop  offset="0" style="stop-color:#FF928E"/>
				<stop  offset="1" style="stop-color:#FE7062"/>
			</linearGradient>
			<circle style="fill:url(#SVGID_00000109747149422836881630000012468358005588795017_);" cx="2474.05" cy="1488.75" r="282.443"/>
			<path style="opacity:0.7;fill:#FFFFFF;" d="M2238.838,1383.632c-1.088,0.023-2.2-0.199-3.252-0.703
				c-3.586-1.717-5.102-6.014-3.386-9.594c43.922-91.855,134.397-150.27,236.112-152.448c16.21-0.347,32.497,0.766,48.411,3.314
				c3.921,0.626,6.595,4.316,5.968,8.238c-0.63,3.922-4.286,6.65-8.244,5.969c-15.06-2.405-30.478-3.46-45.827-3.131
				c-96.251,2.062-181.869,57.342-223.436,144.261C2243.971,1382.074,2241.469,1383.575,2238.838,1383.632z"/>
			
				<ellipse transform="matrix(0.7071 -0.7071 0.7071 0.7071 -330.4894 2191.6697)" style="opacity:0.78;fill:#FFFFFF;" cx="2480.335" cy="1494.771" rx="239.053" ry="239.053"/>
			<g>
				
					<linearGradient id="SVGID_00000153691326236631331190000016507165506136002462_" gradientUnits="userSpaceOnUse" x1="2620.0203" y1="2956.9341" x2="3011.1282" y2="2322.0195" gradientTransform="matrix(0.9997 -0.0214 0.0214 0.9997 -1063.6167 74.5589)">
					<stop  offset="0" style="stop-color:#FF928E"/>
					<stop  offset="1" style="stop-color:#FE7062"/>
				</linearGradient>
				<path style="fill:url(#SVGID_00000153691326236631331190000016507165506136002462_);" d="M2460.687,1672.948l-0.557-26.002
					c-27.13-0.505-54.078-6.328-73.299-14.256c-6.863-2.83-10.492-10.388-8.693-17.59l6.086-24.361
					c2.234-8.936,11.798-13.739,20.367-10.362c19.06,7.515,42.518,13.28,67.667,12.742c26.107-0.559,45.388-9.828,44.999-27.972
					c-0.35-16.371-15.603-25.784-52.098-34.741c-52.076-13.052-89.731-34.824-90.707-80.402
					c-0.881-41.155,28.537-73.217,80.573-82.74l-0.557-26.005c-0.179-8.368,6.458-15.296,14.825-15.476l15.277-0.328
					c8.368-0.179,15.297,6.459,15.476,14.827l0.5,23.347c25.103,0.467,43.453,4.365,58.051,9.147
					c7.479,2.449,11.707,10.359,9.811,17.997l-5.595,22.53c-2.157,8.687-11.287,13.617-19.727,10.63
					c-13.449-4.759-32.422-9.607-56.938-9.082c-30.976,0.664-39.55,13.684-39.304,25.191c0.303,14.16,19.096,23.497,59.63,35.025
					c57.896,16.026,82.302,39.408,83.222,82.332c0.844,39.384-27.603,75.41-84.055,85.474l0.624,29.099
					c0.179,8.367-6.458,15.296-14.826,15.475l-15.279,0.328C2467.794,1687.953,2460.866,1681.314,2460.687,1672.948z"/>
			</g>
		</g>
		<g>
			
				<linearGradient id="SVGID_00000101073333150120522430000017678948427194622608_" gradientUnits="userSpaceOnUse" x1="3379.3816" y1="1711.2756" x2="3901.2158" y2="1105.576" gradientTransform="matrix(0.9997 -0.0214 0.0214 0.9997 -1063.6167 74.5589)">
				<stop  offset="0" style="stop-color:#FF928E"/>
				<stop  offset="1" style="stop-color:#FE7062"/>
			</linearGradient>
			
				<circle style="fill:url(#SVGID_00000101073333150120522430000017678948427194622608_);" cx="2870.364" cy="1083.86" r="389.019"/>
			
				<linearGradient id="SVGID_00000036972807246108061680000015408727047980950951_" gradientUnits="userSpaceOnUse" x1="4196.0859" y1="663.8002" x2="2653.0085" y2="2994.9504" gradientTransform="matrix(0.9997 -0.0214 0.0214 0.9997 -1063.6167 74.5589)">
				<stop  offset="0" style="stop-color:#FF928E"/>
				<stop  offset="1" style="stop-color:#FE7062"/>
			</linearGradient>
			
				<circle style="fill:url(#SVGID_00000036972807246108061680000015408727047980950951_);" cx="2870.364" cy="1083.86" r="376.084"/>
			<path style="opacity:0.7;fill:#FFFFFF;" d="M2557.118,941.334c-1.063,0.023-2.147-0.194-3.173-0.686
				c-3.5-1.674-4.978-5.867-3.304-9.359c58.063-121.433,177.665-198.653,312.136-201.533c21.457-0.46,42.989,1.013,63.999,4.383
				c3.83,0.611,6.438,4.21,5.824,8.043c-0.614,3.826-4.186,6.455-8.044,5.816c-20.18-3.229-40.865-4.645-61.478-4.204
				c-129.142,2.766-244.006,76.929-299.771,193.546C2562.127,939.814,2559.685,941.279,2557.118,941.334z"/>
			
				<ellipse transform="matrix(0.7071 -0.7071 0.7071 0.7071 71.0865 2355.374)" style="opacity:0.78;fill:#FFFFFF;" cx="2878.731" cy="1091.878" rx="318.309" ry="318.309"/>
			<g>
				
					<linearGradient id="SVGID_00000072275120700180508900000000213729896972074147_" gradientUnits="userSpaceOnUse" x1="3613.4104" y1="2141.9736" x2="3826.741" y2="1430.8701" gradientTransform="matrix(0.9997 -0.0214 0.0214 0.9997 -1063.6167 74.5589)">
					<stop  offset="0" style="stop-color:#FF928E"/>
					<stop  offset="1" style="stop-color:#FE7062"/>
				</linearGradient>
				<path style="fill:url(#SVGID_00000072275120700180508900000000213729896972074147_);" d="M2852.57,1329.127l-0.741-34.622
					c-36.124-0.672-72.006-8.426-97.599-18.982c-9.139-3.77-13.973-13.832-11.575-23.423l8.105-32.438
					c2.973-11.9,15.708-18.295,27.118-13.796c25.379,10.005,56.613,17.682,90.101,16.964c34.764-0.745,60.437-13.086,59.919-37.245
					c-0.467-21.799-20.777-34.332-69.37-46.258c-69.342-17.378-119.481-46.369-120.781-107.059
					c-1.174-54.8,37.999-97.491,107.285-110.174l-0.742-34.626c-0.239-11.142,8.6-20.366,19.742-20.605l20.342-0.436
					c11.142-0.239,20.367,8.599,20.605,19.741l0.666,31.088c33.427,0.621,57.86,5.812,77.299,12.178
					c9.959,3.261,15.589,13.794,13.063,23.964l-7.45,29.999c-2.873,11.568-15.03,18.131-26.267,14.156
					c-17.907-6.337-43.17-12.793-75.815-12.094c-41.246,0.883-52.662,18.222-52.334,33.542
					c0.404,18.855,25.428,31.286,79.399,46.638c77.091,21.338,109.588,52.474,110.813,109.628
					c1.123,52.439-36.753,100.41-111.92,113.812l0.83,38.747c0.239,11.142-8.6,20.367-19.741,20.605l-20.345,0.436
					C2862.034,1349.108,2852.809,1340.269,2852.57,1329.127z"/>
			</g>
		</g>
		<g>
			<path style="fill:#7D97F4;" d="M1975.541,1148.085H642.574c-11.527,0-20.871-9.344-20.871-20.871V476.77
				c0-11.527,9.344-20.871,20.871-20.871h1332.967c11.527,0,20.871,9.344,20.871,20.871v650.444
				C1996.412,1138.741,1987.068,1148.085,1975.541,1148.085z"/>
			<path style="opacity:0.41;fill:#FFFFFF;" d="M1933.524,1136.141H671.586c-11.527,0-20.871-9.344-20.871-20.871V562.495
				c0-11.527,9.344-20.871,20.871-20.871h1261.938c11.527,0,20.871,9.344,20.871,20.871v552.775
				C1954.395,1126.797,1945.05,1136.141,1933.524,1136.141z"/>
			<g>
				<g style="opacity:0.67;">
					<rect x="693.395" y="653.212" style="fill:#FFFFFF;" width="78.789" height="454.584"/>
				</g>
				<g style="opacity:0.67;">
					<rect x="799.207" y="653.212" style="fill:#FFFFFF;" width="78.789" height="454.584"/>
				</g>
				<g style="opacity:0.67;">
					<rect x="902.807" y="653.212" style="fill:#FFFFFF;" width="78.789" height="454.584"/>
				</g>
				<g style="opacity:0.67;">
					<rect x="1008.619" y="653.212" style="fill:#FFFFFF;" width="78.789" height="454.584"/>
				</g>
				<g style="opacity:0.67;">
					<rect x="1109.075" y="653.212" style="fill:#FFFFFF;" width="78.789" height="454.584"/>
				</g>
				<g style="opacity:0.67;">
					<rect x="1214.887" y="653.212" style="fill:#FFFFFF;" width="78.789" height="454.584"/>
				</g>
				<g style="opacity:0.67;">
					<rect x="1318.487" y="653.212" style="fill:#FFFFFF;" width="78.789" height="454.584"/>
				</g>
				<g style="opacity:0.67;">
					<rect x="1424.299" y="653.212" style="fill:#FFFFFF;" width="78.789" height="454.584"/>
				</g>
				<g style="opacity:0.67;">
					<rect x="1529.753" y="653.212" style="fill:#FFFFFF;" width="78.789" height="454.584"/>
				</g>
				<g style="opacity:0.67;">
					<rect x="1635.564" y="653.212" style="fill:#FFFFFF;" width="78.789" height="454.584"/>
				</g>
				<g style="opacity:0.67;">
					<rect x="1739.165" y="653.212" style="fill:#FFFFFF;" width="78.789" height="454.584"/>
				</g>
				<g style="opacity:0.67;">
					<rect x="1844.977" y="653.212" style="fill:#FFFFFF;" width="78.789" height="454.584"/>
				</g>
			</g>
			<path style="fill:#7D97F4;" d="M1996.754,600.607V498.359c0-23.9-19.717-43.359-43.616-43.359H664.976
				c-23.899,0-43.025,19.459-43.025,43.359v102.248H1996.754z"/>
			<g>
				<g>
					<rect x="693.872" y="888.341" style="fill:#7D97F4;" width="78.789" height="219.455"/>
				</g>
				<g>
					<rect x="799.684" y="821.156" style="fill:#7D97F4;" width="78.789" height="286.639"/>
				</g>
				<g>
					<rect x="903.284" y="941.771" style="fill:#7D97F4;" width="78.789" height="166.025"/>
				</g>
				<g>
					<rect x="1009.096" y="761.028" style="fill:#7D97F4;" width="78.789" height="346.768"/>
				</g>
				<g>
					<rect x="1109.552" y="702.973" style="fill:#7D97F4;" width="78.789" height="404.823"/>
				</g>
				<g>
					<rect x="1215.364" y="984.439" style="fill:#7D97F4;" width="78.789" height="123.357"/>
				</g>
				<g>
					<rect x="1318.964" y="861.229" style="fill:#7D97F4;" width="78.789" height="246.566"/>
				</g>
				<g>
					<rect x="1424.776" y="821.156" style="fill:#7D97F4;" width="78.789" height="286.639"/>
				</g>
				<g>
					<rect x="1530.23" y="880.504" style="fill:#7D97F4;" width="78.789" height="227.292"/>
				</g>
				<g>
					<rect x="1636.041" y="729.927" style="fill:#7D97F4;" width="78.789" height="377.868"/>
				</g>
				<g>
					<rect x="1739.642" y="761.028" style="fill:#7D97F4;" width="78.789" height="346.768"/>
				</g>
				<g>
					<rect x="1845.454" y="804.558" style="fill:#7D97F4;" width="78.789" height="303.238"/>
				</g>
			</g>
		</g>
		<g>
			<path style="fill:#7D97F4;" d="M1343.432,3165.011c-39.2,3.388-107.233,8.892-160.867,11.253
				c-32.241,1.419-50.802-1.738-61.492-6.018c0.018,1.205,0.052,2.344,0.099,3.402c0.253,5.644,4.84,10.159,10.54,10.478
				c101.345,5.656,181.944,1.957,210.638,0.211c5.933-0.362,9.469-6.809,6.435-11.867
				C1347.267,3169.94,1345.428,3167.461,1343.432,3165.011z"/>
			
				<linearGradient id="SVGID_00000098901295457813932130000002607377395698588597_" gradientUnits="userSpaceOnUse" x1="-3344.8787" y1="3131.2324" x2="-3122.5061" y2="3131.2324" gradientTransform="matrix(1 0 0 1 4465.9375 0)">
				<stop  offset="0" style="stop-color:#09005D"/>
				<stop  offset="1" style="stop-color:#1A0F91"/>
			</linearGradient>
			<path style="fill:url(#SVGID_00000098901295457813932130000002607377395698588597_);" d="M1182.564,3176.264
				c53.634-2.361,121.667-7.865,160.867-11.253c-38.54-47.285-160.867-79.154-160.867-79.154h-34.549
				c-23.763,34.253-27.203,66.864-26.943,84.389C1131.762,3174.526,1150.323,3177.683,1182.564,3176.264z"/>
			
				<linearGradient id="SVGID_00000013184886668490236400000016846772170089311140_" gradientUnits="userSpaceOnUse" x1="-3323.7402" y1="3068.6213" x2="-3259.2859" y2="3068.6213" gradientTransform="matrix(1 0 0 1 4465.9375 0)">
				<stop  offset="0" style="stop-color:#FEBBBA"/>
				<stop  offset="1" style="stop-color:#FF928E"/>
			</linearGradient>
			<path style="fill:url(#SVGID_00000013184886668490236400000016846772170089311140_);" d="M1142.197,3029.454l3.233,63.979
				c0.35,6.928,5.536,12.75,12.474,13.742c6.904,0.988,16.149,1.114,25.953-2.15c6.032-2.007,10.51-7.09,11.622-13.289
				l11.172-62.282H1142.197z"/>
			<g>
				<path style="fill:#7D97F4;" d="M741.211,3238.816c-17-3.065-24.691-14.477-27.916-26.679c-0.022,0.11-0.043,0.219-0.064,0.328
					c-2.501,12.871,3.296,26.21,14.888,32.554c14.01,7.668,29.329,8.975,41.221,8.341c12.759-0.68,24.471-7.503,30.908-18.424
					l0.097-0.164C787.538,3242.962,769.56,3243.926,741.211,3238.816z"/>
				
					<linearGradient id="SVGID_00000065762649329513803950000006281205593292853657_" gradientUnits="userSpaceOnUse" x1="-3752.6426" y1="3145.5588" x2="-3623.9341" y2="3145.5588" gradientTransform="matrix(1 0 0 1 4465.9375 0)">
					<stop  offset="0" style="stop-color:#09005D"/>
					<stop  offset="1" style="stop-color:#1A0F91"/>
				</linearGradient>
				<path style="fill:url(#SVGID_00000065762649329513803950000006281205593292853657_);" d="M821.359,3049.167h-28.492
					c-43.399-1.146-70.652,117.157-79.573,162.97c3.225,12.202,10.916,23.614,27.916,26.679c28.349,5.11,46.327,4.146,59.134-4.044
					c23.446-39.876,35.071-98.278,40.658-132.362C847.358,3063.646,821.359,3049.167,821.359,3049.167z"/>
			</g>
			
				<linearGradient id="SVGID_00000179626371828404532340000008914669249894865080_" gradientUnits="userSpaceOnUse" x1="-3685.7419" y1="3035.011" x2="-3608.7126" y2="3035.011" gradientTransform="matrix(1 0 0 1 4465.9375 0)">
				<stop  offset="0" style="stop-color:#FEBBBA"/>
				<stop  offset="1" style="stop-color:#FF928E"/>
			</linearGradient>
			<path style="fill:url(#SVGID_00000179626371828404532340000008914669249894865080_);" d="M796.53,2989.782l-15.821,62.926
				c-1.94,7.716,1.753,15.696,8.886,19.356c8.851,4.542,21.312,9.315,32.763,7.933c5.386-0.649,9.86-4.443,11.639-9.514
				l23.228-66.205L796.53,2989.782z"/>
			
				<linearGradient id="SVGID_00000086661921527950535220000010420554550239991461_" gradientUnits="userSpaceOnUse" x1="-3062.6855" y1="2203.7686" x2="-3720.3398" y2="3281.0693" gradientTransform="matrix(1 0 0 1 4465.9375 0)">
				<stop  offset="0" style="stop-color:#4F52FF"/>
				<stop  offset="1" style="stop-color:#4042E2"/>
			</linearGradient>
			<path style="fill:url(#SVGID_00000086661921527950535220000010420554550239991461_);" d="M1353.083,2161.011
				c0,0-141.386,883.782-139.057,888.639c0,0-39.05,17.749-81.62,2.262c0,0,12.785-472.445,42.744-653.591
				c0,0-241.298,422.273-317.924,632.683c0,0-39.966-4.766-73.048-26.538c0,0,259.81-760.072,329.125-861.309L1353.083,2161.011z"/>
			
				<linearGradient id="SVGID_00000060028248188162116190000003710006458627947188_" gradientUnits="userSpaceOnUse" x1="1012.3444" y1="739.7623" x2="1159.6371" y2="1841.9231">
				<stop  offset="0" style="stop-color:#4F52FF"/>
				<stop  offset="1" style="stop-color:#4042E2"/>
			</linearGradient>
			<path style="fill:url(#SVGID_00000060028248188162116190000003710006458627947188_);" d="M1180.794,2395.227
				c-1.03,0-2.072-0.281-3.009-0.868c-2.66-1.664-3.466-5.171-1.801-7.829l52.835-84.394c0.827-1.324,2.163-2.248,3.694-2.556
				l38.884-7.824c3.078-0.615,6.073,1.373,6.691,4.449c0.62,3.076-1.373,6.071-4.449,6.691l-36.487,7.341l-51.538,82.321
				C1184.536,2394.282,1182.686,2395.227,1180.794,2395.227z"/>
			
				<linearGradient id="SVGID_00000171713929045291441810000010037013104498562971_" gradientUnits="userSpaceOnUse" x1="1627.1332" y1="1752.1936" x2="1906.4828" y2="1300.1547">
				<stop  offset="0" style="stop-color:#FEBBBA"/>
				<stop  offset="1" style="stop-color:#FF928E"/>
			</linearGradient>
			<path style="fill:url(#SVGID_00000171713929045291441810000010037013104498562971_);" d="M2001.895,1295.596
				c0,0-95.405,21.042-153.433,47.834c-11.525,5.321-20.717,14.625-25.953,26.093c-17.354,38.016-69.278,133.347-169.975,178.841
				c14.501,19.247,37.851,59.283,48.023,126.576c60.479-45.014,112.692-120.19,137.759-243.48c0,0,19.089,10.377,42.901-1.188
				c12.581-6.11,27.107-14.777,38.012-21.592c10.864-6.792,18.957-17.349,22.1-29.678c4.15-16.281,1.706-30.598,1.706-45.957
				l49.039-15.193C1992.073,1317.851,2006.816,1312.287,2001.895,1295.596z"/>
			
				<linearGradient id="SVGID_00000054225480360328716920000004619391967354703496_" gradientUnits="userSpaceOnUse" x1="1760.86" y1="800.855" x2="1654.1993" y2="1004.0179">
				<stop  offset="0" style="stop-color:#FF928E"/>
				<stop  offset="1" style="stop-color:#FE7062"/>
			</linearGradient>
			<path style="fill:url(#SVGID_00000054225480360328716920000004619391967354703496_);" d="M1700.557,1674.94
				c-10.172-67.293-33.521-107.329-48.023-126.576c-62.555,28.262-143.925,37.297-247.544,1.392
				c-9.551-3.309-19.514-5.248-29.616-5.841c-55.161-3.235-236.936-9.136-387.35,40.558c-31.656,10.458-57.295,33.86-70.509,64.183
				c-40.688,93.374-106.563,306.022,76.311,413.378c14.051-34.882,30.267-62.921,44.134-83.522
				c-29.451-49.675-38.173-117.522,14.088-205.874c38.107,102.898,55.985,253.038,59.72,319.482
				c1.23,21.876-2.608,43.711-11.191,63.909l-0.936,2.203c-1.837,4.322,0.691,9.289,5.312,10.327
				c102.951,23.126,210.028,16.843,242.018,14.2c5.711-0.472,10.456-4.558,11.766-10.078
				c50.062-210.942,50.176-354.832,37.92-445.793C1443.487,1737.358,1586.689,1759.689,1700.557,1674.94z"/>
			
				<linearGradient id="SVGID_00000070081439221336967040000012214556299317506967_" gradientUnits="userSpaceOnUse" x1="1899.2532" y1="601.4124" x2="883.3875" y2="2673.7795">
				<stop  offset="0" style="stop-color:#E1473D"/>
				<stop  offset="1" style="stop-color:#E9605A"/>
			</linearGradient>
			<path style="fill:url(#SVGID_00000070081439221336967040000012214556299317506967_);" d="M1396.859,1734.067
				c-2.807,0-5.247-2.08-5.625-4.938c-11.751-88.771-35.476-126.963-35.714-127.338c-1.682-2.65-0.898-6.161,1.751-7.842
				c2.653-1.683,6.161-0.897,7.842,1.751c1.027,1.62,25.308,40.705,37.385,131.938c0.412,3.11-1.775,5.965-4.887,6.377
				C1397.359,1734.05,1397.107,1734.067,1396.859,1734.067z"/>
			
				<linearGradient id="SVGID_00000101798358637005038780000010910326464140467104_" gradientUnits="userSpaceOnUse" x1="-3306.2537" y1="1668.9932" x2="-3272.8774" y2="1493.7686" gradientTransform="matrix(1 0 0 1 4465.9375 0)">
				<stop  offset="0" style="stop-color:#FEBBBA"/>
				<stop  offset="1" style="stop-color:#FF928E"/>
			</linearGradient>
			<path style="fill:url(#SVGID_00000101798358637005038780000010910326464140467104_);" d="M1142.795,1421.033
				c0,0-10.415,110.12-19.585,142.693c-1.391,4.942,0.756,10.153,5.245,12.718c15.563,8.893,52.892,23.398,103.951-1.626
				c8.272-4.054,13.245-12.676,12.859-21.801l-4.499-106.411L1142.795,1421.033z"/>
			<g>
				
					<linearGradient id="SVGID_00000150066477133429128150000008277530609881691264_" gradientUnits="userSpaceOnUse" x1="-3215.9426" y1="1347.5118" x2="-3406.3738" y2="1493.2206" gradientTransform="matrix(1 0 0 1 4465.9375 0)">
					<stop  offset="0" style="stop-color:#FEBBBA"/>
					<stop  offset="1" style="stop-color:#FF928E"/>
				</linearGradient>
				<path style="fill:url(#SVGID_00000150066477133429128150000008277530609881691264_);" d="M1243.012,1280.156
					c0,0,33.312,76.522,35.549,116.686c2.237,40.164,10.892,66.225-35.549,74.313c-46.44,8.088-85.562-15.047-106.756-55.055
					c0,0-33.208-61.648-25.758-86.894C1117.947,1303.959,1243.012,1280.156,1243.012,1280.156z"/>
				
					<linearGradient id="SVGID_00000026149703433300326790000003552939016107345582_" gradientUnits="userSpaceOnUse" x1="-3349.9978" y1="1232.1421" x2="-3172.6411" y2="1460.4883" gradientTransform="matrix(1 0 0 1 4465.9375 0)">
					<stop  offset="0" style="stop-color:#4F52FF"/>
					<stop  offset="1" style="stop-color:#4042E2"/>
				</linearGradient>
				<path style="fill:url(#SVGID_00000026149703433300326790000003552939016107345582_);" d="M1152.125,1387.335l2.644-1.165
					c3.366-1.484,4.805-5.49,3.115-8.756c-6.549-12.653-19.315-41.648-2.823-48.412c21.255-8.717,105.447-25.886,123.612-55.76
					c17.458-28.712,1.99-65.774-21.258-76.315c-1.556-0.706-3.39-0.146-4.188,1.365l-1.937,3.666
					c-1.326,2.509-5.032,2.129-5.821-0.597v-0.001c-0.757-2.617-4.238-3.125-5.682-0.814c-5.584,8.938-20.658,23.427-60.971,30.868
					c-57.292,10.573-95.17,33.758-96.113,73.348c-0.06,2.515-2.735,3.914-4.884,2.604c-4.23-2.578-11-3.787-20.046,3.82
					c-15.734,13.23-9.296,47.549,25.197,75.779c1.638,1.342,1.625,3.899-0.149,5.054c-6.253,4.07-15.575,13.756,8.579,26.668
					c24.983,13.354,43.639,12.259,50.822,11.073c1.787-0.295,2.939-2.026,2.549-3.794l-7.667-34.796
					c-0.434-1.969,1.065-3.834,3.082-3.834H1152.125z"/>
				
					<linearGradient id="SVGID_00000169529249503537085020000008226678830966010517_" gradientUnits="userSpaceOnUse" x1="-3239.563" y1="1316.6407" x2="-3429.9946" y2="1462.35" gradientTransform="matrix(1 0 0 1 4465.9375 0)">
					<stop  offset="0" style="stop-color:#FEBBBA"/>
					<stop  offset="1" style="stop-color:#FF928E"/>
				</linearGradient>
				<path style="fill:url(#SVGID_00000169529249503537085020000008226678830966010517_);" d="M1153.568,1394.677
					c0,0-12.708-48.881-34.624-35.175c-21.916,13.705,11.372,54.769,28.991,56.598L1153.568,1394.677z"/>
			</g>
			
				<linearGradient id="SVGID_00000096029873126857660250000006198067030578829499_" gradientUnits="userSpaceOnUse" x1="2108.7126" y1="720.5071" x2="1996.9731" y2="1045.5675">
				<stop  offset="0" style="stop-color:#FF928E"/>
				<stop  offset="1" style="stop-color:#FE7062"/>
			</linearGradient>
			<path style="fill:url(#SVGID_00000096029873126857660250000006198067030578829499_);" d="M1863.761,1421.595
				c-1.26,0-2.527-0.416-3.582-1.273c-2.434-1.98-2.804-5.557-0.824-7.993c3.628-4.462,35.812-43.809,48.384-50.913
				c4.056-2.292,6.545-4.637,7.009-6.604c0.063-0.268,0.199-0.844-0.066-1.852l-35.964,7.206l-21.013,18.035
				c-2.379,2.045-5.969,1.77-8.011-0.611c-2.043-2.381-1.77-5.968,0.611-8.011l22.14-19.003c0.74-0.635,1.628-1.068,2.584-1.26
				l41.646-8.344c2.241-0.45,4.545,0.494,5.828,2.396c3.254,4.831,4.366,9.559,3.305,14.056c-1.253,5.307-5.334,9.85-12.478,13.886
				c-8.062,4.555-31.978,31.975-45.158,48.19C1867.05,1420.879,1865.412,1421.595,1863.761,1421.595z"/>
			
				<linearGradient id="SVGID_00000048500302077681124850000013981799489179620766_" gradientUnits="userSpaceOnUse" x1="-3187.8311" y1="622.4937" x2="-3147.1982" y2="160.2988" gradientTransform="matrix(1 0 0 1 4465.9375 0)">
				<stop  offset="0" style="stop-color:#FEBBBA"/>
				<stop  offset="1" style="stop-color:#FF928E"/>
			</linearGradient>
			<path style="fill:url(#SVGID_00000048500302077681124850000013981799489179620766_);" d="M1152.63,2137.238l150.325-3.272
				c0,0-131.087-37.054-139.221-26.962c0,0-81.247-53.39-125.773-128.493c-13.867,20.6-30.083,48.64-44.134,83.522
				C1033.743,2085.466,1086.164,2126.174,1152.63,2137.238z"/>
			
				<linearGradient id="SVGID_00000030477050144617137050000007825985705977954452_" gradientUnits="userSpaceOnUse" x1="-117.3108" y1="629.9176" x2="-76.678" y2="167.7226" gradientTransform="matrix(-1 0 0 1 994.055 0)">
				<stop  offset="0" style="stop-color:#FEBBBA"/>
				<stop  offset="1" style="stop-color:#FF928E"/>
			</linearGradient>
			<path style="fill:url(#SVGID_00000030477050144617137050000007825985705977954452_);" d="M1148.391,2111.208
				c0,0-3.1,59.895,75.521,51.197c42.729-4.727,111.712-44.566,111.712-44.566S1155.824,2117.361,1148.391,2111.208z"/>
			<g>
				
					<linearGradient id="SVGID_00000096054274462909527750000018357020251332909973_" gradientUnits="userSpaceOnUse" x1="864.7753" y1="2128.4607" x2="563.6602" y2="2210.9885" gradientTransform="matrix(-0.9988 -0.0494 -0.0494 0.9988 2084.6709 -55.0328)">
					<stop  offset="0" style="stop-color:#09005D"/>
					<stop  offset="1" style="stop-color:#1A0F91"/>
				</linearGradient>
				<path style="fill:url(#SVGID_00000096054274462909527750000018357020251332909973_);" d="M1179.178,2127.276
					c0.286,0.014,0.572,0.022,0.859,0.019l373.761-0.403c9.239-0.007,16.721-7.427,16.712-16.569
					c-0.009-9.145-7.534-16.7-16.749-16.536l-373.761,0.404c-9.239,0.007-16.721,7.427-16.712,16.569
					C1163.299,2119.617,1170.339,2126.844,1179.178,2127.276z"/>
				
					<linearGradient id="SVGID_00000163035036863263850350000013387642059839392649_" gradientUnits="userSpaceOnUse" x1="519.0745" y1="1836.0077" x2="306.6758" y2="2060.4998" gradientTransform="matrix(-1 0 0 1 2043.2018 0)">
					<stop  offset="0" style="stop-color:#09005D"/>
					<stop  offset="1" style="stop-color:#1A0F91"/>
				</linearGradient>
				<path style="fill:url(#SVGID_00000163035036863263850350000013387642059839392649_);" d="M1889.793,1791.509h-311.271
					c-22.962,0-43.863,13.111-53.657,33.661l-143.9,301.909h386.826c14.798,0,28.093-8.946,33.532-22.563l111.588-279.371
					C1919.358,1809.002,1907.335,1791.509,1889.793,1791.509z"/>
				<path style="fill:#7D97F4;" d="M1670.5,1946.307c-6.746,20.735-1.762,40.873,11.13,44.979
					c12.893,4.106,28.812-9.375,35.557-30.111c6.745-20.735,1.762-40.873-11.13-44.978
					C1693.164,1912.09,1677.245,1925.571,1670.5,1946.307z"/>
			</g>
		</g>
	</g>
</g>
</svg>
